<svg width="204" height="186" viewBox="0 0 204 186" fill="none" xmlns="http://www.w3.org/2000/svg">
<rect x="50.5051" y="65.4258" width="94.1226" height="94.1226" rx="2.13077" stroke="black"/>
<path d="M90.2612 121.821C88.4793 121.821 86.8579 121.622 85.397 121.224C83.936 120.825 82.4972 120.134 81.0806 119.149V113.305H84.8325L85.3472 116.741C85.8452 117.162 86.5314 117.505 87.4058 117.771C88.2801 118.025 89.2319 118.153 90.2612 118.153C91.1356 118.153 91.8716 118.031 92.4692 117.787C93.078 117.544 93.5373 117.201 93.8472 116.758C94.1681 116.304 94.3286 115.773 94.3286 115.164C94.3286 114.589 94.1847 114.08 93.897 113.637C93.6203 113.183 93.1554 112.774 92.5024 112.408C91.8605 112.032 90.9862 111.672 89.8794 111.329C87.9647 110.765 86.3765 110.151 85.1147 109.487C83.8641 108.811 82.9233 108.009 82.2925 107.079C81.6727 106.139 81.3628 105.01 81.3628 103.693C81.3628 102.387 81.7225 101.236 82.4419 100.239C83.1724 99.2323 84.1795 98.4409 85.4634 97.8654C86.7472 97.2899 88.2303 96.9911 89.9126 96.9689C91.772 96.9468 93.4155 97.1682 94.8433 97.633C96.2821 98.0978 97.5216 98.7453 98.562 99.5754V105.021H94.9263L94.2954 101.7C93.8748 101.435 93.3049 101.202 92.5854 101.003C91.8771 100.804 91.0692 100.704 90.1616 100.704C89.3869 100.704 88.7007 100.82 88.103 101.053C87.5164 101.285 87.0516 101.623 86.7085 102.066C86.3654 102.508 86.1938 103.045 86.1938 103.676C86.1938 104.218 86.3433 104.694 86.6421 105.104C86.9409 105.502 87.439 105.884 88.1362 106.249C88.8446 106.603 89.8185 106.985 91.0581 107.395C93.7254 108.136 95.7453 109.116 97.1177 110.333C98.5011 111.551 99.1929 113.15 99.1929 115.131C99.1929 116.503 98.8221 117.693 98.0806 118.7C97.339 119.696 96.2987 120.466 94.9595 121.008C93.6203 121.55 92.0542 121.821 90.2612 121.821ZM107.245 121.821C105.463 121.821 104.046 121.346 102.995 120.394C101.943 119.431 101.417 118.125 101.417 116.476C101.417 115.347 101.722 114.356 102.331 113.504C102.95 112.652 103.858 111.982 105.053 111.495C106.26 111.008 107.743 110.765 109.502 110.765H111.876V109.437C111.876 108.573 111.622 107.876 111.113 107.345C110.615 106.803 109.862 106.531 108.855 106.531C108.335 106.531 107.864 106.598 107.444 106.731C107.034 106.852 106.664 107.029 106.332 107.262L105.95 109.636H102.463L102.397 104.971C103.338 104.44 104.356 104.008 105.452 103.676C106.547 103.344 107.77 103.178 109.121 103.178C111.467 103.178 113.321 103.726 114.682 104.821C116.043 105.906 116.724 107.461 116.724 109.487V116.891C116.724 117.134 116.724 117.378 116.724 117.621C116.735 117.854 116.757 118.081 116.791 118.302L118.667 118.568V121.473H112.657C112.535 121.163 112.413 120.831 112.292 120.477C112.17 120.123 112.081 119.768 112.026 119.414C111.45 120.145 110.77 120.731 109.984 121.174C109.209 121.606 108.296 121.821 107.245 121.821ZM108.54 118.236C109.215 118.236 109.857 118.086 110.465 117.787C111.074 117.477 111.544 117.073 111.876 116.575V113.737H109.486C108.423 113.737 107.615 113.98 107.062 114.467C106.52 114.954 106.249 115.541 106.249 116.227C106.249 116.869 106.448 117.367 106.846 117.721C107.256 118.064 107.82 118.236 108.54 118.236Z" fill="black"/>
<path d="M73.124 147.016C73.124 146.864 73.1103 146.725 73.083 146.6C73.0557 146.475 72.9971 146.36 72.9072 146.254C72.8213 146.149 72.6943 146.043 72.5264 145.938C72.3623 145.833 72.1475 145.723 71.8818 145.61C71.5654 145.477 71.2588 145.336 70.9619 145.188C70.665 145.036 70.3975 144.86 70.1592 144.661C69.9209 144.461 69.7314 144.227 69.5908 143.958C69.4541 143.684 69.3857 143.364 69.3857 142.997C69.3857 142.637 69.4502 142.311 69.5791 142.018C69.7119 141.725 69.8994 141.475 70.1416 141.268C70.3838 141.057 70.667 140.895 70.9912 140.782C71.3193 140.668 71.6846 140.612 72.0869 140.612C72.6338 140.612 73.1064 140.725 73.5049 140.952C73.9072 141.178 74.2178 141.489 74.4365 141.883C74.6592 142.278 74.7705 142.731 74.7705 143.243H73.0596C73.0596 143 73.0244 142.788 72.9541 142.604C72.8877 142.417 72.7803 142.27 72.6318 142.165C72.4834 142.059 72.292 142.006 72.0576 142.006C71.8389 142.006 71.6572 142.051 71.5127 142.141C71.3721 142.227 71.2666 142.346 71.1963 142.499C71.1299 142.647 71.0967 142.815 71.0967 143.002C71.0967 143.143 71.1299 143.27 71.1963 143.383C71.2666 143.493 71.3623 143.592 71.4834 143.682C71.6045 143.768 71.7471 143.852 71.9111 143.934C72.0791 144.016 72.2627 144.096 72.4619 144.174C72.8486 144.327 73.1904 144.495 73.4873 144.678C73.7842 144.858 74.0322 145.061 74.2314 145.288C74.4307 145.51 74.581 145.762 74.6826 146.043C74.7842 146.325 74.835 146.645 74.835 147.004C74.835 147.36 74.7725 147.684 74.6475 147.977C74.5264 148.266 74.3486 148.516 74.1143 148.727C73.8799 148.934 73.5967 149.094 73.2646 149.208C72.9365 149.321 72.5693 149.377 72.1631 149.377C71.7685 149.377 71.3955 149.323 71.0439 149.213C70.6924 149.1 70.3818 148.93 70.1123 148.704C69.8467 148.473 69.6377 148.182 69.4853 147.831C69.333 147.475 69.2568 147.055 69.2568 146.571H70.9736C70.9736 146.829 70.999 147.049 71.0498 147.233C71.1006 147.413 71.1787 147.557 71.2842 147.667C71.3896 147.772 71.5185 147.852 71.6709 147.907C71.8271 147.958 72.0049 147.983 72.2041 147.983C72.4307 147.983 72.6103 147.94 72.7432 147.854C72.8799 147.768 72.9775 147.653 73.0361 147.508C73.0947 147.364 73.124 147.2 73.124 147.016ZM79.068 147.801V144.872C79.068 144.68 79.0446 144.528 78.9977 144.415C78.9547 144.301 78.8883 144.219 78.7985 144.168C78.7125 144.114 78.6071 144.086 78.4821 144.086C78.3414 144.086 78.2243 144.116 78.1305 144.174C78.0368 144.233 77.9664 144.317 77.9196 144.426C77.8766 144.536 77.8551 144.667 77.8551 144.819H76.2086C76.2086 144.545 76.2614 144.288 76.3668 144.045C76.4723 143.799 76.6266 143.584 76.8297 143.401C77.0368 143.213 77.2828 143.067 77.568 142.961C77.8532 142.856 78.1735 142.803 78.5289 142.803C78.9508 142.803 79.3258 142.875 79.6539 143.02C79.9821 143.161 80.2418 143.385 80.4332 143.694C80.6246 144.002 80.7203 144.403 80.7203 144.895V147.719C80.7203 148.075 80.7379 148.364 80.7731 148.586C80.8121 148.809 80.8688 149 80.943 149.161V149.26H79.2907C79.2164 149.084 79.1598 148.866 79.1207 148.604C79.0856 148.338 79.068 148.071 79.068 147.801ZM79.2672 145.387L79.2731 146.372H78.6696C78.5133 146.372 78.3766 146.397 78.2594 146.448C78.1461 146.499 78.0504 146.571 77.9723 146.665C77.8942 146.754 77.8356 146.86 77.7965 146.981C77.7614 147.102 77.7438 147.231 77.7438 147.368C77.7438 147.52 77.7653 147.649 77.8082 147.754C77.8512 147.86 77.9157 147.94 78.0016 147.995C78.0875 148.049 78.1891 148.077 78.3063 148.077C78.486 148.077 78.6422 148.04 78.775 147.965C78.9078 147.891 79.0055 147.801 79.068 147.696C79.1344 147.59 79.1559 147.493 79.1325 147.403L79.5075 148.042C79.4606 148.186 79.3961 148.336 79.3141 148.493C79.236 148.649 79.1364 148.793 79.0153 148.926C78.8942 149.059 78.7438 149.168 78.5641 149.254C78.3883 149.336 78.1793 149.377 77.9371 149.377C77.5973 149.377 77.2868 149.299 77.0055 149.143C76.7243 148.987 76.5016 148.768 76.3375 148.487C76.1774 148.206 76.0973 147.872 76.0973 147.485C76.0973 147.165 76.1481 146.875 76.2496 146.618C76.3551 146.356 76.5114 146.135 76.7184 145.956C76.9254 145.772 77.1871 145.631 77.5035 145.534C77.82 145.436 78.191 145.387 78.6168 145.387H79.2672ZM84.5843 148.012C84.7366 148.012 84.8675 147.981 84.9768 147.918C85.0901 147.856 85.176 147.754 85.2346 147.614C85.2932 147.473 85.3245 147.292 85.3284 147.069H86.8694C86.8694 147.545 86.7678 147.958 86.5647 148.305C86.3655 148.649 86.096 148.915 85.7561 149.102C85.4202 149.286 85.0393 149.377 84.6135 149.377C84.1878 149.377 83.8167 149.309 83.5003 149.172C83.1839 149.036 82.9221 148.836 82.7151 148.575C82.512 148.313 82.3577 147.995 82.2522 147.62C82.1507 147.241 82.0999 146.807 82.0999 146.319V145.856C82.0999 145.375 82.1507 144.946 82.2522 144.567C82.3577 144.188 82.512 143.868 82.7151 143.606C82.9221 143.344 83.1819 143.145 83.4944 143.008C83.8108 142.872 84.1819 142.803 84.6077 142.803C85.0647 142.803 85.4612 142.899 85.7971 143.09C86.1331 143.278 86.3948 143.555 86.5823 143.922C86.7737 144.29 86.8694 144.743 86.8694 145.282H85.3284C85.3245 145.04 85.2952 144.838 85.2405 144.678C85.1897 144.514 85.1096 144.389 85.0003 144.303C84.8948 144.213 84.7542 144.168 84.5784 144.168C84.3948 144.168 84.2464 144.208 84.1331 144.286C84.0237 144.36 83.9397 144.469 83.8811 144.614C83.8264 144.754 83.7893 144.93 83.7698 145.141C83.7503 145.352 83.7405 145.59 83.7405 145.856V146.319C83.7405 146.604 83.7483 146.852 83.7639 147.063C83.7835 147.27 83.8206 147.446 83.8753 147.59C83.9339 147.731 84.0178 147.836 84.1272 147.907C84.2405 147.977 84.3928 148.012 84.5843 148.012ZM90.4638 148.012C90.6161 148.012 90.747 147.981 90.8564 147.918C90.9696 147.856 91.0556 147.754 91.1142 147.614C91.1728 147.473 91.204 147.292 91.2079 147.069H92.7489C92.7489 147.545 92.6474 147.958 92.4443 148.305C92.245 148.649 91.9755 148.915 91.6357 149.102C91.2997 149.286 90.9189 149.377 90.4931 149.377C90.0673 149.377 89.6962 149.309 89.3798 149.172C89.0634 149.036 88.8017 148.836 88.5946 148.575C88.3915 148.313 88.2372 147.995 88.1318 147.62C88.0302 147.241 87.9794 146.807 87.9794 146.319V145.856C87.9794 145.375 88.0302 144.946 88.1318 144.567C88.2372 144.188 88.3915 143.868 88.5946 143.606C88.8017 143.344 89.0614 143.145 89.3739 143.008C89.6903 142.872 90.0614 142.803 90.4872 142.803C90.9443 142.803 91.3407 142.899 91.6767 143.09C92.0126 143.278 92.2743 143.555 92.4618 143.922C92.6532 144.29 92.7489 144.743 92.7489 145.282H91.2079C91.204 145.04 91.1747 144.838 91.12 144.678C91.0693 144.514 90.9892 144.389 90.8798 144.303C90.7743 144.213 90.6337 144.168 90.4579 144.168C90.2743 144.168 90.1259 144.208 90.0126 144.286C89.9032 144.36 89.8193 144.469 89.7607 144.614C89.706 144.754 89.6689 144.93 89.6493 145.141C89.6298 145.352 89.62 145.59 89.62 145.856V146.319C89.62 146.604 89.6278 146.852 89.6435 147.063C89.663 147.27 89.7001 147.446 89.7548 147.59C89.8134 147.731 89.8974 147.836 90.0068 147.907C90.12 147.977 90.2724 148.012 90.4638 148.012ZM95.6519 140.26V149.26H94.0113V140.26H95.6519ZM95.4175 145.874L94.9722 145.885C94.9722 145.44 95.0171 145.03 95.107 144.655C95.1968 144.28 95.3296 143.954 95.5054 143.676C95.6851 143.399 95.9 143.184 96.15 143.032C96.4039 142.879 96.6832 142.803 96.9878 142.803C97.2496 142.803 97.4878 142.848 97.7027 142.938C97.9175 143.028 98.1031 143.168 98.2593 143.36C98.4195 143.551 98.5425 143.805 98.6285 144.122C98.7144 144.434 98.7574 144.813 98.7574 145.258V149.26H97.1109V145.247C97.1109 144.973 97.0835 144.758 97.0289 144.602C96.9742 144.446 96.8921 144.336 96.7828 144.274C96.6734 144.208 96.5367 144.174 96.3726 144.174C96.1968 144.174 96.0464 144.217 95.9214 144.303C95.8003 144.389 95.7027 144.51 95.6285 144.667C95.5543 144.819 95.4996 144.999 95.4644 145.206C95.4332 145.413 95.4175 145.635 95.4175 145.874ZM103.113 147.801V144.872C103.113 144.68 103.09 144.528 103.043 144.415C103 144.301 102.934 144.219 102.844 144.168C102.758 144.114 102.653 144.086 102.528 144.086C102.387 144.086 102.27 144.116 102.176 144.174C102.082 144.233 102.012 144.317 101.965 144.426C101.922 144.536 101.901 144.667 101.901 144.819H100.254C100.254 144.545 100.307 144.288 100.412 144.045C100.518 143.799 100.672 143.584 100.875 143.401C101.082 143.213 101.328 143.067 101.613 142.961C101.899 142.856 102.219 142.803 102.574 142.803C102.996 142.803 103.371 142.875 103.699 143.02C104.028 143.161 104.287 143.385 104.479 143.694C104.67 144.002 104.766 144.403 104.766 144.895V147.719C104.766 148.075 104.783 148.364 104.819 148.586C104.858 148.809 104.914 149 104.988 149.161V149.26H103.336C103.262 149.084 103.205 148.866 103.166 148.604C103.131 148.338 103.113 148.071 103.113 147.801ZM103.313 145.387L103.319 146.372H102.715C102.559 146.372 102.422 146.397 102.305 146.448C102.192 146.499 102.096 146.571 102.018 146.665C101.94 146.754 101.881 146.86 101.842 146.981C101.807 147.102 101.789 147.231 101.789 147.368C101.789 147.52 101.811 147.649 101.854 147.754C101.897 147.86 101.961 147.94 102.047 147.995C102.133 148.049 102.235 148.077 102.352 148.077C102.531 148.077 102.688 148.04 102.821 147.965C102.953 147.891 103.051 147.801 103.113 147.696C103.18 147.59 103.201 147.493 103.178 147.403L103.553 148.042C103.506 148.186 103.442 148.336 103.36 148.493C103.281 148.649 103.182 148.793 103.061 148.926C102.94 149.059 102.789 149.168 102.61 149.254C102.434 149.336 102.225 149.377 101.983 149.377C101.643 149.377 101.332 149.299 101.051 149.143C100.77 148.987 100.547 148.768 100.383 148.487C100.223 148.206 100.143 147.872 100.143 147.485C100.143 147.165 100.194 146.875 100.295 146.618C100.401 146.356 100.557 146.135 100.764 145.956C100.971 145.772 101.233 145.631 101.549 145.534C101.865 145.436 102.237 145.387 102.662 145.387H103.313ZM107.979 144.333V149.26H106.339V142.92H107.886L107.979 144.333ZM109.473 142.874L109.45 144.508C109.376 144.493 109.286 144.481 109.181 144.473C109.079 144.465 108.989 144.461 108.911 144.461C108.727 144.461 108.571 144.491 108.442 144.549C108.313 144.604 108.206 144.688 108.12 144.801C108.038 144.911 107.975 145.047 107.932 145.211C107.889 145.375 107.864 145.561 107.856 145.768L107.546 145.651C107.546 145.237 107.577 144.858 107.639 144.514C107.706 144.167 107.804 143.866 107.932 143.612C108.061 143.354 108.216 143.155 108.395 143.014C108.579 142.874 108.786 142.803 109.016 142.803C109.095 142.803 109.177 142.811 109.263 142.827C109.352 142.838 109.423 142.854 109.473 142.874ZM110.273 146.307V145.879C110.273 145.383 110.332 144.944 110.449 144.561C110.57 144.178 110.742 143.858 110.964 143.6C111.187 143.338 111.455 143.141 111.767 143.008C112.083 142.872 112.437 142.803 112.828 142.803C113.222 142.803 113.576 142.872 113.888 143.008C114.205 143.141 114.474 143.338 114.697 143.6C114.923 143.858 115.097 144.178 115.218 144.561C115.339 144.944 115.4 145.383 115.4 145.879V146.307C115.4 146.799 115.339 147.237 115.218 147.62C115.097 148.002 114.923 148.325 114.697 148.586C114.474 148.848 114.207 149.045 113.894 149.178C113.582 149.311 113.23 149.377 112.839 149.377C112.449 149.377 112.095 149.311 111.779 149.178C111.466 149.045 111.197 148.848 110.97 148.586C110.744 148.325 110.57 148.002 110.449 147.62C110.332 147.237 110.273 146.799 110.273 146.307ZM111.914 145.879V146.307C111.914 146.6 111.933 146.854 111.972 147.069C112.015 147.284 112.076 147.461 112.154 147.602C112.236 147.743 112.333 147.846 112.447 147.913C112.56 147.979 112.691 148.012 112.839 148.012C112.988 148.012 113.121 147.979 113.238 147.913C113.355 147.846 113.451 147.743 113.525 147.602C113.603 147.461 113.66 147.284 113.695 147.069C113.734 146.854 113.753 146.6 113.753 146.307V145.879C113.753 145.594 113.732 145.344 113.689 145.129C113.646 144.911 113.585 144.733 113.507 144.596C113.429 144.456 113.332 144.35 113.214 144.28C113.101 144.206 112.972 144.168 112.828 144.168C112.683 144.168 112.554 144.206 112.441 144.28C112.332 144.35 112.236 144.456 112.154 144.596C112.076 144.733 112.015 144.911 111.972 145.129C111.933 145.344 111.914 145.594 111.914 145.879ZM119.609 147.549C119.609 147.44 119.572 147.342 119.498 147.256C119.424 147.17 119.307 147.083 119.147 146.993C118.986 146.899 118.774 146.795 118.508 146.682C118.219 146.565 117.963 146.444 117.74 146.319C117.518 146.194 117.328 146.055 117.172 145.903C117.02 145.75 116.904 145.577 116.826 145.381C116.748 145.186 116.709 144.963 116.709 144.713C116.709 144.444 116.758 144.196 116.856 143.969C116.957 143.739 117.102 143.538 117.289 143.366C117.477 143.19 117.705 143.053 117.975 142.956C118.248 142.854 118.555 142.803 118.895 142.803C119.371 142.803 119.779 142.887 120.119 143.055C120.463 143.219 120.727 143.45 120.91 143.747C121.094 144.043 121.186 144.389 121.186 144.784H119.545C119.545 144.643 119.524 144.518 119.481 144.409C119.438 144.295 119.367 144.208 119.27 144.145C119.176 144.083 119.049 144.051 118.889 144.051C118.772 144.051 118.666 144.077 118.572 144.127C118.483 144.178 118.41 144.247 118.356 144.333C118.305 144.415 118.279 144.512 118.279 144.625C118.279 144.711 118.297 144.788 118.332 144.854C118.371 144.92 118.432 144.985 118.514 145.047C118.596 145.11 118.705 145.176 118.842 145.247C118.983 145.313 119.154 145.387 119.358 145.469C119.779 145.625 120.125 145.793 120.395 145.973C120.668 146.153 120.871 146.364 121.004 146.606C121.137 146.844 121.203 147.139 121.203 147.491C121.203 147.772 121.149 148.028 121.039 148.258C120.934 148.489 120.779 148.688 120.576 148.856C120.373 149.024 120.129 149.153 119.844 149.243C119.563 149.333 119.248 149.377 118.901 149.377C118.389 149.377 117.957 149.276 117.606 149.073C117.254 148.87 116.988 148.61 116.809 148.293C116.629 147.973 116.539 147.641 116.539 147.297H118.098C118.106 147.508 118.145 147.674 118.215 147.795C118.289 147.913 118.389 147.995 118.514 148.042C118.639 148.088 118.777 148.112 118.93 148.112C119.082 148.112 119.207 148.092 119.305 148.053C119.406 148.01 119.483 147.946 119.533 147.86C119.584 147.77 119.609 147.667 119.609 147.549ZM125.161 149.377C124.727 149.377 124.343 149.311 124.007 149.178C123.675 149.045 123.393 148.854 123.163 148.604C122.932 148.35 122.757 148.043 122.636 147.684C122.514 147.325 122.454 146.915 122.454 146.454V145.932C122.454 145.417 122.512 144.965 122.63 144.579C122.747 144.188 122.913 143.86 123.128 143.594C123.343 143.329 123.606 143.131 123.919 143.002C124.235 142.87 124.593 142.803 124.991 142.803C125.389 142.803 125.739 142.87 126.04 143.002C126.344 143.131 126.596 143.327 126.796 143.588C126.995 143.846 127.145 144.167 127.247 144.549C127.348 144.932 127.399 145.377 127.399 145.885V146.635H123.151V145.481H125.788V145.334C125.788 145.077 125.761 144.862 125.706 144.69C125.651 144.514 125.565 144.383 125.448 144.297C125.331 144.211 125.175 144.168 124.979 144.168C124.815 144.168 124.677 144.202 124.563 144.268C124.45 144.334 124.36 144.438 124.294 144.579C124.227 144.719 124.178 144.903 124.147 145.129C124.116 145.352 124.1 145.62 124.1 145.932V146.454C124.1 146.747 124.126 146.993 124.177 147.192C124.227 147.387 124.302 147.547 124.399 147.672C124.501 147.793 124.624 147.881 124.768 147.936C124.913 147.987 125.081 148.012 125.272 148.012C125.561 148.012 125.821 147.961 126.052 147.86C126.286 147.754 126.485 147.612 126.649 147.432L127.305 148.428C127.192 148.577 127.036 148.725 126.837 148.874C126.637 149.022 126.399 149.143 126.122 149.237C125.844 149.331 125.524 149.377 125.161 149.377Z" fill="black"/>
<path d="M117.111 76.2679V77.6859H113.402V76.2679H117.111ZM113.935 69.1546V77.6859H112.218V69.1546H113.935ZM116.613 72.6116V73.9886H113.402V72.6116H116.613ZM117.099 69.1546V70.5784H113.402V69.1546H117.099ZM126.415 72.6702V74.1526C126.415 74.7933 126.354 75.3441 126.233 75.805C126.112 76.2659 125.942 76.6448 125.724 76.9417C125.505 77.2347 125.245 77.4515 124.944 77.5921C124.644 77.7327 124.311 77.803 123.948 77.803C123.659 77.803 123.388 77.7581 123.134 77.6683C122.88 77.5784 122.649 77.4417 122.442 77.2581C122.239 77.0706 122.063 76.8343 121.915 76.5491C121.77 76.2601 121.659 75.9183 121.581 75.5237C121.503 75.1253 121.464 74.6683 121.464 74.1526V72.6702C121.464 72.0296 121.524 71.4808 121.645 71.0237C121.77 70.5628 121.942 70.1859 122.161 69.8929C122.38 69.5999 122.64 69.3851 122.94 69.2484C123.245 69.1077 123.579 69.0374 123.942 69.0374C124.228 69.0374 124.497 69.0823 124.751 69.1722C125.005 69.2581 125.233 69.3929 125.436 69.5765C125.64 69.7601 125.813 69.9964 125.958 70.2855C126.106 70.5706 126.22 70.9124 126.298 71.3109C126.376 71.7054 126.415 72.1585 126.415 72.6702ZM124.769 74.3812V72.43C124.769 72.1292 124.755 71.8655 124.728 71.639C124.704 71.4124 124.669 71.221 124.622 71.0648C124.579 70.9085 124.522 70.7816 124.452 70.6839C124.386 70.5862 124.31 70.5159 124.224 70.473C124.138 70.4261 124.044 70.4026 123.942 70.4026C123.813 70.4026 123.698 70.4378 123.597 70.5081C123.495 70.5784 123.407 70.6937 123.333 70.8538C123.259 71.0101 123.202 71.2191 123.163 71.4808C123.128 71.7386 123.11 72.055 123.11 72.43V74.3812C123.11 74.6819 123.122 74.9476 123.145 75.178C123.173 75.4085 123.21 75.6058 123.257 75.7698C123.308 75.93 123.364 76.0589 123.427 76.1566C123.493 76.2542 123.569 76.3265 123.655 76.3734C123.745 76.4163 123.843 76.4378 123.948 76.4378C124.073 76.4378 124.186 76.4026 124.288 76.3323C124.394 76.2581 124.481 76.1409 124.552 75.9808C124.622 75.8206 124.675 75.6097 124.71 75.348C124.749 75.0823 124.769 74.7601 124.769 74.3812ZM132.845 72.6702V74.1526C132.845 74.7933 132.785 75.3441 132.664 75.805C132.543 76.2659 132.373 76.6448 132.154 76.9417C131.935 77.2347 131.675 77.4515 131.375 77.5921C131.074 77.7327 130.742 77.803 130.379 77.803C130.089 77.803 129.818 77.7581 129.564 77.6683C129.31 77.5784 129.08 77.4417 128.873 77.2581C128.67 77.0706 128.494 76.8343 128.345 76.5491C128.201 76.2601 128.089 75.9183 128.011 75.5237C127.933 75.1253 127.894 74.6683 127.894 74.1526V72.6702C127.894 72.0296 127.955 71.4808 128.076 71.0237C128.201 70.5628 128.373 70.1859 128.591 69.8929C128.81 69.5999 129.07 69.3851 129.371 69.2484C129.675 69.1077 130.009 69.0374 130.373 69.0374C130.658 69.0374 130.927 69.0823 131.181 69.1722C131.435 69.2581 131.664 69.3929 131.867 69.5765C132.07 69.7601 132.244 69.9964 132.388 70.2855C132.537 70.5706 132.65 70.9124 132.728 71.3109C132.806 71.7054 132.845 72.1585 132.845 72.6702ZM131.199 74.3812V72.43C131.199 72.1292 131.185 71.8655 131.158 71.639C131.134 71.4124 131.099 71.221 131.052 71.0648C131.009 70.9085 130.953 70.7816 130.882 70.6839C130.816 70.5862 130.74 70.5159 130.654 70.473C130.568 70.4261 130.474 70.4026 130.373 70.4026C130.244 70.4026 130.129 70.4378 130.027 70.5081C129.925 70.5784 129.838 70.6937 129.763 70.8538C129.689 71.0101 129.632 71.2191 129.593 71.4808C129.558 71.7386 129.541 72.055 129.541 72.43V74.3812C129.541 74.6819 129.552 74.9476 129.576 75.178C129.603 75.4085 129.64 75.6058 129.687 75.7698C129.738 75.93 129.795 76.0589 129.857 76.1566C129.923 76.2542 130 76.3265 130.086 76.3734C130.175 76.4163 130.273 76.4378 130.379 76.4378C130.504 76.4378 130.617 76.4026 130.718 76.3323C130.824 76.2581 130.912 76.1409 130.982 75.9808C131.052 75.8206 131.105 75.6097 131.14 75.348C131.179 75.0823 131.199 74.7601 131.199 74.3812ZM139.276 72.6702V74.1526C139.276 74.7933 139.215 75.3441 139.094 75.805C138.973 76.2659 138.803 76.6448 138.584 76.9417C138.365 77.2347 138.106 77.4515 137.805 77.5921C137.504 77.7327 137.172 77.803 136.809 77.803C136.52 77.803 136.248 77.7581 135.994 77.6683C135.74 77.5784 135.51 77.4417 135.303 77.2581C135.1 77.0706 134.924 76.8343 134.776 76.5491C134.631 76.2601 134.52 75.9183 134.442 75.5237C134.364 75.1253 134.324 74.6683 134.324 74.1526V72.6702C134.324 72.0296 134.385 71.4808 134.506 71.0237C134.631 70.5628 134.803 70.1859 135.022 69.8929C135.24 69.5999 135.5 69.3851 135.801 69.2484C136.106 69.1077 136.44 69.0374 136.803 69.0374C137.088 69.0374 137.358 69.0823 137.612 69.1722C137.865 69.2581 138.094 69.3929 138.297 69.5765C138.5 69.7601 138.674 69.9964 138.819 70.2855C138.967 70.5706 139.08 70.9124 139.158 71.3109C139.237 71.7054 139.276 72.1585 139.276 72.6702ZM137.629 74.3812V72.43C137.629 72.1292 137.615 71.8655 137.588 71.639C137.565 71.4124 137.53 71.221 137.483 71.0648C137.44 70.9085 137.383 70.7816 137.313 70.6839C137.246 70.5862 137.17 70.5159 137.084 70.473C136.998 70.4261 136.905 70.4026 136.803 70.4026C136.674 70.4026 136.559 70.4378 136.457 70.5081C136.356 70.5784 136.268 70.6937 136.194 70.8538C136.119 71.0101 136.063 71.2191 136.024 71.4808C135.989 71.7386 135.971 72.055 135.971 72.43V74.3812C135.971 74.6819 135.983 74.9476 136.006 75.178C136.033 75.4085 136.071 75.6058 136.117 75.7698C136.168 75.93 136.225 76.0589 136.287 76.1566C136.354 76.2542 136.43 76.3265 136.516 76.3734C136.606 76.4163 136.703 76.4378 136.809 76.4378C136.934 76.4378 137.047 76.4026 137.149 76.3323C137.254 76.2581 137.342 76.1409 137.412 75.9808C137.483 75.8206 137.535 75.6097 137.571 75.348C137.61 75.0823 137.629 74.7601 137.629 74.3812Z" fill="black"/>
<path d="M57.7073 72.6644H58.51C58.7131 72.6644 58.8811 72.6175 59.0139 72.5237C59.1467 72.4261 59.2444 72.2894 59.3069 72.1136C59.3694 71.9339 59.4006 71.7249 59.4006 71.4866C59.4006 71.2757 59.3713 71.0901 59.3127 70.93C59.2542 70.7659 59.1643 70.637 59.0432 70.5433C58.9221 70.4456 58.7698 70.3968 58.5862 70.3968C58.4456 70.3968 58.3127 70.4359 58.1877 70.514C58.0667 70.5882 57.9709 70.6976 57.9006 70.8421C57.8303 70.9866 57.7952 71.1585 57.7952 71.3577H56.1487C56.1487 70.889 56.2542 70.4808 56.4651 70.1331C56.6799 69.7855 56.969 69.5159 57.3323 69.3245C57.6956 69.1292 58.0979 69.0316 58.5393 69.0316C59.0354 69.0316 59.4709 69.1234 59.8459 69.3069C60.2209 69.4905 60.5139 69.764 60.7249 70.1273C60.9358 70.4866 61.0413 70.9319 61.0413 71.4632C61.0413 71.7366 60.9905 72.0003 60.8889 72.2542C60.7874 72.5042 60.6389 72.7308 60.4436 72.9339C60.2483 73.137 60.01 73.2972 59.7288 73.4144C59.4475 73.5316 59.1292 73.5901 58.7737 73.5901H57.7073V72.6644ZM57.7073 73.9944V73.098H58.7737C59.176 73.098 59.5256 73.1507 59.8225 73.2562C60.1194 73.3577 60.3655 73.5062 60.5608 73.7015C60.76 73.8968 60.9084 74.1292 61.0061 74.3987C61.1038 74.6644 61.1526 74.9612 61.1526 75.2894C61.1526 75.6878 61.0862 76.0433 60.9534 76.3558C60.8206 76.6683 60.635 76.9319 60.3967 77.1468C60.1584 77.3616 59.8811 77.5257 59.5647 77.639C59.2483 77.7484 58.9045 77.803 58.5334 77.803C58.2249 77.803 57.9221 77.7542 57.6252 77.6566C57.3323 77.5589 57.0686 77.4085 56.8342 77.2054C56.5999 77.0023 56.4143 76.7464 56.2776 76.4378C56.1409 76.1292 56.0725 75.764 56.0725 75.3421H57.7131C57.7131 75.553 57.7502 75.7425 57.8245 75.9105C57.9026 76.0745 58.0061 76.2034 58.135 76.2972C58.2639 76.3909 58.4104 76.4378 58.5745 76.4378C58.7659 76.4378 58.9319 76.389 59.0725 76.2913C59.2131 76.1937 59.3206 76.0569 59.3948 75.8812C59.469 75.7054 59.5061 75.5023 59.5061 75.2718C59.5061 74.9671 59.467 74.723 59.3889 74.5394C59.3108 74.3519 59.1975 74.2151 59.0491 74.1292C58.9006 74.0394 58.7209 73.9944 58.51 73.9944H57.7073ZM67.5829 75.3421C67.5829 75.8812 67.4774 76.3343 67.2665 76.7015C67.0595 77.0648 66.7704 77.3401 66.3993 77.5276C66.0321 77.7112 65.6142 77.803 65.1454 77.803C64.6767 77.803 64.2567 77.7112 63.8856 77.5276C63.5145 77.3401 63.2216 77.0648 63.0067 76.7015C62.7919 76.3343 62.6845 75.8812 62.6845 75.3421C62.6845 74.9788 62.745 74.6526 62.8661 74.3636C62.9872 74.0745 63.1571 73.8245 63.3759 73.6136C63.5985 73.4026 63.8583 73.2425 64.1552 73.1331C64.4559 73.0198 64.7821 72.9632 65.1337 72.9632C65.6063 72.9632 66.0282 73.0609 66.3993 73.2562C66.7704 73.4515 67.0595 73.7269 67.2665 74.0823C67.4774 74.4378 67.5829 74.8577 67.5829 75.3421ZM65.9364 75.2249C65.9364 74.9671 65.9032 74.7464 65.8368 74.5628C65.7743 74.3792 65.6825 74.2386 65.5614 74.1409C65.4403 74.0433 65.2977 73.9944 65.1337 73.9944C64.9696 73.9944 64.827 74.0433 64.7059 74.1409C64.5888 74.2386 64.497 74.3792 64.4306 74.5628C64.3642 74.7464 64.3309 74.9671 64.3309 75.2249C64.3309 75.4749 64.3622 75.6898 64.4247 75.8694C64.4911 76.0491 64.5849 76.1898 64.7059 76.2913C64.8309 76.389 64.9774 76.4378 65.1454 76.4378C65.3134 76.4378 65.4559 76.389 65.5731 76.2913C65.6942 76.1898 65.7841 76.0491 65.8427 75.8694C65.9052 75.6898 65.9364 75.4749 65.9364 75.2249ZM67.4423 71.4222C67.4423 71.8597 67.3446 72.2444 67.1493 72.5765C66.954 72.9085 66.6825 73.1683 66.3349 73.3558C65.9911 73.5433 65.5946 73.637 65.1454 73.637C64.6923 73.637 64.2899 73.5433 63.9384 73.3558C63.5907 73.1683 63.3192 72.9085 63.1239 72.5765C62.9286 72.2444 62.8309 71.8597 62.8309 71.4222C62.8309 70.9066 62.9286 70.471 63.1239 70.1155C63.3231 69.7601 63.5966 69.4905 63.9442 69.3069C64.2919 69.1234 64.6903 69.0316 65.1395 69.0316C65.5888 69.0316 65.9872 69.1234 66.3349 69.3069C66.6825 69.4905 66.954 69.7601 67.1493 70.1155C67.3446 70.471 67.4423 70.9066 67.4423 71.4222ZM65.8017 71.5042C65.8017 71.2816 65.7763 71.0882 65.7255 70.9241C65.6786 70.7562 65.6063 70.6273 65.5087 70.5374C65.4149 70.4437 65.2919 70.3968 65.1395 70.3968C64.995 70.3968 64.872 70.4417 64.7704 70.5316C64.6727 70.6175 64.5985 70.7444 64.5477 70.9124C64.5009 71.0765 64.4774 71.2737 64.4774 71.5042C64.4774 71.7269 64.5009 71.9222 64.5477 72.0901C64.5985 72.2581 64.6727 72.3909 64.7704 72.4886C64.872 72.5823 64.997 72.6292 65.1454 72.6292C65.2938 72.6292 65.4149 72.5823 65.5087 72.4886C65.6063 72.3909 65.6786 72.2581 65.7255 72.0901C65.7763 71.9222 65.8017 71.7269 65.8017 71.5042ZM74.0894 69.1546V70.0921L71.3941 77.6859H69.6597L72.3667 70.5198H68.9331V69.1546H74.0894Z" fill="black"/>
<path d="M3.71729 10.0699L5.31006 3.12463H6.20557L5.73389 5.82483L4.00439 13.0778H3.10889L3.71729 10.0699ZM2.14502 3.12463L3.38916 9.93323L3.7583 13.0778H2.87646L0.894043 3.12463H2.14502ZM8.23584 9.92639L9.45264 3.12463H10.7036L8.72803 13.0778H7.84619L8.23584 9.92639ZM6.34912 3.12463L7.89404 10.0699L8.48877 13.0778H7.59326L5.93896 5.82483L5.46729 3.12463H6.34912ZM14.8287 13.2145C14.3866 13.2145 13.9879 13.1484 13.6324 13.0162C13.2769 12.8841 12.9739 12.6836 12.7232 12.4147C12.4726 12.1412 12.2812 11.7972 12.149 11.3824C12.0168 10.9677 11.9508 10.4778 11.9508 9.91272V9.07874C11.9508 8.42704 12.026 7.87561 12.1763 7.42444C12.3313 6.97327 12.5387 6.61096 12.7984 6.33752C13.0582 6.05953 13.3521 5.85901 13.6803 5.73596C14.0084 5.60836 14.3456 5.54456 14.692 5.54456C15.1568 5.54456 15.5533 5.61975 15.8814 5.77014C16.2096 5.92053 16.4762 6.14384 16.6812 6.44006C16.8863 6.73629 17.0367 7.10087 17.1324 7.53381C17.2327 7.96676 17.2828 8.46578 17.2828 9.03088V9.73499H12.6617V8.70276H16.0728V8.53186C16.0546 8.14905 16.0022 7.81181 15.9156 7.52014C15.8336 7.22847 15.6969 7.00061 15.5054 6.83655C15.314 6.66793 15.0429 6.58362 14.692 6.58362C14.4687 6.58362 14.2613 6.62236 14.0699 6.69983C13.8831 6.77275 13.7213 6.90263 13.5846 7.08948C13.4524 7.27177 13.3476 7.5247 13.2701 7.84827C13.1972 8.17183 13.1607 8.58199 13.1607 9.07874V9.91272C13.1607 10.3092 13.1972 10.651 13.2701 10.9381C13.3476 11.2207 13.4592 11.4554 13.6051 11.6422C13.7554 11.8245 13.9377 11.9612 14.1519 12.0524C14.3707 12.139 14.6191 12.1823 14.8971 12.1823C15.3026 12.1823 15.6376 12.1048 15.9019 11.9498C16.1663 11.7903 16.3964 11.5875 16.5924 11.3414L17.2281 12.1002C17.0959 12.2871 16.9228 12.4671 16.7086 12.6403C16.4989 12.8089 16.2392 12.9479 15.9293 13.0573C15.6239 13.1621 15.2571 13.2145 14.8287 13.2145ZM20.3756 6.84338V13.0778H19.1657V5.68127H20.3346L20.3756 6.84338ZM22.2145 5.64026L22.2213 6.81604C22.1211 6.79325 22.0299 6.77958 21.9479 6.77502C21.8704 6.76591 21.7793 6.76135 21.6745 6.76135C21.4466 6.76135 21.2461 6.80693 21.0729 6.89807C20.9043 6.98922 20.7585 7.11682 20.6354 7.28088C20.5124 7.44495 20.4144 7.64091 20.3415 7.86877C20.2685 8.09208 20.2184 8.33818 20.1911 8.60706L19.8766 8.81213C19.8766 8.36552 19.9108 7.94625 19.9792 7.55432C20.0521 7.16239 20.1637 6.81604 20.3141 6.51526C20.4645 6.20992 20.6559 5.97294 20.8883 5.80432C21.1253 5.63114 21.4079 5.54456 21.736 5.54456C21.8089 5.54456 21.8978 5.55595 22.0026 5.57874C22.112 5.59696 22.1826 5.61747 22.2145 5.64026ZM26.8933 5.68127V6.65198H23.4412V5.68127H26.8933ZM24.5691 3.88342H25.779V11.2457C25.779 11.4964 25.8087 11.6855 25.8679 11.8131C25.9317 11.9407 26.0115 12.025 26.1072 12.066C26.2029 12.1071 26.3054 12.1276 26.4148 12.1276C26.4968 12.1276 26.588 12.1184 26.6882 12.1002C26.7885 12.0774 26.8568 12.0592 26.8933 12.0455L26.8865 13.0778C26.8044 13.1097 26.6951 13.1393 26.5583 13.1666C26.4216 13.1985 26.2484 13.2145 26.0388 13.2145C25.779 13.2145 25.5375 13.153 25.3142 13.0299C25.0909 12.9069 24.9109 12.7018 24.7742 12.4147C24.6374 12.123 24.5691 11.7311 24.5691 11.2389V3.88342ZM36.2646 11.6422V2.57776H37.4677V13.0778H36.3671L36.2646 11.6422ZM32.1288 9.73499V9.04456C32.1288 8.43388 32.1881 7.90979 32.3065 7.47229C32.425 7.03023 32.5937 6.66793 32.8124 6.38538C33.0312 6.09827 33.2932 5.88635 33.5985 5.74963C33.9039 5.61292 34.2411 5.54456 34.6103 5.54456C34.9931 5.54456 35.3212 5.62203 35.5946 5.77698C35.8726 5.93193 36.105 6.15751 36.2919 6.45374C36.4787 6.7454 36.6246 7.10087 36.7294 7.52014C36.8388 7.93486 36.9117 8.40426 36.9481 8.92834V9.8512C36.9071 10.3707 36.8319 10.8378 36.7226 11.2526C36.6177 11.6673 36.4719 12.0205 36.2851 12.3121C36.0982 12.6038 35.8658 12.8271 35.5878 12.9821C35.3098 13.137 34.9794 13.2145 34.5966 13.2145C34.232 13.2145 33.8993 13.1438 33.5985 13.0026C33.2978 12.8567 33.0357 12.6403 32.8124 12.3531C32.5937 12.0615 32.425 11.6992 32.3065 11.2662C32.1881 10.8287 32.1288 10.3183 32.1288 9.73499ZM33.3388 9.04456V9.73499C33.3388 10.1451 33.3684 10.5029 33.4276 10.8082C33.4869 11.109 33.5803 11.3597 33.7079 11.5602C33.8355 11.7561 33.9973 11.902 34.1933 11.9977C34.3938 12.0934 34.633 12.1412 34.911 12.1412C35.2483 12.1412 35.524 12.0592 35.7382 11.8951C35.9524 11.7311 36.1233 11.5146 36.2509 11.2457C36.383 10.9723 36.4879 10.6783 36.5653 10.3639V8.42249C36.5198 8.19006 36.4537 7.96676 36.3671 7.75256C36.2805 7.53381 36.1711 7.34013 36.039 7.17151C35.9114 6.99833 35.7541 6.86161 35.5673 6.76135C35.385 6.66109 35.1708 6.61096 34.9247 6.61096C34.6467 6.61096 34.4052 6.66109 34.2001 6.76135C33.9996 6.86161 33.8355 7.012 33.7079 7.21252C33.5849 7.41305 33.4914 7.66597 33.4276 7.97131C33.3684 8.27665 33.3388 8.6344 33.3388 9.04456ZM42.3994 13.2145C41.9573 13.2145 41.5586 13.1484 41.2031 13.0162C40.8476 12.8841 40.5446 12.6836 40.2939 12.4147C40.0433 12.1412 39.8519 11.7972 39.7197 11.3824C39.5875 10.9677 39.5215 10.4778 39.5215 9.91272V9.07874C39.5215 8.42704 39.5967 7.87561 39.7471 7.42444C39.902 6.97327 40.1094 6.61096 40.3691 6.33752C40.6289 6.05953 40.9228 5.85901 41.251 5.73596C41.5791 5.60836 41.9163 5.54456 42.2627 5.54456C42.7275 5.54456 43.124 5.61975 43.4521 5.77014C43.7803 5.92053 44.0469 6.14384 44.2519 6.44006C44.457 6.73629 44.6074 7.10087 44.7031 7.53381C44.8034 7.96676 44.8535 8.46578 44.8535 9.03088V9.73499H40.2324V8.70276H43.6435V8.53186C43.6253 8.14905 43.5729 7.81181 43.4863 7.52014C43.4043 7.22847 43.2676 7.00061 43.0762 6.83655C42.8847 6.66793 42.6136 6.58362 42.2627 6.58362C42.0394 6.58362 41.832 6.62236 41.6406 6.69983C41.4538 6.77275 41.292 6.90263 41.1553 7.08948C41.0231 7.27177 40.9183 7.5247 40.8408 7.84827C40.7679 8.17183 40.7314 8.58199 40.7314 9.07874V9.91272C40.7314 10.3092 40.7679 10.651 40.8408 10.9381C40.9183 11.2207 41.0299 11.4554 41.1758 11.6422C41.3262 11.8245 41.5084 11.9612 41.7226 12.0524C41.9414 12.139 42.1898 12.1823 42.4678 12.1823C42.8734 12.1823 43.2083 12.1048 43.4726 11.9498C43.737 11.7903 43.9671 11.5875 44.1631 11.3414L44.7988 12.1002C44.6666 12.2871 44.4935 12.4671 44.2793 12.6403C44.0696 12.8089 43.8099 12.9479 43.5 13.0573C43.1946 13.1621 42.8278 13.2145 42.3994 13.2145ZM50.3253 11.1842C50.3253 10.9974 50.2797 10.8333 50.1885 10.692C50.0974 10.5507 49.947 10.414 49.7374 10.2819C49.5323 10.1497 49.2543 10.0084 48.9034 9.85803C48.5616 9.71676 48.254 9.57776 47.9805 9.44104C47.7116 9.29976 47.4838 9.14709 47.2969 8.98303C47.1101 8.81897 46.9665 8.62984 46.8663 8.41565C46.7706 8.1969 46.7227 7.93941 46.7227 7.64319C46.7227 7.34696 46.7774 7.07353 46.8868 6.82288C47.0007 6.56767 47.1602 6.34436 47.3653 6.15295C47.5704 5.96155 47.8165 5.81344 48.1036 5.70862C48.3907 5.59924 48.712 5.54456 49.0674 5.54456C49.5733 5.54456 50.004 5.64254 50.3594 5.8385C50.7149 6.03446 50.9861 6.30334 51.1729 6.64514C51.3643 6.98238 51.46 7.36292 51.46 7.78674H50.2569C50.2569 7.58167 50.2113 7.38798 50.1202 7.20569C50.029 7.0234 49.8946 6.87528 49.7169 6.76135C49.5391 6.64286 49.3226 6.58362 49.0674 6.58362C48.7986 6.58362 48.5798 6.63147 48.4112 6.72717C48.2426 6.82288 48.1195 6.9482 48.042 7.10315C47.9691 7.25354 47.9327 7.41988 47.9327 7.60217C47.9327 7.73889 47.9509 7.85738 47.9874 7.95764C48.0284 8.05334 48.0967 8.14449 48.1924 8.23108C48.2881 8.31311 48.418 8.3997 48.5821 8.49084C48.7507 8.57743 48.9649 8.67769 49.2247 8.79163C49.726 8.98759 50.1475 9.18583 50.4893 9.38635C50.8311 9.58687 51.0909 9.82157 51.2686 10.0905C51.4463 10.3593 51.5352 10.692 51.5352 11.0885C51.5352 11.4121 51.476 11.706 51.3575 11.9703C51.2435 12.2301 51.0795 12.4534 50.8653 12.6403C50.6511 12.8271 50.3936 12.9707 50.0928 13.0709C49.7966 13.1666 49.4639 13.2145 49.0948 13.2145C48.5388 13.2145 48.0671 13.1051 47.6797 12.8864C47.2969 12.663 47.0053 12.3737 46.8047 12.0182C46.6088 11.6582 46.5108 11.2731 46.5108 10.8629H47.7208C47.7344 11.2093 47.8119 11.4781 47.9532 11.6696C48.099 11.861 48.2745 11.9931 48.4795 12.066C48.6846 12.139 48.8897 12.1754 49.0948 12.1754C49.3637 12.1754 49.5892 12.1367 49.7715 12.0592C49.9538 11.9772 50.0906 11.861 50.1817 11.7106C50.2774 11.5602 50.3253 11.3847 50.3253 11.1842ZM60.7971 11.8131V7.80042C60.7971 7.50875 60.7515 7.27405 60.6604 7.09631C60.5738 6.91858 60.4416 6.7887 60.2639 6.70667C60.0907 6.62463 59.872 6.58362 59.6076 6.58362C59.3524 6.58362 59.1314 6.63603 58.9445 6.74084C58.7623 6.84566 58.621 6.98466 58.5207 7.15784C58.425 7.33101 58.3772 7.52242 58.3772 7.73206H57.1672C57.1672 7.46773 57.2242 7.20569 57.3381 6.94592C57.4566 6.68616 57.6252 6.45146 57.844 6.24182C58.0627 6.02763 58.3248 5.85901 58.6301 5.73596C58.94 5.60836 59.2863 5.54456 59.6692 5.54456C60.1249 5.54456 60.5282 5.61975 60.8791 5.77014C61.23 5.91597 61.5057 6.15523 61.7063 6.48792C61.9068 6.8206 62.007 7.26265 62.007 7.81409V11.4645C62.007 11.7106 62.0253 11.9726 62.0617 12.2506C62.1028 12.5286 62.1597 12.7679 62.2326 12.9684V13.0778H60.9817C60.9224 12.9319 60.8768 12.7382 60.8449 12.4967C60.813 12.2506 60.7971 12.0227 60.7971 11.8131ZM60.9885 8.59338L61.0022 9.48206H60.1613C59.8742 9.48206 59.6122 9.51396 59.3752 9.57776C59.1428 9.64156 58.9423 9.73499 58.7737 9.85803C58.605 9.97652 58.4751 10.1246 58.384 10.3024C58.2974 10.4801 58.2541 10.6829 58.2541 10.9108C58.2541 11.207 58.2951 11.444 58.3772 11.6217C58.4592 11.7949 58.5822 11.9202 58.7463 11.9977C58.9104 12.0752 59.1177 12.1139 59.3684 12.1139C59.6737 12.1139 59.9426 12.0433 60.175 11.902C60.4074 11.7607 60.5875 11.5898 60.7151 11.3893C60.8472 11.1888 60.9087 11.0019 60.8996 10.8287L61.1662 11.3961C61.148 11.5739 61.0888 11.7675 60.9885 11.9772C60.8928 12.1823 60.7584 12.3805 60.5852 12.5719C60.412 12.7587 60.2069 12.9137 59.9699 13.0367C59.7375 13.1552 59.4755 13.2145 59.1838 13.2145C58.7554 13.2145 58.3794 13.1324 58.0559 12.9684C57.7369 12.8043 57.4885 12.5628 57.3108 12.2438C57.133 11.9248 57.0442 11.5306 57.0442 11.0612C57.0442 10.7057 57.1057 10.3776 57.2287 10.0768C57.3518 9.776 57.5341 9.51624 57.7756 9.29749C58.0171 9.07418 58.3202 8.901 58.6848 8.77795C59.0539 8.65491 59.48 8.59338 59.9631 8.59338H60.9885ZM68.0462 11.3688V5.68127H69.2562V13.0778H68.1077L68.0462 11.3688ZM68.2718 9.81018L68.7503 9.79651C68.7503 10.2887 68.707 10.7444 68.6204 11.1637C68.5384 11.5784 68.4017 11.9384 68.2103 12.2438C68.0234 12.5491 67.775 12.7884 67.4651 12.9615C67.1552 13.1302 66.7747 13.2145 66.3235 13.2145C66.0182 13.2145 65.7402 13.1621 65.4896 13.0573C65.2435 12.9524 65.0293 12.7906 64.847 12.5719C64.6692 12.3531 64.5302 12.0683 64.43 11.7174C64.3343 11.3665 64.2864 10.9449 64.2864 10.4528V5.68127H65.4896V10.4664C65.4896 10.7991 65.5192 11.0748 65.5784 11.2936C65.6377 11.5078 65.7174 11.6787 65.8177 11.8063C65.9179 11.9293 66.0296 12.0159 66.1526 12.066C66.2757 12.1162 66.401 12.1412 66.5286 12.1412C66.957 12.1412 67.2988 12.0387 67.554 11.8336C67.8092 11.624 67.9915 11.3437 68.1009 10.9928C68.2148 10.6373 68.2718 10.2431 68.2718 9.81018ZM75.0834 11.1842C75.0834 10.9974 75.0378 10.8333 74.9467 10.692C74.8555 10.5507 74.7051 10.414 74.4955 10.2819C74.2904 10.1497 74.0124 10.0084 73.6615 9.85803C73.3197 9.71676 73.0121 9.57776 72.7387 9.44104C72.4698 9.29976 72.2419 9.14709 72.0551 8.98303C71.8682 8.81897 71.7247 8.62984 71.6244 8.41565C71.5287 8.1969 71.4808 7.93941 71.4808 7.64319C71.4808 7.34696 71.5355 7.07353 71.6449 6.82288C71.7588 6.56767 71.9183 6.34436 72.1234 6.15295C72.3285 5.96155 72.5746 5.81344 72.8617 5.70862C73.1488 5.59924 73.4701 5.54456 73.8256 5.54456C74.3314 5.54456 74.7621 5.64254 75.1176 5.8385C75.473 6.03446 75.7442 6.30334 75.931 6.64514C76.1224 6.98238 76.2181 7.36292 76.2181 7.78674H75.015C75.015 7.58167 74.9694 7.38798 74.8783 7.20569C74.7872 7.0234 74.6527 6.87528 74.475 6.76135C74.2972 6.64286 74.0808 6.58362 73.8256 6.58362C73.5567 6.58362 73.3379 6.63147 73.1693 6.72717C73.0007 6.82288 72.8777 6.9482 72.8002 7.10315C72.7273 7.25354 72.6908 7.41988 72.6908 7.60217C72.6908 7.73889 72.709 7.85738 72.7455 7.95764C72.7865 8.05334 72.8549 8.14449 72.9506 8.23108C73.0463 8.31311 73.1762 8.3997 73.3402 8.49084C73.5088 8.57743 73.723 8.67769 73.9828 8.79163C74.4841 8.98759 74.9056 9.18583 75.2474 9.38635C75.5892 9.58687 75.849 9.82157 76.0267 10.0905C76.2045 10.3593 76.2933 10.692 76.2933 11.0885C76.2933 11.4121 76.2341 11.706 76.1156 11.9703C76.0017 12.2301 75.8376 12.4534 75.6234 12.6403C75.4092 12.8271 75.1517 12.9707 74.851 13.0709C74.5547 13.1666 74.2221 13.2145 73.8529 13.2145C73.2969 13.2145 72.8252 13.1051 72.4379 12.8864C72.0551 12.663 71.7634 12.3737 71.5629 12.0182C71.3669 11.6582 71.2689 11.2731 71.2689 10.8629H72.4789C72.4926 11.2093 72.57 11.4781 72.7113 11.6696C72.8571 11.861 73.0326 11.9931 73.2377 12.066C73.4428 12.139 73.6478 12.1754 73.8529 12.1754C74.1218 12.1754 74.3474 12.1367 74.5297 12.0592C74.712 11.9772 74.8487 11.861 74.9398 11.7106C75.0355 11.5602 75.0834 11.3847 75.0834 11.1842ZM82.3051 5.68127H83.3921V13.1393C83.3921 13.791 83.2781 14.3287 83.0503 14.7526C82.8269 15.1764 82.5148 15.4886 82.1137 15.6891C81.7127 15.8942 81.2501 15.9967 80.726 15.9967C80.5392 15.9967 80.3045 15.9625 80.0219 15.8942C79.7394 15.8258 79.4568 15.721 79.1743 15.5797C78.8917 15.443 78.6593 15.2698 78.477 15.0602L78.976 14.2194C79.2358 14.4837 79.5115 14.6728 79.8032 14.7867C80.0949 14.9007 80.3728 14.9576 80.6372 14.9576C80.9516 14.9576 81.2251 14.9007 81.4575 14.7867C81.6899 14.6728 81.8699 14.486 81.9975 14.2262C82.1251 13.971 82.1889 13.6292 82.1889 13.2008V7.30823L82.3051 5.68127ZM78.0532 9.73499V9.04456C78.0532 8.43388 78.1102 7.90979 78.2241 7.47229C78.338 7.03023 78.5021 6.66793 78.7163 6.38538C78.935 6.09827 79.1971 5.88635 79.5024 5.74963C79.8077 5.61292 80.1495 5.54456 80.5278 5.54456C80.9106 5.54456 81.241 5.62203 81.519 5.77698C81.797 5.93193 82.0271 6.15751 82.2094 6.45374C82.3963 6.7454 82.5421 7.10087 82.6469 7.52014C82.7563 7.93486 82.8315 8.40426 82.8725 8.92834V9.8512C82.8315 10.3707 82.7563 10.8378 82.6469 11.2526C82.5421 11.6673 82.394 12.0205 82.2026 12.3121C82.0157 12.6038 81.7833 12.8271 81.5053 12.9821C81.2273 13.137 80.8969 13.2145 80.5141 13.2145C80.1404 13.2145 79.8032 13.1438 79.5024 13.0026C79.2016 12.8567 78.9419 12.6403 78.7231 12.3531C78.5089 12.0615 78.3426 11.6992 78.2241 11.2662C78.1102 10.8287 78.0532 10.3183 78.0532 9.73499ZM79.2631 9.04456V9.73499C79.2631 10.1451 79.2928 10.5029 79.352 10.8082C79.4113 11.109 79.5024 11.3597 79.6255 11.5602C79.7531 11.7561 79.9148 11.902 80.1108 11.9977C80.3113 12.0934 80.5506 12.1412 80.8286 12.1412C81.1658 12.1412 81.4415 12.0592 81.6557 11.8951C81.8699 11.7311 82.0408 11.5146 82.1684 11.2457C82.3006 10.9723 82.4054 10.6783 82.4829 10.3639V8.42249C82.4373 8.19006 82.3712 7.96676 82.2846 7.75256C82.2026 7.53381 82.0955 7.34013 81.9633 7.17151C81.8312 6.99833 81.6717 6.86161 81.4848 6.76135C81.3025 6.66109 81.0883 6.61096 80.8422 6.61096C80.5643 6.61096 80.325 6.66109 80.1245 6.76135C79.924 6.86161 79.7599 7.012 79.6323 7.21252C79.5047 7.41305 79.4113 7.66597 79.352 7.97131C79.2928 8.27665 79.2631 8.6344 79.2631 9.04456ZM88.2691 13.2145C87.827 13.2145 87.4283 13.1484 87.0728 13.0162C86.7173 12.8841 86.4143 12.6836 86.1636 12.4147C85.913 12.1412 85.7216 11.7972 85.5894 11.3824C85.4572 10.9677 85.3912 10.4778 85.3912 9.91272V9.07874C85.3912 8.42704 85.4663 7.87561 85.6167 7.42444C85.7717 6.97327 85.979 6.61096 86.2388 6.33752C86.4986 6.05953 86.7925 5.85901 87.1206 5.73596C87.4488 5.60836 87.786 5.54456 88.1324 5.54456C88.5972 5.54456 88.9937 5.61975 89.3218 5.77014C89.6499 5.92053 89.9165 6.14384 90.1216 6.44006C90.3267 6.73629 90.4771 7.10087 90.5728 7.53381C90.6731 7.96676 90.7232 8.46578 90.7232 9.03088V9.73499H86.1021V8.70276H89.5132V8.53186C89.495 8.14905 89.4426 7.81181 89.356 7.52014C89.274 7.22847 89.1372 7.00061 88.9458 6.83655C88.7544 6.66793 88.4833 6.58362 88.1324 6.58362C87.9091 6.58362 87.7017 6.62236 87.5103 6.69983C87.3234 6.77275 87.1617 6.90263 87.0249 7.08948C86.8928 7.27177 86.788 7.5247 86.7105 7.84827C86.6376 8.17183 86.6011 8.58199 86.6011 9.07874V9.91272C86.6011 10.3092 86.6376 10.651 86.7105 10.9381C86.788 11.2207 86.8996 11.4554 87.0454 11.6422C87.1958 11.8245 87.3781 11.9612 87.5923 12.0524C87.8111 12.139 88.0594 12.1823 88.3374 12.1823C88.743 12.1823 89.078 12.1048 89.3423 11.9498C89.6066 11.7903 89.8368 11.5875 90.0328 11.3414L90.6685 12.1002C90.5363 12.2871 90.3632 12.4671 90.149 12.6403C89.9393 12.8089 89.6796 12.9479 89.3697 13.0573C89.0643 13.1621 88.6975 13.2145 88.2691 13.2145ZM94.1236 11.7653L95.7574 5.68127H96.5436L96.4547 6.89124L94.8141 13.0778H94.0553L94.1236 11.7653ZM93.235 5.68127L94.609 11.8336L94.6432 13.0778H93.8434L92.0387 5.68127H93.235ZM97.9449 11.7858L99.2438 5.68127H100.433L98.6285 13.0778H97.8424L97.9449 11.7858ZM96.7145 5.68127L98.3072 11.6627L98.4166 13.0778H97.6647L95.9694 6.87756L95.8805 5.68127H96.7145ZM105.755 11.8131V7.80042C105.755 7.50875 105.709 7.27405 105.618 7.09631C105.531 6.91858 105.399 6.7887 105.221 6.70667C105.048 6.62463 104.829 6.58362 104.565 6.58362C104.31 6.58362 104.089 6.63603 103.902 6.74084C103.72 6.84566 103.578 6.98466 103.478 7.15784C103.383 7.33101 103.335 7.52242 103.335 7.73206H102.125C102.125 7.46773 102.182 7.20569 102.296 6.94592C102.414 6.68616 102.583 6.45146 102.801 6.24182C103.02 6.02763 103.282 5.85901 103.588 5.73596C103.897 5.60836 104.244 5.54456 104.627 5.54456C105.082 5.54456 105.486 5.61975 105.837 5.77014C106.188 5.91597 106.463 6.15523 106.664 6.48792C106.864 6.8206 106.965 7.26265 106.965 7.81409V11.4645C106.965 11.7106 106.983 11.9726 107.019 12.2506C107.06 12.5286 107.117 12.7679 107.19 12.9684V13.0778H105.939C105.88 12.9319 105.834 12.7382 105.802 12.4967C105.771 12.2506 105.755 12.0227 105.755 11.8131ZM105.946 8.59338L105.96 9.48206H105.119C104.832 9.48206 104.57 9.51396 104.333 9.57776C104.1 9.64156 103.9 9.73499 103.731 9.85803C103.563 9.97652 103.433 10.1246 103.342 10.3024C103.255 10.4801 103.212 10.6829 103.212 10.9108C103.212 11.207 103.253 11.444 103.335 11.6217C103.417 11.7949 103.54 11.9202 103.704 11.9977C103.868 12.0752 104.075 12.1139 104.326 12.1139C104.631 12.1139 104.9 12.0433 105.133 11.902C105.365 11.7607 105.545 11.5898 105.673 11.3893C105.805 11.1888 105.866 11.0019 105.857 10.8287L106.124 11.3961C106.106 11.5739 106.046 11.7675 105.946 11.9772C105.85 12.1823 105.716 12.3805 105.543 12.5719C105.37 12.7587 105.164 12.9137 104.927 13.0367C104.695 13.1552 104.433 13.2145 104.141 13.2145C103.713 13.2145 103.337 13.1324 103.013 12.9684C102.694 12.8043 102.446 12.5628 102.268 12.2438C102.091 11.9248 102.002 11.5306 102.002 11.0612C102.002 10.7057 102.063 10.3776 102.186 10.0768C102.309 9.776 102.492 9.51624 102.733 9.29749C102.975 9.07418 103.278 8.901 103.642 8.77795C104.011 8.65491 104.438 8.59338 104.921 8.59338H105.946ZM102.501 3.70569C102.501 3.50061 102.564 3.32743 102.692 3.18616C102.82 3.04488 103.004 2.97424 103.246 2.97424C103.492 2.97424 103.679 3.04488 103.806 3.18616C103.934 3.32743 103.998 3.50061 103.998 3.70569C103.998 3.90165 103.934 4.07027 103.806 4.21155C103.679 4.34827 103.492 4.41663 103.246 4.41663C103.004 4.41663 102.82 4.34827 102.692 4.21155C102.564 4.07027 102.501 3.90165 102.501 3.70569ZM105.447 3.71936C105.447 3.51428 105.508 3.34111 105.632 3.19983C105.759 3.05855 105.946 2.98792 106.192 2.98792C106.434 2.98792 106.618 3.05855 106.746 3.19983C106.878 3.34111 106.944 3.51428 106.944 3.71936C106.944 3.91532 106.878 4.08394 106.746 4.22522C106.618 4.36194 106.434 4.4303 106.192 4.4303C105.946 4.4303 105.759 4.36194 105.632 4.22522C105.508 4.08394 105.447 3.91532 105.447 3.71936ZM110.474 2.57776V13.0778H109.264V2.57776H110.474ZM110.18 9.09924L109.688 9.07874C109.684 8.57288 109.741 8.10575 109.859 7.67737C109.982 7.24443 110.155 6.86845 110.379 6.54944C110.607 6.23043 110.878 5.98433 111.192 5.81116C111.507 5.63342 111.855 5.54456 112.238 5.54456C112.539 5.54456 112.812 5.59469 113.058 5.69495C113.304 5.79065 113.514 5.9456 113.687 6.15979C113.86 6.37398 113.993 6.65198 114.084 6.99377C114.179 7.33101 114.227 7.74345 114.227 8.23108V13.0778H113.017V8.21741C113.017 7.83004 112.974 7.52014 112.887 7.28772C112.805 7.05074 112.678 6.87984 112.505 6.77502C112.336 6.66565 112.122 6.61096 111.862 6.61096C111.625 6.61096 111.404 6.67704 111.199 6.8092C110.994 6.94137 110.814 7.12366 110.659 7.35608C110.509 7.5885 110.39 7.8551 110.303 8.15588C110.221 8.45211 110.18 8.76656 110.18 9.09924ZM117.751 2.57776V13.0778H116.548V2.57776H117.751ZM122.785 5.68127V6.65198H119.333V5.68127H122.785ZM120.461 3.88342H121.671V11.2457C121.671 11.4964 121.7 11.6855 121.76 11.8131C121.824 11.9407 121.903 12.025 121.999 12.066C122.095 12.1071 122.197 12.1276 122.307 12.1276C122.389 12.1276 122.48 12.1184 122.58 12.1002C122.68 12.0774 122.749 12.0592 122.785 12.0455L122.778 13.0778C122.696 13.1097 122.587 13.1393 122.45 13.1666C122.313 13.1985 122.14 13.2145 121.931 13.2145C121.671 13.2145 121.429 13.153 121.206 13.0299C120.983 12.9069 120.803 12.7018 120.666 12.4147C120.529 12.123 120.461 11.7311 120.461 11.2389V3.88342ZM127.293 13.2145C126.851 13.2145 126.452 13.1484 126.097 13.0162C125.741 12.8841 125.438 12.6836 125.188 12.4147C124.937 12.1412 124.745 11.7972 124.613 11.3824C124.481 10.9677 124.415 10.4778 124.415 9.91272V9.07874C124.415 8.42704 124.49 7.87561 124.641 7.42444C124.796 6.97327 125.003 6.61096 125.263 6.33752C125.522 6.05953 125.816 5.85901 126.145 5.73596C126.473 5.60836 126.81 5.54456 127.156 5.54456C127.621 5.54456 128.018 5.61975 128.346 5.77014C128.674 5.92053 128.94 6.14384 129.146 6.44006C129.351 6.73629 129.501 7.10087 129.597 7.53381C129.697 7.96676 129.747 8.46578 129.747 9.03088V9.73499H125.126V8.70276H128.537V8.53186C128.519 8.14905 128.466 7.81181 128.38 7.52014C128.298 7.22847 128.161 7.00061 127.97 6.83655C127.778 6.66793 127.507 6.58362 127.156 6.58362C126.933 6.58362 126.726 6.62236 126.534 6.69983C126.347 6.77275 126.186 6.90263 126.049 7.08948C125.917 7.27177 125.812 7.5247 125.734 7.84827C125.661 8.17183 125.625 8.58199 125.625 9.07874V9.91272C125.625 10.3092 125.661 10.651 125.734 10.9381C125.812 11.2207 125.924 11.4554 126.069 11.6422C126.22 11.8245 126.402 11.9612 126.616 12.0524C126.835 12.139 127.083 12.1823 127.361 12.1823C127.767 12.1823 128.102 12.1048 128.366 11.9498C128.631 11.7903 128.861 11.5875 129.057 11.3414L129.692 12.1002C129.56 12.2871 129.387 12.4671 129.173 12.6403C128.963 12.8089 128.703 12.9479 128.394 13.0573C128.088 13.1621 127.721 13.2145 127.293 13.2145ZM132.84 7.26038V13.0778H131.63V5.68127H132.772L132.84 7.26038ZM132.546 9.09924L132.054 9.07874C132.049 8.57288 132.106 8.10575 132.225 7.67737C132.348 7.24443 132.521 6.86845 132.744 6.54944C132.972 6.23043 133.243 5.98433 133.558 5.81116C133.872 5.63342 134.221 5.54456 134.604 5.54456C134.904 5.54456 135.178 5.59469 135.424 5.69495C135.67 5.79065 135.88 5.9456 136.053 6.15979C136.226 6.37398 136.358 6.65198 136.449 6.99377C136.545 7.33101 136.593 7.74345 136.593 8.23108V13.0778H135.383V8.21741C135.383 7.83004 135.34 7.52014 135.253 7.28772C135.171 7.05074 135.043 6.87984 134.87 6.77502C134.702 6.66565 134.487 6.61096 134.228 6.61096C133.991 6.61096 133.77 6.67704 133.565 6.8092C133.359 6.94137 133.179 7.12366 133.025 7.35608C132.874 7.5885 132.756 7.8551 132.669 8.15588C132.587 8.45211 132.546 8.76656 132.546 9.09924ZM143.886 3.12463V13.0778H142.628V3.12463H143.886ZM147.242 7.60217V8.68225H143.647V7.60217H147.242ZM147.81 3.12463V4.20471H143.647V3.12463H147.81ZM150.923 5.68127V13.0778H149.72V5.68127H150.923ZM149.652 3.71936C149.652 3.51428 149.709 3.34111 149.823 3.19983C149.937 3.05855 150.107 2.98792 150.335 2.98792C150.563 2.98792 150.734 3.05855 150.848 3.19983C150.966 3.34111 151.026 3.51428 151.026 3.71936C151.026 3.91532 150.966 4.08394 150.848 4.22522C150.734 4.36194 150.563 4.4303 150.335 4.4303C150.107 4.4303 149.937 4.36194 149.823 4.22522C149.709 4.08394 149.652 3.91532 149.652 3.71936ZM154.556 2.57776V13.0778H153.353V2.57776H154.556ZM159.59 5.68127V6.65198H156.138V5.68127H159.59ZM157.266 3.88342H158.476V11.2457C158.476 11.4964 158.506 11.6855 158.565 11.8131C158.629 11.9407 158.708 12.025 158.804 12.066C158.9 12.1071 159.002 12.1276 159.112 12.1276C159.194 12.1276 159.285 12.1184 159.385 12.1002C159.486 12.0774 159.554 12.0592 159.59 12.0455L159.583 13.0778C159.501 13.1097 159.392 13.1393 159.255 13.1666C159.119 13.1985 158.945 13.2145 158.736 13.2145C158.476 13.2145 158.235 13.153 158.011 13.0299C157.788 12.9069 157.608 12.7018 157.471 12.4147C157.334 12.123 157.266 11.7311 157.266 11.2389V3.88342ZM164.098 13.2145C163.656 13.2145 163.257 13.1484 162.902 13.0162C162.546 12.8841 162.243 12.6836 161.993 12.4147C161.742 12.1412 161.551 11.7972 161.419 11.3824C161.286 10.9677 161.22 10.4778 161.22 9.91272V9.07874C161.22 8.42704 161.295 7.87561 161.446 7.42444C161.601 6.97327 161.808 6.61096 162.068 6.33752C162.328 6.05953 162.622 5.85901 162.95 5.73596C163.278 5.60836 163.615 5.54456 163.962 5.54456C164.426 5.54456 164.823 5.61975 165.151 5.77014C165.479 5.92053 165.746 6.14384 165.951 6.44006C166.156 6.73629 166.306 7.10087 166.402 7.53381C166.502 7.96676 166.552 8.46578 166.552 9.03088V9.73499H161.931V8.70276H165.342V8.53186C165.324 8.14905 165.272 7.81181 165.185 7.52014C165.103 7.22847 164.966 7.00061 164.775 6.83655C164.584 6.66793 164.312 6.58362 163.962 6.58362C163.738 6.58362 163.531 6.62236 163.339 6.69983C163.153 6.77275 162.991 6.90263 162.854 7.08948C162.722 7.27177 162.617 7.5247 162.54 7.84827C162.467 8.17183 162.43 8.58199 162.43 9.07874V9.91272C162.43 10.3092 162.467 10.651 162.54 10.9381C162.617 11.2207 162.729 11.4554 162.875 11.6422C163.025 11.8245 163.207 11.9612 163.421 12.0524C163.64 12.139 163.889 12.1823 164.167 12.1823C164.572 12.1823 164.907 12.1048 165.171 11.9498C165.436 11.7903 165.666 11.5875 165.862 11.3414L166.498 12.1002C166.365 12.2871 166.192 12.4671 165.978 12.6403C165.768 12.8089 165.509 12.9479 165.199 13.0573C164.893 13.1621 164.527 13.2145 164.098 13.2145ZM169.645 6.84338V13.0778H168.435V5.68127H169.604L169.645 6.84338ZM171.484 5.64026L171.491 6.81604C171.391 6.79325 171.299 6.77958 171.217 6.77502C171.14 6.76591 171.049 6.76135 170.944 6.76135C170.716 6.76135 170.516 6.80693 170.342 6.89807C170.174 6.98922 170.028 7.11682 169.905 7.28088C169.782 7.44495 169.684 7.64091 169.611 7.86877C169.538 8.09208 169.488 8.33818 169.461 8.60706L169.146 8.81213C169.146 8.36552 169.18 7.94625 169.249 7.55432C169.322 7.16239 169.433 6.81604 169.584 6.51526C169.734 6.20992 169.925 5.97294 170.158 5.80432C170.395 5.63114 170.677 5.54456 171.006 5.54456C171.078 5.54456 171.167 5.55595 171.272 5.57874C171.382 5.59696 171.452 5.61747 171.484 5.64026ZM176.71 11.1842C176.71 10.9974 176.664 10.8333 176.573 10.692C176.482 10.5507 176.331 10.414 176.122 10.2819C175.917 10.1497 175.639 10.0084 175.288 9.85803C174.946 9.71676 174.638 9.57776 174.365 9.44104C174.096 9.29976 173.868 9.14709 173.681 8.98303C173.495 8.81897 173.351 8.62984 173.251 8.41565C173.155 8.1969 173.107 7.93941 173.107 7.64319C173.107 7.34696 173.162 7.07353 173.271 6.82288C173.385 6.56767 173.545 6.34436 173.75 6.15295C173.955 5.96155 174.201 5.81344 174.488 5.70862C174.775 5.59924 175.096 5.54456 175.452 5.54456C175.958 5.54456 176.388 5.64254 176.744 5.8385C177.099 6.03446 177.371 6.30334 177.557 6.64514C177.749 6.98238 177.844 7.36292 177.844 7.78674H176.641C176.641 7.58167 176.596 7.38798 176.505 7.20569C176.413 7.0234 176.279 6.87528 176.101 6.76135C175.924 6.64286 175.707 6.58362 175.452 6.58362C175.183 6.58362 174.964 6.63147 174.796 6.72717C174.627 6.82288 174.504 6.9482 174.426 7.10315C174.354 7.25354 174.317 7.41988 174.317 7.60217C174.317 7.73889 174.335 7.85738 174.372 7.95764C174.413 8.05334 174.481 8.14449 174.577 8.23108C174.673 8.31311 174.802 8.3997 174.967 8.49084C175.135 8.57743 175.349 8.67769 175.609 8.79163C176.11 8.98759 176.532 9.18583 176.874 9.38635C177.216 9.58687 177.475 9.82157 177.653 10.0905C177.831 10.3593 177.92 10.692 177.92 11.0885C177.92 11.4121 177.86 11.706 177.742 11.9703C177.628 12.2301 177.464 12.4534 177.25 12.6403C177.036 12.8271 176.778 12.9707 176.477 13.0709C176.181 13.1666 175.848 13.2145 175.479 13.2145C174.923 13.2145 174.452 13.1051 174.064 12.8864C173.681 12.663 173.39 12.3737 173.189 12.0182C172.993 11.6582 172.895 11.2731 172.895 10.8629H174.105C174.119 11.2093 174.196 11.4781 174.338 11.6696C174.483 11.861 174.659 11.9931 174.864 12.066C175.069 12.139 175.274 12.1754 175.479 12.1754C175.748 12.1754 175.974 12.1367 176.156 12.0592C176.338 11.9772 176.475 11.861 176.566 11.7106C176.662 11.5602 176.71 11.3847 176.71 11.1842Z" fill="black"/>
<path d="M5.83643 179.831C5.83643 179.598 5.80908 179.393 5.75439 179.216C5.69971 179.033 5.604 178.869 5.46729 178.723C5.33057 178.578 5.13916 178.439 4.89307 178.306C4.64697 178.174 4.3348 178.04 3.95654 177.903C3.54639 177.757 3.17497 177.596 2.84229 177.418C2.5096 177.235 2.22477 177.028 1.98779 176.796C1.75537 176.563 1.57536 176.297 1.44775 175.996C1.32015 175.695 1.25635 175.351 1.25635 174.964C1.25635 174.576 1.32243 174.219 1.45459 173.89C1.59131 173.562 1.78271 173.277 2.02881 173.036C2.27946 172.79 2.58024 172.598 2.93115 172.462C3.28206 172.325 3.67399 172.257 4.10693 172.257C4.75407 172.257 5.29867 172.4 5.74072 172.687C6.18734 172.97 6.52458 173.341 6.75244 173.802C6.98031 174.257 7.09424 174.745 7.09424 175.264H5.83643C5.83643 174.891 5.7749 174.56 5.65186 174.273C5.53337 173.982 5.34652 173.754 5.09131 173.59C4.84066 173.421 4.51253 173.337 4.10693 173.337C3.74235 173.337 3.44157 173.407 3.20459 173.549C2.97217 173.69 2.79899 173.881 2.68506 174.123C2.57568 174.364 2.521 174.64 2.521 174.95C2.521 175.16 2.55745 175.351 2.63037 175.524C2.70329 175.693 2.81494 175.85 2.96533 175.996C3.12028 176.142 3.31169 176.276 3.53955 176.399C3.77197 176.522 4.04541 176.641 4.35986 176.755C4.84749 176.914 5.26449 177.092 5.61084 177.288C5.95719 177.484 6.23975 177.705 6.4585 177.951C6.67725 178.193 6.83675 178.468 6.93701 178.778C7.04183 179.083 7.09424 179.43 7.09424 179.817C7.09424 180.223 7.02588 180.59 6.88916 180.918C6.757 181.246 6.56331 181.526 6.30811 181.759C6.0529 181.991 5.74528 182.171 5.38525 182.299C5.02523 182.422 4.61963 182.483 4.16846 182.483C3.77653 182.483 3.39144 182.419 3.01318 182.292C2.63949 182.164 2.29997 181.973 1.99463 181.718C1.68929 181.462 1.44548 181.148 1.26318 180.774C1.08089 180.396 0.989746 179.958 0.989746 179.462H2.24756C2.24756 179.804 2.29769 180.097 2.39795 180.344C2.49821 180.585 2.63721 180.786 2.81494 180.945C2.99268 181.105 3.19548 181.223 3.42334 181.301C3.65576 181.374 3.90413 181.41 4.16846 181.41C4.53304 181.41 4.83838 181.346 5.08447 181.219C5.33512 181.091 5.52197 180.909 5.64502 180.672C5.77262 180.435 5.83643 180.154 5.83643 179.831ZM10.7135 181.581L12.3609 174.95H13.6461L11.2056 183.488C11.1464 183.67 11.0666 183.866 10.9664 184.076C10.8707 184.29 10.7476 184.493 10.5972 184.684C10.4469 184.876 10.2668 185.031 10.0572 185.149C9.84757 185.272 9.60148 185.334 9.31893 185.334C9.23234 185.334 9.12068 185.32 8.98396 185.293C8.8518 185.265 8.7561 185.243 8.69686 185.224V184.199C8.7242 184.204 8.76749 184.208 8.82674 184.213C8.88598 184.222 8.92928 184.226 8.95662 184.226C9.1936 184.226 9.39412 184.188 9.55818 184.11C9.7268 184.037 9.87036 183.912 9.98885 183.734C10.1073 183.561 10.2076 183.322 10.2896 183.016L10.7135 181.581ZM9.64705 174.95L11.1168 180.692L11.4312 182.025L10.5699 182.49L8.32771 174.95H9.64705ZM16.4655 176.42V182.346H15.2624V174.95H16.3971L16.4655 176.42ZM16.2194 178.368L15.6588 178.347C15.6543 177.842 15.7044 177.374 15.8092 176.946C15.9141 176.513 16.0713 176.137 16.2809 175.818C16.4951 175.499 16.7617 175.253 17.0807 175.08C17.4043 174.902 17.7803 174.813 18.2087 174.813C18.4912 174.813 18.7532 174.863 18.9948 174.964C19.2409 175.059 19.4551 175.212 19.6374 175.422C19.8197 175.631 19.9609 175.9 20.0612 176.228C20.166 176.556 20.2184 176.953 20.2184 177.418V182.346H19.0085V177.479C19.0085 177.092 18.956 176.782 18.8512 176.55C18.751 176.317 18.6074 176.149 18.4206 176.044C18.2337 175.934 18.0104 175.88 17.7506 175.88C17.4544 175.88 17.206 175.946 17.0055 176.078C16.8096 176.21 16.6523 176.392 16.5338 176.625C16.4199 176.857 16.3379 177.124 16.2878 177.425C16.2422 177.721 16.2194 178.035 16.2194 178.368ZM20.2047 177.671L19.3981 177.93C19.3935 177.525 19.4437 177.135 19.5485 176.762C19.6533 176.388 19.8083 176.055 20.0133 175.763C20.223 175.472 20.4827 175.242 20.7926 175.073C21.1025 174.9 21.4626 174.813 21.8727 174.813C22.21 174.813 22.5085 174.866 22.7682 174.971C23.028 175.075 23.2467 175.237 23.4245 175.456C23.6068 175.67 23.7435 175.946 23.8346 176.283C23.9258 176.62 23.9713 177.021 23.9713 177.486V182.346H22.7614V177.472C22.7614 177.058 22.709 176.736 22.6042 176.509C22.5039 176.276 22.3603 176.114 22.1735 176.023C21.9866 175.928 21.7633 175.88 21.5036 175.88C21.2939 175.88 21.1071 175.928 20.943 176.023C20.7835 176.119 20.6491 176.251 20.5397 176.42C20.4303 176.584 20.346 176.773 20.2868 176.987C20.2321 177.201 20.2047 177.429 20.2047 177.671ZM26.2165 171.846H27.4265V180.911L27.324 182.346H26.2165V171.846ZM31.5759 178.313V179.004C31.5759 179.587 31.5212 180.097 31.4119 180.535C31.307 180.968 31.1498 181.33 30.9402 181.622C30.7305 181.909 30.4753 182.125 30.1746 182.271C29.8738 182.413 29.5297 182.483 29.1423 182.483C28.7595 182.483 28.4291 182.406 28.1511 182.251C27.8731 182.096 27.6407 181.873 27.4538 181.581C27.267 181.289 27.1189 180.936 27.0095 180.521C26.9047 180.107 26.8318 179.639 26.7908 179.12V178.197C26.8318 177.673 26.9047 177.204 27.0095 176.789C27.1143 176.37 27.2602 176.014 27.447 175.722C27.6339 175.426 27.8663 175.201 28.1443 175.046C28.4223 174.891 28.7527 174.813 29.1355 174.813C29.5274 174.813 29.8738 174.882 30.1746 175.018C30.4799 175.155 30.7351 175.367 30.9402 175.654C31.1498 175.937 31.307 176.299 31.4119 176.741C31.5212 177.179 31.5759 177.703 31.5759 178.313ZM30.366 179.004V178.313C30.366 177.903 30.3386 177.545 30.2839 177.24C30.2338 176.935 30.1495 176.682 30.031 176.481C29.9125 176.281 29.753 176.13 29.5525 176.03C29.3565 175.93 29.1127 175.88 28.821 175.88C28.5749 175.88 28.3585 175.93 28.1716 176.03C27.9893 176.13 27.8321 176.267 27.6999 176.44C27.5678 176.609 27.4584 176.803 27.3718 177.021C27.2852 177.235 27.2214 177.459 27.1804 177.691V179.633C27.2397 179.929 27.3331 180.214 27.4607 180.487C27.5928 180.756 27.7706 180.977 27.9939 181.15C28.2172 181.323 28.4952 181.41 28.8279 181.41C29.1059 181.41 29.3406 181.362 29.532 181.266C29.7279 181.171 29.8874 181.025 30.0105 180.829C30.1335 180.628 30.2224 180.378 30.2771 180.077C30.3363 179.772 30.366 179.414 30.366 179.004ZM33.2879 179.004V178.3C33.2879 177.725 33.3608 177.222 33.5067 176.789C33.6525 176.351 33.8553 175.987 34.1151 175.695C34.3748 175.403 34.6779 175.185 35.0242 175.039C35.3706 174.888 35.742 174.813 36.1385 174.813C36.5441 174.813 36.9201 174.888 37.2664 175.039C37.6128 175.185 37.9158 175.403 38.1756 175.695C38.4399 175.987 38.645 176.351 38.7908 176.789C38.9367 177.222 39.0096 177.725 39.0096 178.3V179.004C39.0096 179.578 38.9367 180.084 38.7908 180.521C38.645 180.954 38.4422 181.317 38.1824 181.608C37.9227 181.9 37.6196 182.119 37.2733 182.264C36.9269 182.41 36.5532 182.483 36.1522 182.483C35.7511 182.483 35.3774 182.41 35.0311 182.264C34.6847 182.119 34.3794 181.9 34.1151 181.608C33.8553 181.317 33.6525 180.954 33.5067 180.521C33.3608 180.084 33.2879 179.578 33.2879 179.004ZM34.4979 178.3V179.004C34.4979 179.409 34.5389 179.765 34.6209 180.07C34.7029 180.375 34.8192 180.631 34.9696 180.836C35.1199 181.041 35.2954 181.196 35.4959 181.301C35.6964 181.401 35.9152 181.451 36.1522 181.451C36.4256 181.451 36.6649 181.401 36.8699 181.301C37.0796 181.196 37.2528 181.041 37.3895 180.836C37.5262 180.631 37.6287 180.375 37.6971 180.07C37.7654 179.765 37.7996 179.409 37.7996 179.004V178.3C37.7996 177.894 37.7586 177.541 37.6766 177.24C37.5946 176.935 37.4783 176.68 37.3279 176.474C37.1776 176.265 36.9998 176.11 36.7947 176.01C36.5942 175.905 36.3755 175.852 36.1385 175.852C35.9061 175.852 35.6896 175.905 35.4891 176.01C35.2886 176.11 35.1131 176.265 34.9627 176.474C34.8169 176.68 34.7029 176.935 34.6209 177.24C34.5389 177.541 34.4979 177.894 34.4979 178.3ZM42.287 171.846V182.346H41.0839V171.846H42.287Z" fill="black"/>
<path d="M43.8225 37.0555V38.1288H39.5022V37.0555H43.8225ZM39.7278 28.1757V38.1288H38.47V28.1757H39.7278ZM43.2415 32.455V33.5282H39.5022V32.455H43.2415ZM43.7542 28.1757V29.2557H39.5022V28.1757H43.7542ZM47.9271 33.3778V34.4169H45.1038V33.3778H47.9271ZM56.2494 28.1757V38.1288H54.9848L50.9994 30.452V38.1288H49.7416V28.1757H50.9994L55.0053 35.8729V28.1757H56.2494ZM62.4184 36.4198V30.7323H63.6284V38.1288H62.48L62.4184 36.4198ZM62.644 34.8612L63.1225 34.8475C63.1225 35.3397 63.0793 35.7955 62.9927 36.2147C62.9106 36.6294 62.7739 36.9895 62.5825 37.2948C62.3957 37.6001 62.1473 37.8394 61.8374 38.0126C61.5275 38.1812 61.147 38.2655 60.6958 38.2655C60.3905 38.2655 60.1125 38.2131 59.8618 38.1083C59.6157 38.0035 59.4015 37.8417 59.2192 37.6229C59.0415 37.4042 58.9025 37.1193 58.8022 36.7684C58.7065 36.4175 58.6587 35.996 58.6587 35.5038V30.7323H59.8618V35.5175C59.8618 35.8501 59.8914 36.1259 59.9507 36.3446C60.0099 36.5588 60.0897 36.7297 60.1899 36.8573C60.2902 36.9803 60.4018 37.0669 60.5249 37.1171C60.6479 37.1672 60.7733 37.1923 60.9009 37.1923C61.3293 37.1923 61.6711 37.0897 61.9263 36.8846C62.1815 36.675 62.3638 36.3947 62.4731 36.0438C62.5871 35.6884 62.644 35.2941 62.644 34.8612ZM67.0767 32.202V38.1288H65.8736V30.7323H67.0084L67.0767 32.202ZM66.8306 34.1503L66.2701 34.1298C66.2655 33.6239 66.3157 33.1568 66.4205 32.7284C66.5253 32.2955 66.6825 31.9195 66.8922 31.6005C67.1064 31.2815 67.373 31.0354 67.692 30.8622C68.0155 30.6844 68.3915 30.5956 68.8199 30.5956C69.1024 30.5956 69.3645 30.6457 69.606 30.746C69.8521 30.8417 70.0663 30.9943 70.2486 31.204C70.4309 31.4136 70.5722 31.6825 70.6724 32.0106C70.7772 32.3387 70.8297 32.7352 70.8297 33.2001V38.1288H69.6197V33.2616C69.6197 32.8742 69.5673 32.5643 69.4625 32.3319C69.3622 32.0995 69.2187 31.9309 69.0318 31.826C68.845 31.7167 68.6217 31.662 68.3619 31.662C68.0657 31.662 67.8173 31.7281 67.6168 31.8602C67.4208 31.9924 67.2636 32.1747 67.1451 32.4071C67.0312 32.6395 66.9491 32.9061 66.899 33.2069C66.8534 33.5031 66.8306 33.8176 66.8306 34.1503ZM70.816 33.453L70.0093 33.7128C70.0048 33.3072 70.0549 32.9175 70.1597 32.5438C70.2646 32.1701 70.4195 31.8374 70.6246 31.5458C70.8342 31.2541 71.094 31.024 71.4039 30.8553C71.7138 30.6822 72.0738 30.5956 72.484 30.5956C72.8212 30.5956 73.1197 30.648 73.3795 30.7528C73.6392 30.8576 73.858 31.0194 74.0357 31.2382C74.218 31.4524 74.3547 31.7281 74.4459 32.0653C74.537 32.4025 74.5826 32.8036 74.5826 33.2684V38.1288H73.3726V33.2548C73.3726 32.84 73.3202 32.5188 73.2154 32.2909C73.1151 32.0585 72.9716 31.8967 72.7847 31.8055C72.5979 31.7098 72.3746 31.662 72.1148 31.662C71.9052 31.662 71.7183 31.7098 71.5543 31.8055C71.3948 31.9012 71.2603 32.0334 71.1509 32.202C71.0416 32.3661 70.9573 32.5552 70.898 32.7694C70.8433 32.9836 70.816 33.2115 70.816 33.453ZM78.0377 32.202V38.1288H76.8346V30.7323H77.9694L78.0377 32.202ZM77.7916 34.1503L77.2311 34.1298C77.2265 33.6239 77.2767 33.1568 77.3815 32.7284C77.4863 32.2955 77.6435 31.9195 77.8532 31.6005C78.0674 31.2815 78.334 31.0354 78.653 30.8622C78.9765 30.6844 79.3525 30.5956 79.7809 30.5956C80.0635 30.5956 80.3255 30.6457 80.567 30.746C80.8131 30.8417 81.0273 30.9943 81.2096 31.204C81.3919 31.4136 81.5332 31.6825 81.6334 32.0106C81.7383 32.3387 81.7907 32.7352 81.7907 33.2001V38.1288H80.5807V33.2616C80.5807 32.8742 80.5283 32.5643 80.4235 32.3319C80.3232 32.0995 80.1797 31.9309 79.9928 31.826C79.806 31.7167 79.5827 31.662 79.3229 31.662C79.0267 31.662 78.7783 31.7281 78.5778 31.8602C78.3818 31.9924 78.2246 32.1747 78.1061 32.4071C77.9922 32.6395 77.9101 32.9061 77.86 33.2069C77.8144 33.5031 77.7916 33.8176 77.7916 34.1503ZM81.777 33.453L80.9704 33.7128C80.9658 33.3072 81.0159 32.9175 81.1208 32.5438C81.2256 32.1701 81.3805 31.8374 81.5856 31.5458C81.7952 31.2541 82.055 31.024 82.3649 30.8553C82.6748 30.6822 83.0348 30.5956 83.445 30.5956C83.7822 30.5956 84.0807 30.648 84.3405 30.7528C84.6002 30.8576 84.819 31.0194 84.9967 31.2382C85.179 31.4524 85.3157 31.7281 85.4069 32.0653C85.498 32.4025 85.5436 32.8036 85.5436 33.2684V38.1288H84.3336V33.2548C84.3336 32.84 84.2812 32.5188 84.1764 32.2909C84.0762 32.0585 83.9326 31.8967 83.7458 31.8055C83.5589 31.7098 83.3356 31.662 83.0758 31.662C82.8662 31.662 82.6793 31.7098 82.5153 31.8055C82.3558 31.9012 82.2213 32.0334 82.112 32.202C82.0026 32.3661 81.9183 32.5552 81.859 32.7694C81.8043 32.9836 81.777 33.2115 81.777 33.453ZM90.4343 38.2655C89.9922 38.2655 89.5935 38.1994 89.238 38.0673C88.8825 37.9351 88.5795 37.7346 88.3288 37.4657C88.0782 37.1923 87.8868 36.8482 87.7546 36.4335C87.6225 36.0188 87.5564 35.5288 87.5564 34.9637V34.1298C87.5564 33.4781 87.6316 32.9266 87.782 32.4755C87.9369 32.0243 88.1443 31.662 88.404 31.3885C88.6638 31.1106 88.9577 30.91 89.2859 30.787C89.614 30.6594 89.9512 30.5956 90.2976 30.5956C90.7624 30.5956 91.1589 30.6708 91.487 30.8212C91.8152 30.9716 92.0818 31.1949 92.2868 31.4911C92.4919 31.7873 92.6423 32.1519 92.738 32.5848C92.8383 33.0178 92.8884 33.5168 92.8884 34.0819V34.786H88.2673V33.7538H91.6784V33.5829C91.6602 33.2001 91.6078 32.8628 91.5212 32.5712C91.4392 32.2795 91.3025 32.0516 91.1111 31.8876C90.9197 31.719 90.6485 31.6346 90.2976 31.6346C90.0743 31.6346 89.8669 31.6734 89.6755 31.7509C89.4887 31.8238 89.3269 31.9537 89.1902 32.1405C89.058 32.3228 88.9532 32.5757 88.8757 32.8993C88.8028 33.2229 88.7663 33.633 88.7663 34.1298V34.9637C88.7663 35.3602 88.8028 35.702 88.8757 35.9891C88.9532 36.2717 89.0648 36.5064 89.2107 36.6932C89.3611 36.8755 89.5434 37.0122 89.7575 37.1034C89.9763 37.19 90.2247 37.2333 90.5027 37.2333C90.9083 37.2333 91.2432 37.1558 91.5075 37.0009C91.7719 36.8413 92.002 36.6385 92.198 36.3925L92.8337 37.1512C92.7016 37.3381 92.5284 37.5181 92.3142 37.6913C92.1046 37.8599 91.8448 37.9989 91.5349 38.1083C91.2296 38.2131 90.8627 38.2655 90.4343 38.2655ZM95.9813 31.8944V38.1288H94.7713V30.7323H95.9402L95.9813 31.8944ZM97.8201 30.6913L97.827 31.8671C97.7267 31.8443 97.6356 31.8306 97.5535 31.826C97.4761 31.8169 97.3849 31.8124 97.2801 31.8124C97.0522 31.8124 96.8517 31.858 96.6785 31.9491C96.5099 32.0402 96.3641 32.1678 96.241 32.3319C96.118 32.496 96.02 32.6919 95.9471 32.9198C95.8742 33.1431 95.824 33.3892 95.7967 33.6581L95.4822 33.8632C95.4822 33.4165 95.5164 32.9973 95.5848 32.6053C95.6577 32.2134 95.7693 31.8671 95.9197 31.5663C96.0701 31.2609 96.2615 31.024 96.494 30.8553C96.7309 30.6822 97.0135 30.5956 97.3416 30.5956C97.4145 30.5956 97.5034 30.607 97.6082 30.6298C97.7176 30.648 97.7882 30.6685 97.8201 30.6913ZM103.069 34.1503V34.0819C103.069 33.0884 103.167 32.1906 103.363 31.3885C103.564 30.5819 103.817 29.8755 104.122 29.2694C104.427 28.6633 104.744 28.162 105.072 27.7655C105.4 27.3645 105.697 27.0751 105.961 26.8973L106.207 27.7313C105.993 27.9364 105.772 28.219 105.544 28.579C105.321 28.939 105.113 29.3811 104.922 29.9052C104.73 30.4292 104.575 31.0376 104.457 31.7303C104.339 32.4231 104.279 33.2024 104.279 34.0682V34.1639C104.279 35.0298 104.339 35.8114 104.457 36.5087C104.575 37.2014 104.73 37.8121 104.922 38.3407C105.113 38.8693 105.321 39.3182 105.544 39.6874C105.772 40.0611 105.993 40.3573 106.207 40.576L105.961 41.3417C105.697 41.1639 105.4 40.8746 105.072 40.4735C104.744 40.077 104.427 39.5757 104.122 38.9696C103.817 38.368 103.564 37.6639 103.363 36.8573C103.167 36.0507 103.069 35.1483 103.069 34.1503ZM109.655 38.1288H108.445V29.953C108.445 29.4198 108.53 28.9709 108.698 28.6063C108.871 28.2372 109.115 27.9592 109.43 27.7723C109.749 27.5809 110.127 27.4852 110.564 27.4852C110.688 27.4852 110.811 27.4943 110.934 27.5126C111.061 27.5308 111.182 27.5581 111.296 27.5946L111.241 28.6268C111.168 28.604 111.079 28.5881 110.975 28.579C110.874 28.5699 110.779 28.5653 110.688 28.5653C110.469 28.5653 110.282 28.62 110.127 28.7294C109.972 28.8342 109.854 28.9891 109.772 29.1942C109.694 29.3993 109.655 29.6522 109.655 29.953V38.1288ZM110.913 30.7323V31.703H107.481V30.7323H110.913ZM116.385 36.8641V32.8514C116.385 32.5598 116.339 32.3251 116.248 32.1473C116.162 31.9696 116.029 31.8397 115.852 31.7577C115.679 31.6757 115.46 31.6346 115.195 31.6346C114.94 31.6346 114.719 31.6871 114.532 31.7919C114.35 31.8967 114.209 32.0357 114.109 32.2089C114.013 32.382 113.965 32.5734 113.965 32.7831H112.755C112.755 32.5188 112.812 32.2567 112.926 31.9969C113.044 31.7372 113.213 31.5025 113.432 31.2928C113.651 31.0787 113.913 30.91 114.218 30.787C114.528 30.6594 114.874 30.5956 115.257 30.5956C115.713 30.5956 116.116 30.6708 116.467 30.8212C116.818 30.967 117.094 31.2063 117.294 31.5389C117.495 31.8716 117.595 32.3137 117.595 32.8651V36.5155C117.595 36.7616 117.613 37.0236 117.65 37.3016C117.691 37.5796 117.748 37.8189 117.82 38.0194V38.1288H116.569C116.51 37.983 116.465 37.7893 116.433 37.5477C116.401 37.3016 116.385 37.0738 116.385 36.8641ZM116.576 33.6444L116.59 34.5331H115.749C115.462 34.5331 115.2 34.565 114.963 34.6288C114.731 34.6926 114.53 34.786 114.361 34.9091C114.193 35.0275 114.063 35.1757 113.972 35.3534C113.885 35.5311 113.842 35.7339 113.842 35.9618C113.842 36.258 113.883 36.495 113.965 36.6727C114.047 36.8459 114.17 36.9712 114.334 37.0487C114.498 37.1262 114.706 37.1649 114.956 37.1649C115.262 37.1649 115.53 37.0943 115.763 36.953C115.995 36.8117 116.175 36.6408 116.303 36.4403C116.435 36.2398 116.497 36.0529 116.487 35.8798L116.754 36.4471C116.736 36.6249 116.677 36.8186 116.576 37.0282C116.481 37.2333 116.346 37.4315 116.173 37.6229C116 37.8098 115.795 37.9647 115.558 38.0878C115.325 38.2063 115.063 38.2655 114.772 38.2655C114.343 38.2655 113.967 38.1835 113.644 38.0194C113.325 37.8553 113.076 37.6138 112.899 37.2948C112.721 36.9758 112.632 36.5816 112.632 36.1122C112.632 35.7567 112.693 35.4286 112.817 35.1278C112.94 34.827 113.122 34.5673 113.363 34.3485C113.605 34.1252 113.908 33.952 114.273 33.829C114.642 33.7059 115.068 33.6444 115.551 33.6444H116.576ZM121.194 27.6288V38.1288H119.99V27.6288H121.194ZM124.826 27.6288V38.1288H123.623V27.6288H124.826ZM130.749 36.2352C130.749 36.0484 130.704 35.8843 130.613 35.743C130.522 35.6018 130.371 35.465 130.161 35.3329C129.956 35.2007 129.678 35.0594 129.328 34.9091C128.986 34.7678 128.678 34.6288 128.405 34.4921C128.136 34.3508 127.908 34.1981 127.721 34.0341C127.534 33.87 127.391 33.6809 127.29 33.4667C127.195 33.2479 127.147 32.9904 127.147 32.6942C127.147 32.398 127.202 32.1246 127.311 31.8739C127.425 31.6187 127.584 31.3954 127.789 31.204C127.994 31.0126 128.241 30.8645 128.528 30.7596C128.815 30.6503 129.136 30.5956 129.492 30.5956C129.997 30.5956 130.428 30.6936 130.784 30.8895C131.139 31.0855 131.41 31.3544 131.597 31.6962C131.788 32.0334 131.884 32.4139 131.884 32.8378H130.681C130.681 32.6327 130.635 32.439 130.544 32.2567C130.453 32.0744 130.319 31.9263 130.141 31.8124C129.963 31.6939 129.747 31.6346 129.492 31.6346C129.223 31.6346 129.004 31.6825 128.835 31.7782C128.667 31.8739 128.544 31.9992 128.466 32.1542C128.393 32.3046 128.357 32.4709 128.357 32.6532C128.357 32.7899 128.375 32.9084 128.411 33.0087C128.453 33.1044 128.521 33.1955 128.617 33.2821C128.712 33.3641 128.842 33.4507 129.006 33.5419C129.175 33.6285 129.389 33.7287 129.649 33.8427C130.15 34.0386 130.572 34.2369 130.913 34.4374C131.255 34.6379 131.515 34.8726 131.693 35.1415C131.87 35.4104 131.959 35.743 131.959 36.1395C131.959 36.4631 131.9 36.757 131.782 37.0214C131.668 37.2811 131.504 37.5044 131.289 37.6913C131.075 37.8781 130.818 38.0217 130.517 38.1219C130.221 38.2177 129.888 38.2655 129.519 38.2655C128.963 38.2655 128.491 38.1561 128.104 37.9374C127.721 37.7141 127.429 37.4247 127.229 37.0692C127.033 36.7092 126.935 36.3241 126.935 35.9139H128.145C128.159 36.2603 128.236 36.5292 128.377 36.7206C128.523 36.912 128.699 37.0441 128.904 37.1171C129.109 37.19 129.314 37.2264 129.519 37.2264C129.788 37.2264 130.013 37.1877 130.196 37.1102C130.378 37.0282 130.515 36.912 130.606 36.7616C130.702 36.6112 130.749 36.4358 130.749 36.2352ZM139.512 36.9872L141.098 30.7323H142.329L140.134 38.1288H139.335L139.512 36.9872ZM138.234 30.7323L139.888 37.0214L140.018 38.1288H139.225L137.003 30.7323H138.234ZM143.644 34.786V34.0819C143.644 33.5077 143.717 33.0041 143.863 32.5712C144.009 32.1337 144.212 31.7691 144.471 31.4774C144.731 31.1858 145.034 30.967 145.38 30.8212C145.727 30.6708 146.098 30.5956 146.495 30.5956C146.9 30.5956 147.276 30.6708 147.623 30.8212C147.969 30.967 148.272 31.1858 148.532 31.4774C148.796 31.7691 149.001 32.1337 149.147 32.5712C149.293 33.0041 149.366 33.5077 149.366 34.0819V34.786C149.366 35.3602 149.293 35.8661 149.147 36.3036C149.001 36.7365 148.798 37.0988 148.539 37.3905C148.279 37.6822 147.976 37.9009 147.63 38.0468C147.283 38.1926 146.909 38.2655 146.508 38.2655C146.107 38.2655 145.734 38.1926 145.387 38.0468C145.041 37.9009 144.736 37.6822 144.471 37.3905C144.212 37.0988 144.009 36.7365 143.863 36.3036C143.717 35.8661 143.644 35.3602 143.644 34.786ZM144.854 34.0819V34.786C144.854 35.1916 144.895 35.5471 144.977 35.8524C145.059 36.1578 145.175 36.413 145.326 36.618C145.476 36.8231 145.652 36.9781 145.852 37.0829C146.053 37.1831 146.271 37.2333 146.508 37.2333C146.782 37.2333 147.021 37.1831 147.226 37.0829C147.436 36.9781 147.609 36.8231 147.746 36.618C147.882 36.413 147.985 36.1578 148.053 35.8524C148.122 35.5471 148.156 35.1916 148.156 34.786V34.0819C148.156 33.6763 148.115 33.3231 148.033 33.0223C147.951 32.717 147.835 32.4618 147.684 32.2567C147.534 32.0471 147.356 31.8921 147.151 31.7919C146.95 31.6871 146.732 31.6346 146.495 31.6346C146.262 31.6346 146.046 31.6871 145.845 31.7919C145.645 31.8921 145.469 32.0471 145.319 32.2567C145.173 32.4618 145.059 32.717 144.977 33.0223C144.895 33.3231 144.854 33.6763 144.854 34.0819ZM152.554 31.8944V38.1288H151.344V30.7323H152.513L152.554 31.8944ZM154.393 30.6913L154.4 31.8671C154.3 31.8443 154.209 31.8306 154.127 31.826C154.049 31.8169 153.958 31.8124 153.853 31.8124C153.625 31.8124 153.425 31.858 153.252 31.9491C153.083 32.0402 152.937 32.1678 152.814 32.3319C152.691 32.496 152.593 32.6919 152.52 32.9198C152.447 33.1431 152.397 33.3892 152.37 33.6581L152.055 33.8632C152.055 33.4165 152.09 32.9973 152.158 32.6053C152.231 32.2134 152.342 31.8671 152.493 31.5663C152.643 31.2609 152.835 31.024 153.067 30.8553C153.304 30.6822 153.587 30.5956 153.915 30.5956C153.988 30.5956 154.077 30.607 154.181 30.6298C154.291 30.648 154.361 30.6685 154.393 30.6913ZM157.24 27.6288V38.1288H156.03V27.6288H157.24ZM156.946 34.1503L156.454 34.1298C156.449 33.6239 156.506 33.1568 156.625 32.7284C156.748 32.2955 156.921 31.9195 157.144 31.6005C157.372 31.2815 157.643 31.0354 157.958 30.8622C158.272 30.6844 158.621 30.5956 159.004 30.5956C159.304 30.5956 159.578 30.6457 159.824 30.746C160.07 30.8417 160.28 30.9966 160.453 31.2108C160.626 31.425 160.758 31.703 160.849 32.0448C160.945 32.382 160.993 32.7945 160.993 33.2821V38.1288H159.783V33.2684C159.783 32.8811 159.74 32.5712 159.653 32.3387C159.571 32.1018 159.443 31.9309 159.27 31.826C159.102 31.7167 158.887 31.662 158.628 31.662C158.391 31.662 158.17 31.7281 157.965 31.8602C157.76 31.9924 157.58 32.1747 157.425 32.4071C157.274 32.6395 157.156 32.9061 157.069 33.2069C156.987 33.5031 156.946 33.8176 156.946 34.1503ZM166.841 36.8641V32.8514C166.841 32.5598 166.795 32.3251 166.704 32.1473C166.617 31.9696 166.485 31.8397 166.307 31.7577C166.134 31.6757 165.916 31.6346 165.651 31.6346C165.396 31.6346 165.175 31.6871 164.988 31.7919C164.806 31.8967 164.665 32.0357 164.564 32.2089C164.469 32.382 164.421 32.5734 164.421 32.7831H163.211C163.211 32.5188 163.268 32.2567 163.382 31.9969C163.5 31.7372 163.669 31.5025 163.888 31.2928C164.106 31.0787 164.368 30.91 164.674 30.787C164.984 30.6594 165.33 30.5956 165.713 30.5956C166.168 30.5956 166.572 30.6708 166.923 30.8212C167.274 30.967 167.549 31.2063 167.75 31.5389C167.95 31.8716 168.051 32.3137 168.051 32.8651V36.5155C168.051 36.7616 168.069 37.0236 168.105 37.3016C168.146 37.5796 168.203 37.8189 168.276 38.0194V38.1288H167.025C166.966 37.983 166.92 37.7893 166.889 37.5477C166.857 37.3016 166.841 37.0738 166.841 36.8641ZM167.032 33.6444L167.046 34.5331H166.205C165.918 34.5331 165.656 34.565 165.419 34.6288C165.186 34.6926 164.986 34.786 164.817 34.9091C164.649 35.0275 164.519 35.1757 164.428 35.3534C164.341 35.5311 164.298 35.7339 164.298 35.9618C164.298 36.258 164.339 36.495 164.421 36.6727C164.503 36.8459 164.626 36.9712 164.79 37.0487C164.954 37.1262 165.161 37.1649 165.412 37.1649C165.717 37.1649 165.986 37.0943 166.219 36.953C166.451 36.8117 166.631 36.6408 166.759 36.4403C166.891 36.2398 166.952 36.0529 166.943 35.8798L167.21 36.4471C167.192 36.6249 167.132 36.8186 167.032 37.0282C166.936 37.2333 166.802 37.4315 166.629 37.6229C166.456 37.8098 166.251 37.9647 166.014 38.0878C165.781 38.2063 165.519 38.2655 165.227 38.2655C164.799 38.2655 164.423 38.1835 164.099 38.0194C163.78 37.8553 163.532 37.6138 163.354 37.2948C163.177 36.9758 163.088 36.5816 163.088 36.1122C163.088 35.7567 163.149 35.4286 163.272 35.1278C163.395 34.827 163.578 34.5673 163.819 34.3485C164.061 34.1252 164.364 33.952 164.728 33.829C165.098 33.7059 165.524 33.6444 166.007 33.6444H167.032ZM171.56 32.3114V38.1288H170.351V30.7323H171.492L171.56 32.3114ZM171.267 34.1503L170.774 34.1298C170.77 33.6239 170.827 33.1568 170.945 32.7284C171.068 32.2955 171.241 31.9195 171.465 31.6005C171.693 31.2815 171.964 31.0354 172.278 30.8622C172.593 30.6844 172.941 30.5956 173.324 30.5956C173.625 30.5956 173.898 30.6457 174.144 30.746C174.391 30.8417 174.6 30.9966 174.773 31.2108C174.947 31.425 175.079 31.703 175.17 32.0448C175.266 32.382 175.313 32.7945 175.313 33.2821V38.1288H174.103V33.2684C174.103 32.8811 174.06 32.5712 173.974 32.3387C173.892 32.1018 173.764 31.9309 173.591 31.826C173.422 31.7167 173.208 31.662 172.948 31.662C172.711 31.662 172.49 31.7281 172.285 31.8602C172.08 31.9924 171.9 32.1747 171.745 32.4071C171.595 32.6395 171.476 32.9061 171.39 33.2069C171.308 33.5031 171.267 33.8176 171.267 34.1503ZM181.428 36.6932V27.6288H182.631V38.1288H181.53L181.428 36.6932ZM177.292 34.786V34.0956C177.292 33.4849 177.351 32.9608 177.47 32.5233C177.588 32.0813 177.757 31.719 177.976 31.4364C178.194 31.1493 178.456 30.9374 178.762 30.8007C179.067 30.6639 179.404 30.5956 179.773 30.5956C180.156 30.5956 180.484 30.6731 180.758 30.828C181.036 30.983 181.268 31.2085 181.455 31.5048C181.642 31.7964 181.788 32.1519 181.893 32.5712C182.002 32.9859 182.075 33.4553 182.111 33.9794V34.9022C182.07 35.4218 181.995 35.8889 181.886 36.3036C181.781 36.7183 181.635 37.0715 181.448 37.3632C181.261 37.6548 181.029 37.8781 180.751 38.0331C180.473 38.188 180.143 38.2655 179.76 38.2655C179.395 38.2655 179.063 38.1949 178.762 38.0536C178.461 37.9078 178.199 37.6913 177.976 37.4042C177.757 37.1125 177.588 36.7502 177.47 36.3173C177.351 35.8798 177.292 35.3693 177.292 34.786ZM178.502 34.0956V34.786C178.502 35.1962 178.532 35.5539 178.591 35.8593C178.65 36.16 178.744 36.4107 178.871 36.6112C178.999 36.8072 179.16 36.953 179.356 37.0487C179.557 37.1444 179.796 37.1923 180.074 37.1923C180.411 37.1923 180.687 37.1102 180.901 36.9462C181.116 36.7821 181.286 36.5656 181.414 36.2968C181.546 36.0233 181.651 35.7294 181.729 35.4149V33.4735C181.683 33.2411 181.617 33.0178 181.53 32.8036C181.444 32.5848 181.334 32.3912 181.202 32.2225C181.075 32.0494 180.917 31.9126 180.73 31.8124C180.548 31.7121 180.334 31.662 180.088 31.662C179.81 31.662 179.568 31.7121 179.363 31.8124C179.163 31.9126 178.999 32.063 178.871 32.2635C178.748 32.4641 178.655 32.717 178.591 33.0223C178.532 33.3277 178.502 33.6854 178.502 34.0956ZM187.563 38.2655C187.121 38.2655 186.722 38.1994 186.366 38.0673C186.011 37.9351 185.708 37.7346 185.457 37.4657C185.206 37.1923 185.015 36.8482 184.883 36.4335C184.751 36.0188 184.685 35.5288 184.685 34.9637V34.1298C184.685 33.4781 184.76 32.9266 184.91 32.4755C185.065 32.0243 185.273 31.662 185.532 31.3885C185.792 31.1106 186.086 30.91 186.414 30.787C186.742 30.6594 187.08 30.5956 187.426 30.5956C187.891 30.5956 188.287 30.6708 188.615 30.8212C188.943 30.9716 189.21 31.1949 189.415 31.4911C189.62 31.7873 189.771 32.1519 189.866 32.5848C189.967 33.0178 190.017 33.5168 190.017 34.0819V34.786H185.396V33.7538H188.807V33.5829C188.789 33.2001 188.736 32.8628 188.65 32.5712C188.567 32.2795 188.431 32.0516 188.239 31.8876C188.048 31.719 187.777 31.6346 187.426 31.6346C187.203 31.6346 186.995 31.6734 186.804 31.7509C186.617 31.8238 186.455 31.9537 186.318 32.1405C186.186 32.3228 186.081 32.5757 186.004 32.8993C185.931 33.2229 185.895 33.633 185.895 34.1298V34.9637C185.895 35.3602 185.931 35.702 186.004 35.9891C186.081 36.2717 186.193 36.5064 186.339 36.6932C186.489 36.8755 186.672 37.0122 186.886 37.1034C187.105 37.19 187.353 37.2333 187.631 37.2333C188.037 37.2333 188.372 37.1558 188.636 37.0009C188.9 36.8413 189.13 36.6385 189.326 36.3925L189.962 37.1512C189.83 37.3381 189.657 37.5181 189.442 37.6913C189.233 37.8599 188.973 37.9989 188.663 38.1083C188.358 38.2131 187.991 38.2655 187.563 38.2655ZM193.11 32.3114V38.1288H191.9V30.7323H193.041L193.11 32.3114ZM192.816 34.1503L192.323 34.1298C192.319 33.6239 192.376 33.1568 192.494 32.7284C192.617 32.2955 192.791 31.9195 193.014 31.6005C193.242 31.2815 193.513 31.0354 193.827 30.8622C194.142 30.6844 194.49 30.5956 194.873 30.5956C195.174 30.5956 195.447 30.6457 195.694 30.746C195.94 30.8417 196.149 30.9966 196.322 31.2108C196.496 31.425 196.628 31.703 196.719 32.0448C196.815 32.382 196.862 32.7945 196.862 33.2821V38.1288H195.653V33.2684C195.653 32.8811 195.609 32.5712 195.523 32.3387C195.441 32.1018 195.313 31.9309 195.14 31.826C194.971 31.7167 194.757 31.662 194.497 31.662C194.26 31.662 194.039 31.7281 193.834 31.8602C193.629 31.9924 193.449 32.1747 193.294 32.4071C193.144 32.6395 193.025 32.9061 192.939 33.2069C192.857 33.5031 192.816 33.8176 192.816 34.1503ZM201.698 34.0819V34.1503C201.698 35.1483 201.598 36.0507 201.398 36.8573C201.202 37.6639 200.951 38.368 200.646 38.9696C200.34 39.5757 200.024 40.077 199.696 40.4735C199.367 40.8746 199.071 41.1639 198.807 41.3417L198.561 40.576C198.775 40.371 198.994 40.0839 199.217 39.7147C199.445 39.3501 199.655 38.899 199.846 38.3612C200.042 37.828 200.199 37.2128 200.318 36.5155C200.436 35.8137 200.495 35.0298 200.495 34.1639V34.0682C200.495 33.2024 200.432 32.4208 200.304 31.7235C200.176 31.0217 200.012 30.4042 199.812 29.871C199.611 29.3378 199.399 28.8889 199.176 28.5243C198.957 28.1552 198.752 27.8703 198.561 27.6698L198.807 26.8973C199.071 27.0751 199.367 27.3645 199.696 27.7655C200.024 28.162 200.34 28.6633 200.646 29.2694C200.951 29.8755 201.202 30.5819 201.398 31.3885C201.598 32.1906 201.698 33.0884 201.698 34.0819Z" fill="black"/>
<path d="M171.22 172.393V182.346H169.955L165.97 174.67V182.346H164.712V172.393H165.97L169.976 180.091V172.393H171.22ZM177.273 181.082V177.069C177.273 176.777 177.227 176.543 177.136 176.365C177.049 176.187 176.917 176.057 176.739 175.975C176.566 175.893 176.347 175.852 176.083 175.852C175.828 175.852 175.607 175.905 175.42 176.01C175.238 176.114 175.096 176.253 174.996 176.427C174.9 176.6 174.853 176.791 174.853 177.001H173.643C173.643 176.736 173.7 176.474 173.814 176.215C173.932 175.955 174.101 175.72 174.319 175.511C174.538 175.296 174.8 175.128 175.106 175.005C175.415 174.877 175.762 174.813 176.145 174.813C176.6 174.813 177.004 174.888 177.355 175.039C177.705 175.185 177.981 175.424 178.182 175.757C178.382 176.089 178.483 176.531 178.483 177.083V180.733C178.483 180.979 178.501 181.241 178.537 181.519C178.578 181.797 178.635 182.037 178.708 182.237V182.346H177.457C177.398 182.201 177.352 182.007 177.32 181.765C177.289 181.519 177.273 181.291 177.273 181.082ZM177.464 177.862L177.478 178.751H176.637C176.35 178.751 176.088 178.783 175.851 178.846C175.618 178.91 175.418 179.004 175.249 179.127C175.08 179.245 174.951 179.393 174.859 179.571C174.773 179.749 174.73 179.952 174.73 180.18C174.73 180.476 174.771 180.713 174.853 180.89C174.935 181.064 175.058 181.189 175.222 181.266C175.386 181.344 175.593 181.383 175.844 181.383C176.149 181.383 176.418 181.312 176.65 181.171C176.883 181.029 177.063 180.859 177.191 180.658C177.323 180.457 177.384 180.271 177.375 180.097L177.642 180.665C177.623 180.843 177.564 181.036 177.464 181.246C177.368 181.451 177.234 181.649 177.061 181.841C176.887 182.027 176.682 182.182 176.445 182.305C176.213 182.424 175.951 182.483 175.659 182.483C175.231 182.483 174.855 182.401 174.531 182.237C174.212 182.073 173.964 181.832 173.786 181.513C173.608 181.194 173.52 180.799 173.52 180.33C173.52 179.974 173.581 179.646 173.704 179.346C173.827 179.045 174.01 178.785 174.251 178.566C174.493 178.343 174.796 178.17 175.16 178.047C175.529 177.924 175.955 177.862 176.439 177.862H177.464ZM181.992 176.42V182.346H180.789V174.95H181.924L181.992 176.42ZM181.746 178.368L181.186 178.347C181.181 177.842 181.231 177.374 181.336 176.946C181.441 176.513 181.598 176.137 181.808 175.818C182.022 175.499 182.289 175.253 182.608 175.08C182.931 174.902 183.307 174.813 183.736 174.813C184.018 174.813 184.28 174.863 184.522 174.964C184.768 175.059 184.982 175.212 185.164 175.422C185.347 175.631 185.488 175.9 185.588 176.228C185.693 176.556 185.745 176.953 185.745 177.418V182.346H184.535V177.479C184.535 177.092 184.483 176.782 184.378 176.55C184.278 176.317 184.134 176.149 183.947 176.044C183.761 175.934 183.537 175.88 183.278 175.88C182.981 175.88 182.733 175.946 182.532 176.078C182.336 176.21 182.179 176.392 182.061 176.625C181.947 176.857 181.865 177.124 181.815 177.425C181.769 177.721 181.746 178.035 181.746 178.368ZM185.732 177.671L184.925 177.93C184.92 177.525 184.971 177.135 185.075 176.762C185.18 176.388 185.335 176.055 185.54 175.763C185.75 175.472 186.01 175.242 186.32 175.073C186.629 174.9 186.989 174.813 187.4 174.813C187.737 174.813 188.035 174.866 188.295 174.971C188.555 175.075 188.774 175.237 188.951 175.456C189.134 175.67 189.27 175.946 189.361 176.283C189.453 176.62 189.498 177.021 189.498 177.486V182.346H188.288V177.472C188.288 177.058 188.236 176.736 188.131 176.509C188.031 176.276 187.887 176.114 187.7 176.023C187.514 175.928 187.29 175.88 187.03 175.88C186.821 175.88 186.634 175.928 186.47 176.023C186.31 176.119 186.176 176.251 186.067 176.42C185.957 176.584 185.873 176.773 185.814 176.987C185.759 177.201 185.732 177.429 185.732 177.671ZM194.389 182.483C193.947 182.483 193.548 182.417 193.193 182.285C192.837 182.153 192.534 181.952 192.283 181.683C192.033 181.41 191.841 181.066 191.709 180.651C191.577 180.236 191.511 179.747 191.511 179.181V178.347C191.511 177.696 191.586 177.144 191.737 176.693C191.892 176.242 192.099 175.88 192.359 175.606C192.618 175.328 192.912 175.128 193.24 175.005C193.569 174.877 193.906 174.813 194.252 174.813C194.717 174.813 195.114 174.888 195.442 175.039C195.77 175.189 196.036 175.413 196.241 175.709C196.447 176.005 196.597 176.37 196.693 176.803C196.793 177.235 196.843 177.735 196.843 178.3V179.004H192.222V177.971H195.633V177.801C195.615 177.418 195.562 177.081 195.476 176.789C195.394 176.497 195.257 176.269 195.066 176.105C194.874 175.937 194.603 175.852 194.252 175.852C194.029 175.852 193.822 175.891 193.63 175.969C193.443 176.041 193.281 176.171 193.145 176.358C193.013 176.541 192.908 176.793 192.83 177.117C192.757 177.441 192.721 177.851 192.721 178.347V179.181C192.721 179.578 192.757 179.92 192.83 180.207C192.908 180.489 193.019 180.724 193.165 180.911C193.316 181.093 193.498 181.23 193.712 181.321C193.931 181.408 194.179 181.451 194.457 181.451C194.863 181.451 195.198 181.374 195.462 181.219C195.726 181.059 195.957 180.856 196.153 180.61L196.788 181.369C196.656 181.556 196.483 181.736 196.269 181.909C196.059 182.078 195.799 182.217 195.49 182.326C195.184 182.431 194.817 182.483 194.389 182.483Z" fill="black"/>
<path d="M11.6172 19.5894V75.4045H42.426" stroke="black" stroke-dasharray="1 1"/>
<path d="M11.6172 169.346V112.937H72.6089" stroke="black" stroke-dasharray="1 1"/>
<path d="M183.882 169.346L183.882 147.801L136.373 147.801" stroke="black" stroke-dasharray="1 1"/>
<path d="M183.882 45.9969V75.4045H153.073" stroke="black" stroke-dasharray="1 1"/>
</svg>
