<svg width="263" height="47" viewBox="0 0 263 47" fill="none" xmlns="http://www.w3.org/2000/svg">
<path d="M15.07 13.9044V10.6407C15.07 10.3907 15.0192 10.1739 14.9176 9.99033C14.82 9.80283 14.6715 9.65829 14.4723 9.55673C14.2731 9.45517 14.027 9.40439 13.734 9.40439C13.4606 9.40439 13.2204 9.45126 13.0133 9.54501C12.8102 9.63876 12.65 9.76181 12.5329 9.91415C12.4196 10.0665 12.3629 10.2306 12.3629 10.4063H11.2789C11.2789 10.1798 11.3375 9.95517 11.4547 9.73251C11.5719 9.50986 11.7399 9.30869 11.9586 9.129C12.1813 8.9454 12.4469 8.80087 12.7555 8.6954C13.068 8.58603 13.4157 8.53134 13.7985 8.53134C14.2594 8.53134 14.6657 8.60947 15.0172 8.76572C15.3727 8.92197 15.65 9.15829 15.8493 9.4747C16.0524 9.7872 16.1539 10.1798 16.1539 10.6524V13.6056C16.1539 13.8165 16.1715 14.0411 16.2067 14.2794C16.2457 14.5177 16.3024 14.7227 16.3766 14.8946V14.9884H15.2457C15.1911 14.8634 15.1481 14.6974 15.1168 14.4903C15.0856 14.2794 15.07 14.0841 15.07 13.9044ZM15.2575 11.1446L15.2692 11.9063H14.1735C13.8649 11.9063 13.5895 11.9317 13.3473 11.9825C13.1051 12.0294 12.902 12.1017 12.7379 12.1993C12.5739 12.297 12.4489 12.42 12.3629 12.5685C12.277 12.713 12.234 12.8829 12.234 13.0782C12.234 13.2774 12.2789 13.4591 12.3688 13.6231C12.4586 13.7872 12.5934 13.9181 12.7731 14.0157C12.9567 14.1095 13.1813 14.1563 13.4469 14.1563C13.7789 14.1563 14.0719 14.086 14.3258 13.9454C14.5797 13.8048 14.7809 13.6329 14.9293 13.4298C15.0817 13.2267 15.1637 13.0294 15.1754 12.838L15.6383 13.3595C15.611 13.5235 15.5368 13.7052 15.4157 13.9044C15.2946 14.1036 15.1325 14.295 14.9293 14.4786C14.7301 14.6583 14.4918 14.8087 14.2145 14.9298C13.9411 15.047 13.6325 15.1056 13.2887 15.1056C12.859 15.1056 12.4821 15.0216 12.1579 14.8536C11.8375 14.6856 11.5875 14.461 11.4079 14.1798C11.2321 13.8946 11.1442 13.5763 11.1442 13.2247C11.1442 12.8849 11.2106 12.586 11.3434 12.3282C11.4762 12.0665 11.6676 11.8497 11.9176 11.6778C12.1676 11.502 12.4684 11.3692 12.82 11.2794C13.1715 11.1895 13.5641 11.1446 13.9977 11.1446H15.2575ZM21.9779 13.5235V8.64853H23.0678V14.9884H22.0307L21.9779 13.5235ZM22.183 12.1876L22.6342 12.1759C22.6342 12.5977 22.5893 12.9884 22.4994 13.3477C22.4135 13.7032 22.2729 14.0118 22.0775 14.2735C21.8822 14.5352 21.6264 14.7403 21.31 14.8888C20.9936 15.0333 20.6088 15.1056 20.1557 15.1056C19.8471 15.1056 19.5639 15.0606 19.3061 14.9708C19.0521 14.881 18.8334 14.7423 18.6498 14.5548C18.4662 14.3673 18.3236 14.1231 18.2221 13.8224C18.1244 13.5216 18.0756 13.1602 18.0756 12.7384V8.64853H19.1596V12.7501C19.1596 13.0352 19.1908 13.2716 19.2533 13.4591C19.3197 13.6427 19.4076 13.7892 19.517 13.8985C19.6303 14.004 19.7553 14.0782 19.892 14.1212C20.0326 14.1642 20.1771 14.1856 20.3256 14.1856C20.7865 14.1856 21.1518 14.0977 21.4213 13.922C21.6908 13.7423 21.8842 13.502 22.0014 13.2013C22.1225 12.8966 22.183 12.5587 22.183 12.1876ZM28.6515 13.3067C28.6515 13.1505 28.6164 13.006 28.5461 12.8731C28.4796 12.7364 28.341 12.6134 28.13 12.504C27.923 12.3907 27.6105 12.2931 27.1925 12.211C26.841 12.1368 26.5226 12.0489 26.2375 11.9474C25.9562 11.8458 25.716 11.7227 25.5168 11.5782C25.3214 11.4337 25.1711 11.2638 25.0656 11.0685C24.9601 10.8731 24.9074 10.6446 24.9074 10.3829C24.9074 10.1329 24.9621 9.89658 25.0714 9.67392C25.1847 9.45126 25.3429 9.254 25.5461 9.08212C25.7531 8.91025 26.0011 8.77548 26.2902 8.67783C26.5793 8.58017 26.9015 8.53134 27.257 8.53134C27.7648 8.53134 28.1984 8.62119 28.5578 8.80087C28.9171 8.98056 29.1925 9.22079 29.3839 9.52158C29.5754 9.81845 29.6711 10.1485 29.6711 10.5118H28.5871C28.5871 10.336 28.5343 10.1661 28.4289 10.002C28.3273 9.83408 28.1769 9.6954 27.9777 9.58603C27.7824 9.47665 27.5421 9.42197 27.257 9.42197C26.9562 9.42197 26.7121 9.46884 26.5246 9.56259C26.341 9.65244 26.2062 9.76767 26.1203 9.90829C26.0382 10.0489 25.9972 10.1974 25.9972 10.3536C25.9972 10.4708 26.0168 10.5763 26.0558 10.67C26.0988 10.7599 26.173 10.8438 26.2785 10.922C26.3839 10.9962 26.5324 11.0665 26.7238 11.1329C26.9152 11.1993 27.1593 11.2657 27.4562 11.3321C27.9757 11.4493 28.4035 11.5899 28.7394 11.754C29.0754 11.9181 29.3254 12.1192 29.4894 12.3575C29.6535 12.5958 29.7355 12.8849 29.7355 13.2247C29.7355 13.502 29.6769 13.756 29.5597 13.9864C29.4464 14.2169 29.2804 14.4161 29.0617 14.5841C28.8468 14.7481 28.589 14.877 28.2882 14.9708C27.9914 15.0606 27.6574 15.1056 27.2863 15.1056C26.7277 15.1056 26.255 15.006 25.8683 14.8067C25.4816 14.6075 25.1886 14.3497 24.9894 14.0333C24.7902 13.7169 24.6906 13.3829 24.6906 13.0313H25.7804C25.7961 13.3282 25.882 13.5645 26.0382 13.7403C26.1945 13.9122 26.3859 14.0352 26.6125 14.1095C26.839 14.1798 27.0636 14.2149 27.2863 14.2149C27.5832 14.2149 27.8312 14.1759 28.0304 14.0977C28.2336 14.0196 28.3879 13.9122 28.4933 13.7755C28.5988 13.6388 28.6515 13.4825 28.6515 13.3067ZM35.5068 8.64853H36.4911V14.8536C36.4911 15.4122 36.3779 15.8888 36.1513 16.2833C35.9247 16.6778 35.6083 16.9767 35.2021 17.1798C34.7997 17.3868 34.3349 17.4903 33.8075 17.4903C33.5888 17.4903 33.331 17.4552 33.0341 17.3849C32.7411 17.3185 32.4521 17.2032 32.1669 17.0392C31.8857 16.879 31.6493 16.6622 31.4579 16.3888L32.0263 15.7442C32.2919 16.0645 32.5693 16.2872 32.8583 16.4122C33.1513 16.5372 33.4404 16.5997 33.7255 16.5997C34.0693 16.5997 34.3661 16.5352 34.6161 16.4063C34.8661 16.2774 35.0595 16.086 35.1962 15.8321C35.3368 15.5821 35.4071 15.2735 35.4071 14.9063V10.0431L35.5068 8.64853ZM31.1415 11.8888V11.7657C31.1415 11.2813 31.1982 10.8419 31.3114 10.4474C31.4286 10.0489 31.5946 9.70712 31.8095 9.42197C32.0282 9.13681 32.2919 8.91806 32.6005 8.76572C32.9091 8.60947 33.2568 8.53134 33.6435 8.53134C34.0419 8.53134 34.3896 8.60165 34.6864 8.74228C34.9872 8.879 35.2411 9.08017 35.4482 9.34579C35.6591 9.60751 35.8251 9.92392 35.9462 10.295C36.0673 10.6661 36.1513 11.086 36.1982 11.5548V12.0938C36.1552 12.5587 36.0712 12.9767 35.9462 13.3477C35.8251 13.7188 35.6591 14.0352 35.4482 14.297C35.2411 14.5587 34.9872 14.7599 34.6864 14.9005C34.3857 15.0372 34.0341 15.1056 33.6318 15.1056C33.2529 15.1056 32.9091 15.0255 32.6005 14.8653C32.2958 14.7052 32.0341 14.4806 31.8154 14.1915C31.5966 13.9024 31.4286 13.5626 31.3114 13.172C31.1982 12.7774 31.1415 12.3497 31.1415 11.8888ZM32.2255 11.7657V11.8888C32.2255 12.2052 32.2568 12.502 32.3193 12.7794C32.3857 13.0567 32.4853 13.3009 32.6181 13.5118C32.7548 13.7227 32.9286 13.8888 33.1396 14.0099C33.3505 14.127 33.6025 14.1856 33.8954 14.1856C34.2548 14.1856 34.5517 14.1095 34.7861 13.9571C35.0204 13.8048 35.206 13.6036 35.3427 13.3536C35.4833 13.1036 35.5927 12.8321 35.6708 12.5392V11.127C35.6279 10.9122 35.5614 10.7052 35.4716 10.506C35.3857 10.3028 35.2724 10.1231 35.1318 9.96689C34.995 9.80673 34.8251 9.67978 34.622 9.58603C34.4189 9.49228 34.1806 9.4454 33.9071 9.4454C33.6103 9.4454 33.3544 9.5079 33.1396 9.6329C32.9286 9.754 32.7548 9.92197 32.6181 10.1368C32.4853 10.3477 32.3857 10.5938 32.3193 10.8751C32.2568 11.1524 32.2255 11.4493 32.2255 11.7657ZM41.0085 15.1056C40.5671 15.1056 40.1667 15.0313 39.8073 14.8829C39.4518 14.7306 39.1452 14.5177 38.8874 14.2442C38.6335 13.9708 38.4382 13.6466 38.3014 13.2716C38.1647 12.8966 38.0964 12.4864 38.0964 12.0411V11.795C38.0964 11.2794 38.1725 10.8204 38.3249 10.4181C38.4772 10.0118 38.6843 9.66806 38.946 9.38681C39.2077 9.10556 39.5046 8.89267 39.8366 8.74814C40.1686 8.60361 40.5124 8.53134 40.8679 8.53134C41.321 8.53134 41.7116 8.60947 42.0397 8.76572C42.3718 8.92197 42.6432 9.14072 42.8542 9.42197C43.0651 9.69931 43.2214 10.0274 43.3229 10.4063C43.4245 10.7813 43.4753 11.1915 43.4753 11.6368V12.1231H38.7409V11.2384H42.3913V11.1563C42.3757 10.8751 42.3171 10.6017 42.2155 10.336C42.1179 10.0704 41.9616 9.85165 41.7468 9.67978C41.5319 9.5079 41.2389 9.42197 40.8679 9.42197C40.6218 9.42197 40.3952 9.4747 40.1882 9.58017C39.9811 9.68173 39.8034 9.83408 39.655 10.0372C39.5065 10.2403 39.3913 10.4884 39.3093 10.7813C39.2272 11.0743 39.1862 11.4122 39.1862 11.795V12.0411C39.1862 12.3419 39.2272 12.6251 39.3093 12.8907C39.3952 13.1524 39.5182 13.3829 39.6784 13.5821C39.8425 13.7813 40.0397 13.9376 40.2702 14.0509C40.5046 14.1642 40.7702 14.2208 41.0671 14.2208C41.4499 14.2208 41.7741 14.1427 42.0397 13.9864C42.3054 13.8302 42.5378 13.6212 42.737 13.3595L43.3932 13.881C43.2565 14.088 43.0827 14.2852 42.8718 14.4727C42.6608 14.6602 42.4011 14.8126 42.0925 14.9298C41.7878 15.047 41.4264 15.1056 41.0085 15.1056ZM46.5864 13.8634L48.2153 8.64853H48.9301L48.7895 9.68564L47.1313 14.9884H46.434L46.5864 13.8634ZM45.4907 8.64853L46.8793 13.922L46.9789 14.9884H46.2465L44.4067 8.64853H45.4907ZM50.4887 13.881L51.8129 8.64853H52.8911L51.0512 14.9884H50.3246L50.4887 13.881ZM49.0883 8.64853L50.6821 13.7755L50.8637 14.9884H50.1723L48.4672 9.67392L48.3266 8.64853H49.0883ZM57.9826 13.9044V10.6407C57.9826 10.3907 57.9318 10.1739 57.8303 9.99033C57.7326 9.80283 57.5842 9.65829 57.385 9.55673C57.1857 9.45517 56.9396 9.40439 56.6467 9.40439C56.3732 9.40439 56.133 9.45126 55.926 9.54501C55.7229 9.63876 55.5627 9.76181 55.4455 9.91415C55.3322 10.0665 55.2756 10.2306 55.2756 10.4063H54.1916C54.1916 10.1798 54.2502 9.95517 54.3674 9.73251C54.4846 9.50986 54.6525 9.30869 54.8713 9.129C55.0939 8.9454 55.3596 8.80087 55.6682 8.6954C55.9807 8.58603 56.3283 8.53134 56.7111 8.53134C57.1721 8.53134 57.5783 8.60947 57.9299 8.76572C58.2854 8.92197 58.5627 9.15829 58.7619 9.4747C58.965 9.7872 59.0666 10.1798 59.0666 10.6524V13.6056C59.0666 13.8165 59.0842 14.0411 59.1193 14.2794C59.1584 14.5177 59.215 14.7227 59.2893 14.8946V14.9884H58.1584C58.1037 14.8634 58.0607 14.6974 58.0295 14.4903C57.9982 14.2794 57.9826 14.0841 57.9826 13.9044ZM58.1701 11.1446L58.1818 11.9063H57.0861C56.7775 11.9063 56.5021 11.9317 56.26 11.9825C56.0178 12.0294 55.8146 12.1017 55.6506 12.1993C55.4865 12.297 55.3615 12.42 55.2756 12.5685C55.1896 12.713 55.1467 12.8829 55.1467 13.0782C55.1467 13.2774 55.1916 13.4591 55.2814 13.6231C55.3713 13.7872 55.5061 13.9181 55.6857 14.0157C55.8693 14.1095 56.0939 14.1563 56.3596 14.1563C56.6916 14.1563 56.9846 14.086 57.2385 13.9454C57.4924 13.8048 57.6936 13.6329 57.842 13.4298C57.9943 13.2267 58.0764 13.0294 58.0881 12.838L58.551 13.3595C58.5236 13.5235 58.4494 13.7052 58.3283 13.9044C58.2072 14.1036 58.0451 14.295 57.842 14.4786C57.6428 14.6583 57.4045 14.8087 57.1271 14.9298C56.8537 15.047 56.5451 15.1056 56.2014 15.1056C55.7717 15.1056 55.3947 15.0216 55.0705 14.8536C54.7502 14.6856 54.5002 14.461 54.3205 14.1798C54.1447 13.8946 54.0568 13.5763 54.0568 13.2247C54.0568 12.8849 54.1232 12.586 54.2561 12.3282C54.3889 12.0665 54.5803 11.8497 54.8303 11.6778C55.0803 11.502 55.3811 11.3692 55.7326 11.2794C56.0842 11.1895 56.4768 11.1446 56.9104 11.1446H58.1701ZM54.9416 6.95517C54.9416 6.77939 54.9963 6.63095 55.1057 6.50986C55.215 6.38876 55.3732 6.32822 55.5803 6.32822C55.7912 6.32822 55.9514 6.38876 56.0607 6.50986C56.1701 6.63095 56.2248 6.77939 56.2248 6.95517C56.2248 7.12314 56.1701 7.26767 56.0607 7.38876C55.9514 7.50595 55.7912 7.56454 55.5803 7.56454C55.3732 7.56454 55.215 7.50595 55.1057 7.38876C54.9963 7.26767 54.9416 7.12314 54.9416 6.95517ZM57.467 6.96689C57.467 6.79111 57.5197 6.64267 57.6252 6.52158C57.7346 6.40048 57.8947 6.33994 58.1057 6.33994C58.3127 6.33994 58.4709 6.40048 58.5803 6.52158C58.6936 6.64267 58.7502 6.79111 58.7502 6.96689C58.7502 7.13486 58.6936 7.27939 58.5803 7.40048C58.4709 7.51767 58.3127 7.57626 58.1057 7.57626C57.8947 7.57626 57.7346 7.51767 57.6252 7.40048C57.5197 7.27939 57.467 7.13486 57.467 6.96689ZM62.0957 5.98837V14.9884H61.0117V5.98837H62.0957ZM61.8379 11.5782L61.3867 11.5606C61.3906 11.127 61.455 10.7267 61.58 10.3595C61.705 9.98837 61.8808 9.66611 62.1074 9.39267C62.3339 9.11923 62.6035 8.90829 62.916 8.75986C63.2324 8.60751 63.582 8.53134 63.9648 8.53134C64.2773 8.53134 64.5586 8.57431 64.8086 8.66025C65.0586 8.74228 65.2714 8.87509 65.4472 9.05869C65.6269 9.24228 65.7636 9.48056 65.8574 9.77353C65.9511 10.0626 65.998 10.4161 65.998 10.8341V14.9884H64.9082V10.8224C64.9082 10.4903 64.8593 10.2247 64.7617 10.0255C64.664 9.82236 64.5214 9.67587 64.3339 9.58603C64.1464 9.49228 63.916 9.4454 63.6425 9.4454C63.373 9.4454 63.1269 9.50204 62.9043 9.61533C62.6855 9.72861 62.4961 9.88486 62.3359 10.0841C62.1796 10.2833 62.0566 10.5118 61.9668 10.7696C61.8808 11.0235 61.8379 11.2931 61.8379 11.5782ZM69.0388 5.98837V14.9884H67.9489V5.98837H69.0388ZM73.6733 8.64853V9.48056H70.2456V8.64853H73.6733ZM71.4057 7.10751H72.4897V13.4181C72.4897 13.6329 72.5229 13.795 72.5893 13.9044C72.6557 14.0138 72.7417 14.086 72.8472 14.1212C72.9526 14.1563 73.0659 14.1739 73.187 14.1739C73.2768 14.1739 73.3706 14.1661 73.4682 14.1505C73.5698 14.131 73.646 14.1153 73.6968 14.1036L73.7026 14.9884C73.6167 15.0157 73.5034 15.0411 73.3628 15.0645C73.2261 15.0919 73.06 15.1056 72.8647 15.1056C72.5991 15.1056 72.355 15.0528 72.1323 14.9474C71.9097 14.8419 71.7319 14.6661 71.5991 14.42C71.4702 14.17 71.4057 13.8341 71.4057 13.4122V7.10751ZM77.8157 15.1056C77.3743 15.1056 76.9739 15.0313 76.6145 14.8829C76.259 14.7306 75.9524 14.5177 75.6946 14.2442C75.4407 13.9708 75.2454 13.6466 75.1086 13.2716C74.9719 12.8966 74.9036 12.4864 74.9036 12.0411V11.795C74.9036 11.2794 74.9797 10.8204 75.1321 10.4181C75.2844 10.0118 75.4914 9.66806 75.7532 9.38681C76.0149 9.10556 76.3118 8.89267 76.6438 8.74814C76.9758 8.60361 77.3196 8.53134 77.675 8.53134C78.1282 8.53134 78.5188 8.60947 78.8469 8.76572C79.1789 8.92197 79.4504 9.14072 79.6614 9.42197C79.8723 9.69931 80.0286 10.0274 80.1301 10.4063C80.2317 10.7813 80.2825 11.1915 80.2825 11.6368V12.1231H75.5481V11.2384H79.1985V11.1563C79.1829 10.8751 79.1243 10.6017 79.0227 10.336C78.925 10.0704 78.7688 9.85165 78.5539 9.67978C78.3391 9.5079 78.0461 9.42197 77.675 9.42197C77.4289 9.42197 77.2024 9.4747 76.9954 9.58017C76.7883 9.68173 76.6106 9.83408 76.4622 10.0372C76.3137 10.2403 76.1985 10.4884 76.1164 10.7813C76.0344 11.0743 75.9934 11.4122 75.9934 11.795V12.0411C75.9934 12.3419 76.0344 12.6251 76.1164 12.8907C76.2024 13.1524 76.3254 13.3829 76.4856 13.5821C76.6497 13.7813 76.8469 13.9376 77.0774 14.0509C77.3118 14.1642 77.5774 14.2208 77.8743 14.2208C78.2571 14.2208 78.5813 14.1427 78.8469 13.9864C79.1125 13.8302 79.345 13.6212 79.5442 13.3595L80.2004 13.881C80.0637 14.088 79.8899 14.2852 79.6789 14.4727C79.468 14.6602 79.2082 14.8126 78.8997 14.9298C78.595 15.047 78.2336 15.1056 77.8157 15.1056ZM85.4795 13.3067C85.4795 13.1505 85.4443 13.006 85.374 12.8731C85.3076 12.7364 85.1689 12.6134 84.958 12.504C84.751 12.3907 84.4385 12.2931 84.0205 12.211C83.6689 12.1368 83.3506 12.0489 83.0654 11.9474C82.7842 11.8458 82.5439 11.7227 82.3447 11.5782C82.1494 11.4337 81.999 11.2638 81.8936 11.0685C81.7881 10.8731 81.7354 10.6446 81.7354 10.3829C81.7354 10.1329 81.79 9.89658 81.8994 9.67392C82.0127 9.45126 82.1709 9.254 82.374 9.08212C82.5811 8.91025 82.8291 8.77548 83.1182 8.67783C83.4072 8.58017 83.7295 8.53134 84.085 8.53134C84.5928 8.53134 85.0264 8.62119 85.3857 8.80087C85.7451 8.98056 86.0205 9.22079 86.2119 9.52158C86.4033 9.81845 86.499 10.1485 86.499 10.5118H85.415C85.415 10.336 85.3623 10.1661 85.2568 10.002C85.1553 9.83408 85.0049 9.6954 84.8057 9.58603C84.6104 9.47665 84.3701 9.42197 84.085 9.42197C83.7842 9.42197 83.54 9.46884 83.3525 9.56259C83.1689 9.65244 83.0342 9.76767 82.9482 9.90829C82.8662 10.0489 82.8252 10.1974 82.8252 10.3536C82.8252 10.4708 82.8447 10.5763 82.8838 10.67C82.9268 10.7599 83.001 10.8438 83.1064 10.922C83.2119 10.9962 83.3604 11.0665 83.5518 11.1329C83.7432 11.1993 83.9873 11.2657 84.2842 11.3321C84.8037 11.4493 85.2314 11.5899 85.5674 11.754C85.9033 11.9181 86.1533 12.1192 86.3174 12.3575C86.4814 12.5958 86.5635 12.8849 86.5635 13.2247C86.5635 13.502 86.5049 13.756 86.3877 13.9864C86.2744 14.2169 86.1084 14.4161 85.8896 14.5841C85.6748 14.7481 85.417 14.877 85.1162 14.9708C84.8193 15.0606 84.4854 15.1056 84.1143 15.1056C83.5557 15.1056 83.083 15.006 82.6963 14.8067C82.3096 14.6075 82.0166 14.3497 81.8174 14.0333C81.6182 13.7169 81.5186 13.3829 81.5186 13.0313H82.6084C82.624 13.3282 82.71 13.5645 82.8662 13.7403C83.0225 13.9122 83.2139 14.0352 83.4404 14.1095C83.667 14.1798 83.8916 14.2149 84.1143 14.2149C84.4111 14.2149 84.6592 14.1759 84.8584 14.0977C85.0615 14.0196 85.2158 13.9122 85.3213 13.7755C85.4268 13.6388 85.4795 13.4825 85.4795 13.3067ZM12.1698 26.8321C12.1698 26.6329 12.1386 26.4571 12.0761 26.3048C12.0175 26.1485 11.912 26.0079 11.7597 25.8829C11.6112 25.7579 11.4042 25.6388 11.1386 25.5255C10.8768 25.4122 10.5448 25.297 10.1425 25.1798C9.72059 25.0548 9.33973 24.9161 8.99989 24.7638C8.66004 24.6075 8.36903 24.4298 8.12684 24.2306C7.88465 24.0313 7.6991 23.8028 7.5702 23.545C7.44129 23.2872 7.37684 22.9923 7.37684 22.6602C7.37684 22.3282 7.4452 22.0216 7.58192 21.7403C7.71864 21.4591 7.91395 21.2149 8.16785 21.0079C8.42567 20.797 8.73231 20.6329 9.08778 20.5157C9.44324 20.3985 9.83973 20.3399 10.2772 20.3399C10.9179 20.3399 11.4608 20.463 11.9061 20.7091C12.3554 20.9513 12.6972 21.2696 12.9315 21.6642C13.1659 22.0548 13.2831 22.4727 13.2831 22.9181H12.1581C12.1581 22.5977 12.0897 22.3145 11.953 22.0685C11.8163 21.8185 11.6093 21.6231 11.3319 21.4825C11.0546 21.338 10.703 21.2657 10.2772 21.2657C9.87489 21.2657 9.54285 21.3263 9.28114 21.4474C9.01942 21.5685 8.8241 21.7325 8.6952 21.9395C8.5702 22.1466 8.5077 22.3829 8.5077 22.6485C8.5077 22.8282 8.54481 22.9923 8.61903 23.1407C8.69715 23.2852 8.81629 23.42 8.97645 23.545C9.14051 23.67 9.34754 23.7852 9.59754 23.8907C9.85145 23.9962 10.1542 24.0977 10.5057 24.1954C10.9901 24.3321 11.4081 24.4845 11.7597 24.6524C12.1112 24.8204 12.4003 25.0099 12.6268 25.2208C12.8573 25.4278 13.0272 25.6642 13.1366 25.9298C13.2499 26.1915 13.3065 26.4884 13.3065 26.8204C13.3065 27.1681 13.2362 27.4825 13.0956 27.7638C12.955 28.045 12.7538 28.2852 12.4921 28.4845C12.2304 28.6837 11.9159 28.838 11.5487 28.9474C11.1854 29.0528 10.7792 29.1056 10.33 29.1056C9.93543 29.1056 9.54676 29.0509 9.16395 28.9415C8.78504 28.8321 8.43934 28.6681 8.12684 28.4493C7.81824 28.2306 7.5702 27.961 7.3827 27.6407C7.1991 27.3165 7.10731 26.9415 7.10731 26.5157H8.23231C8.23231 26.8087 8.28895 27.0606 8.40223 27.2716C8.51551 27.4786 8.66981 27.6505 8.86512 27.7872C9.06434 27.9239 9.28895 28.0255 9.53895 28.0919C9.79285 28.1544 10.0565 28.1856 10.33 28.1856C10.7245 28.1856 11.0585 28.131 11.3319 28.0216C11.6054 27.9122 11.8124 27.756 11.953 27.5528C12.0975 27.3497 12.1698 27.1095 12.1698 26.8321ZM18.7028 27.5235V22.6485H19.7926V28.9884H18.7555L18.7028 27.5235ZM18.9079 26.1876L19.359 26.1759C19.359 26.5977 19.3141 26.9884 19.2243 27.3477C19.1383 27.7032 18.9977 28.0118 18.8024 28.2735C18.6071 28.5352 18.3512 28.7403 18.0348 28.8888C17.7184 29.0333 17.3336 29.1056 16.8805 29.1056C16.5719 29.1056 16.2887 29.0606 16.0309 28.9708C15.777 28.881 15.5582 28.7423 15.3747 28.5548C15.1911 28.3673 15.0485 28.1231 14.9469 27.8224C14.8493 27.5216 14.8004 27.1602 14.8004 26.7384V22.6485H15.8844V26.7501C15.8844 27.0352 15.9157 27.2716 15.9782 27.4591C16.0446 27.6427 16.1325 27.7892 16.2418 27.8985C16.3551 28.004 16.4801 28.0782 16.6168 28.1212C16.7575 28.1642 16.902 28.1856 17.0504 28.1856C17.5114 28.1856 17.8766 28.0977 18.1461 27.922C18.4157 27.7423 18.609 27.502 18.7262 27.2013C18.8473 26.8966 18.9079 26.5587 18.9079 26.1876ZM15.4332 20.9552C15.4332 20.7794 15.4879 20.631 15.5973 20.5099C15.7067 20.3888 15.8649 20.3282 16.0719 20.3282C16.2829 20.3282 16.443 20.3888 16.5524 20.5099C16.6618 20.631 16.7164 20.7794 16.7164 20.9552C16.7164 21.1231 16.6618 21.2677 16.5524 21.3888C16.443 21.506 16.2829 21.5645 16.0719 21.5645C15.8649 21.5645 15.7067 21.506 15.5973 21.3888C15.4879 21.2677 15.4332 21.1231 15.4332 20.9552ZM17.9586 20.9669C17.9586 20.7911 18.0114 20.6427 18.1168 20.5216C18.2262 20.4005 18.3864 20.3399 18.5973 20.3399C18.8043 20.3399 18.9625 20.4005 19.0719 20.5216C19.1852 20.6427 19.2418 20.7911 19.2418 20.9669C19.2418 21.1349 19.1852 21.2794 19.0719 21.4005C18.9625 21.5177 18.8043 21.5763 18.5973 21.5763C18.3864 21.5763 18.2262 21.5177 18.1168 21.4005C18.0114 21.2794 17.9586 21.1349 17.9586 20.9669ZM22.7572 22.4727V28.9884H21.6791V22.4727C21.6791 22.0431 21.7338 21.6681 21.8432 21.3477C21.9564 21.0235 22.1147 20.754 22.3178 20.5392C22.5209 20.3204 22.7631 20.1563 23.0443 20.047C23.3256 19.9376 23.6381 19.8829 23.9818 19.8829C24.4076 19.8829 24.7846 19.9532 25.1127 20.0938C25.4447 20.2345 25.7064 20.4513 25.8979 20.7442C26.0893 21.0333 26.185 21.4044 26.185 21.8575C26.185 22.17 26.1459 22.4317 26.0678 22.6427C25.9936 22.8497 25.9076 23.0333 25.81 23.1935C25.7123 23.3497 25.6244 23.504 25.5463 23.6563C25.4721 23.8087 25.435 23.9845 25.435 24.1837C25.435 24.3985 25.5033 24.5919 25.64 24.7638C25.7768 24.9317 25.9467 25.0938 26.1498 25.2501C26.3529 25.4063 26.5561 25.5724 26.7592 25.7481C26.9662 25.9239 27.1381 26.1231 27.2748 26.3458C27.4115 26.5685 27.4799 26.8302 27.4799 27.131C27.4799 27.5763 27.3822 27.9454 27.1869 28.2384C26.9955 28.5313 26.7299 28.7501 26.39 28.8946C26.0502 29.0352 25.6615 29.1056 25.224 29.1056C25.0131 29.1056 24.7904 29.0841 24.5561 29.0411C24.3217 29.002 24.1068 28.9513 23.9115 28.8888C23.7201 28.8224 23.5736 28.754 23.4721 28.6837L23.7182 27.7755C23.8549 27.8614 24.0522 27.9571 24.31 28.0626C24.5717 28.1681 24.8393 28.2208 25.1127 28.2208C25.4174 28.2208 25.6635 28.1739 25.851 28.0802C26.0424 27.9864 26.1811 27.8614 26.267 27.7052C26.3529 27.5489 26.3959 27.3751 26.3959 27.1837C26.3959 26.961 26.3275 26.7657 26.1908 26.5977C26.0541 26.4259 25.8842 26.2618 25.6811 26.1056C25.4779 25.9454 25.2729 25.7774 25.0658 25.6017C24.8627 25.4259 24.6928 25.2227 24.5561 24.9923C24.4193 24.7618 24.351 24.4884 24.351 24.172C24.351 23.9376 24.392 23.7306 24.474 23.5509C24.5561 23.3712 24.6498 23.2032 24.7553 23.047C24.8607 22.8868 24.9545 22.7208 25.0365 22.5489C25.1186 22.3731 25.1596 22.1739 25.1596 21.9513C25.1596 21.6895 25.1107 21.4727 25.0131 21.3009C24.9154 21.1251 24.7826 20.9923 24.6147 20.9024C24.4467 20.8126 24.2553 20.7677 24.0404 20.7677C23.7709 20.7677 23.5404 20.8282 23.349 20.9493C23.1576 21.0704 23.0111 21.2579 22.9096 21.5118C22.808 21.7618 22.7572 22.0821 22.7572 22.4727ZM32.9406 27.5235V22.6485H34.0304V28.9884H32.9933L32.9406 27.5235ZM33.1457 26.1876L33.5968 26.1759C33.5968 26.5977 33.5519 26.9884 33.4621 27.3477C33.3761 27.7032 33.2355 28.0118 33.0402 28.2735C32.8449 28.5352 32.589 28.7403 32.2726 28.8888C31.9562 29.0333 31.5714 29.1056 31.1183 29.1056C30.8097 29.1056 30.5265 29.0606 30.2687 28.9708C30.0148 28.881 29.7961 28.7423 29.6125 28.5548C29.4289 28.3673 29.2863 28.1231 29.1847 27.8224C29.0871 27.5216 29.0382 27.1602 29.0382 26.7384V22.6485H30.1222V26.7501C30.1222 27.0352 30.1535 27.2716 30.216 27.4591C30.2824 27.6427 30.3703 27.7892 30.4797 27.8985C30.5929 28.004 30.7179 28.0782 30.8547 28.1212C30.9953 28.1642 31.1398 28.1856 31.2882 28.1856C31.7492 28.1856 32.1144 28.0977 32.3839 27.922C32.6535 27.7423 32.8468 27.502 32.964 27.2013C33.0851 26.8966 33.1457 26.5587 33.1457 26.1876ZM37.0068 24.002V28.9884H35.9228V22.6485H36.9482L37.0068 24.002ZM36.7489 25.5782L36.2978 25.5606C36.3017 25.127 36.3661 24.7267 36.4911 24.3595C36.6161 23.9884 36.7919 23.6661 37.0185 23.3927C37.245 23.1192 37.5146 22.9083 37.8271 22.7599C38.1435 22.6075 38.4931 22.5313 38.8759 22.5313C39.1884 22.5313 39.4697 22.5743 39.7197 22.6602C39.9697 22.7423 40.1825 22.8751 40.3583 23.0587C40.538 23.2423 40.6747 23.4806 40.7685 23.7735C40.8622 24.0626 40.9091 24.4161 40.9091 24.8341V28.9884H39.8193V24.8224C39.8193 24.4903 39.7704 24.2247 39.6728 24.0255C39.5751 23.8224 39.4325 23.6759 39.245 23.586C39.0575 23.4923 38.8271 23.4454 38.5536 23.4454C38.2841 23.4454 38.038 23.502 37.8154 23.6153C37.5966 23.7286 37.4072 23.8849 37.247 24.0841C37.0907 24.2833 36.9677 24.5118 36.8779 24.7696C36.7919 25.0235 36.7489 25.2931 36.7489 25.5782ZM46.903 22.6485H47.8874V28.8536C47.8874 29.4122 47.7741 29.8888 47.5475 30.2833C47.321 30.6778 47.0046 30.9767 46.5983 31.1798C46.196 31.3868 45.7311 31.4903 45.2038 31.4903C44.985 31.4903 44.7272 31.4552 44.4304 31.3849C44.1374 31.3185 43.8483 31.2032 43.5632 31.0392C43.2819 30.879 43.0456 30.6622 42.8542 30.3888L43.4225 29.7442C43.6882 30.0645 43.9655 30.2872 44.2546 30.4122C44.5475 30.5372 44.8366 30.5997 45.1218 30.5997C45.4655 30.5997 45.7624 30.5352 46.0124 30.4063C46.2624 30.2774 46.4557 30.086 46.5925 29.8321C46.7331 29.5821 46.8034 29.2735 46.8034 28.9063V24.0431L46.903 22.6485ZM42.5378 25.8888V25.7657C42.5378 25.2813 42.5944 24.8419 42.7077 24.4474C42.8249 24.0489 42.9909 23.7071 43.2057 23.422C43.4245 23.1368 43.6882 22.9181 43.9968 22.7657C44.3054 22.6095 44.653 22.5313 45.0397 22.5313C45.4382 22.5313 45.7858 22.6017 46.0827 22.7423C46.3835 22.879 46.6374 23.0802 46.8444 23.3458C47.0554 23.6075 47.2214 23.9239 47.3425 24.295C47.4636 24.6661 47.5475 25.086 47.5944 25.5548V26.0938C47.5514 26.5587 47.4675 26.9767 47.3425 27.3477C47.2214 27.7188 47.0554 28.0352 46.8444 28.297C46.6374 28.5587 46.3835 28.7599 46.0827 28.9005C45.7819 29.0372 45.4304 29.1056 45.028 29.1056C44.6491 29.1056 44.3054 29.0255 43.9968 28.8653C43.6921 28.7052 43.4304 28.4806 43.2116 28.1915C42.9929 27.9024 42.8249 27.5626 42.7077 27.172C42.5944 26.7774 42.5378 26.3497 42.5378 25.8888ZM43.6218 25.7657V25.8888C43.6218 26.2052 43.653 26.502 43.7155 26.7794C43.7819 27.0567 43.8815 27.3009 44.0143 27.5118C44.1511 27.7227 44.3249 27.8888 44.5358 28.0099C44.7468 28.127 44.9987 28.1856 45.2917 28.1856C45.6511 28.1856 45.9479 28.1095 46.1823 27.9571C46.4167 27.8048 46.6022 27.6036 46.7389 27.3536C46.8796 27.1036 46.9889 26.8321 47.0671 26.5392V25.127C47.0241 24.9122 46.9577 24.7052 46.8679 24.506C46.7819 24.3028 46.6686 24.1231 46.528 23.9669C46.3913 23.8067 46.2214 23.6798 46.0182 23.586C45.8151 23.4923 45.5768 23.4454 45.3034 23.4454C45.0065 23.4454 44.7507 23.5079 44.5358 23.6329C44.3249 23.754 44.1511 23.922 44.0143 24.1368C43.8815 24.3477 43.7819 24.5938 43.7155 24.8751C43.653 25.1524 43.6218 25.4493 43.6218 25.7657ZM53.4653 27.3067C53.4653 27.1505 53.4301 27.006 53.3598 26.8731C53.2934 26.7364 53.1547 26.6134 52.9438 26.504C52.7368 26.3907 52.4243 26.2931 52.0063 26.211C51.6547 26.1368 51.3364 26.0489 51.0512 25.9474C50.77 25.8458 50.5297 25.7227 50.3305 25.5782C50.1352 25.4337 49.9848 25.2638 49.8793 25.0685C49.7739 24.8731 49.7211 24.6446 49.7211 24.3829C49.7211 24.1329 49.7758 23.8966 49.8852 23.6739C49.9985 23.4513 50.1567 23.254 50.3598 23.0821C50.5668 22.9102 50.8149 22.7755 51.1039 22.6778C51.393 22.5802 51.7153 22.5313 52.0707 22.5313C52.5786 22.5313 53.0121 22.6212 53.3715 22.8009C53.7309 22.9806 54.0063 23.2208 54.1977 23.5216C54.3891 23.8185 54.4848 24.1485 54.4848 24.5118H53.4008C53.4008 24.336 53.3481 24.1661 53.2426 24.002C53.1411 23.8341 52.9907 23.6954 52.7914 23.586C52.5961 23.4767 52.3559 23.422 52.0707 23.422C51.77 23.422 51.5258 23.4688 51.3383 23.5626C51.1547 23.6524 51.02 23.7677 50.934 23.9083C50.852 24.0489 50.811 24.1974 50.811 24.3536C50.811 24.4708 50.8305 24.5763 50.8696 24.67C50.9125 24.7599 50.9868 24.8438 51.0922 24.922C51.1977 24.9962 51.3461 25.0665 51.5375 25.1329C51.7289 25.1993 51.9731 25.2657 52.27 25.3321C52.7895 25.4493 53.2172 25.5899 53.5532 25.754C53.8891 25.9181 54.1391 26.1192 54.3032 26.3575C54.4672 26.5958 54.5493 26.8849 54.5493 27.2247C54.5493 27.502 54.4907 27.756 54.3735 27.9864C54.2602 28.2169 54.0942 28.4161 53.8754 28.5841C53.6606 28.7481 53.4028 28.877 53.102 28.9708C52.8051 29.0606 52.4711 29.1056 52.1 29.1056C51.5414 29.1056 51.0688 29.006 50.6821 28.8067C50.2954 28.6075 50.0024 28.3497 49.8032 28.0333C49.6039 27.7169 49.5043 27.3829 49.5043 27.0313H50.5942C50.6098 27.3282 50.6957 27.5645 50.852 27.7403C51.0082 27.9122 51.1996 28.0352 51.4262 28.1095C51.6528 28.1798 51.8774 28.2149 52.1 28.2149C52.3969 28.2149 52.645 28.1759 52.8442 28.0977C53.0473 28.0196 53.2016 27.9122 53.3071 27.7755C53.4125 27.6388 53.4653 27.4825 53.4653 27.3067ZM57.2912 23.9083V28.9884H56.2014V22.6485H57.2326L57.2912 23.9083ZM57.0686 25.5782L56.5647 25.5606C56.5686 25.127 56.6252 24.7267 56.7346 24.3595C56.8439 23.9884 57.0061 23.6661 57.2209 23.3927C57.4357 23.1192 57.7033 22.9083 58.0236 22.7599C58.3439 22.6075 58.715 22.5313 59.1369 22.5313C59.4338 22.5313 59.7072 22.5743 59.9572 22.6602C60.2072 22.7423 60.424 22.8731 60.6076 23.0528C60.7912 23.2325 60.9338 23.463 61.0354 23.7442C61.1369 24.0255 61.1877 24.3653 61.1877 24.7638V28.9884H60.1037V24.8165C60.1037 24.4845 60.0471 24.2188 59.9338 24.0196C59.8244 23.8204 59.6682 23.6759 59.465 23.586C59.2619 23.4923 59.0236 23.4454 58.7502 23.4454C58.4299 23.4454 58.1623 23.502 57.9475 23.6153C57.7326 23.7286 57.5607 23.8849 57.4318 24.0841C57.3029 24.2833 57.2092 24.5118 57.1506 24.7696C57.0959 25.0235 57.0686 25.2931 57.0686 25.5782ZM61.176 24.9806L60.4494 25.2032C60.4533 24.8556 60.51 24.5216 60.6193 24.2013C60.7326 23.881 60.8947 23.5958 61.1057 23.3458C61.3205 23.0958 61.5842 22.8985 61.8967 22.754C62.2092 22.6056 62.5666 22.5313 62.9689 22.5313C63.3088 22.5313 63.6096 22.5763 63.8713 22.6661C64.1369 22.756 64.3596 22.8946 64.5393 23.0821C64.7229 23.2657 64.8615 23.502 64.9553 23.7911C65.049 24.0802 65.0959 24.4239 65.0959 24.8224V28.9884H64.0061V24.8106C64.0061 24.4552 63.9494 24.1798 63.8361 23.9845C63.7268 23.7852 63.5705 23.6466 63.3674 23.5685C63.1682 23.4864 62.9299 23.4454 62.6525 23.4454C62.4143 23.4454 62.2033 23.4864 62.0197 23.5685C61.8361 23.6505 61.6818 23.7638 61.5568 23.9083C61.4318 24.0489 61.3361 24.211 61.2697 24.3946C61.2072 24.5782 61.176 24.7735 61.176 24.9806ZM68.1543 22.6485V28.9884H67.0644V22.6485H68.1543ZM66.9824 20.9669C66.9824 20.7911 67.0351 20.6427 67.1406 20.5216C67.25 20.4005 67.4101 20.3399 67.6211 20.3399C67.8281 20.3399 67.9863 20.4005 68.0957 20.5216C68.2089 20.6427 68.2656 20.7911 68.2656 20.9669C68.2656 21.1349 68.2089 21.2794 68.0957 21.4005C67.9863 21.5177 67.8281 21.5763 67.6211 21.5763C67.4101 21.5763 67.25 21.5177 67.1406 21.4005C67.0351 21.2794 66.9824 21.1349 66.9824 20.9669ZM72.7888 22.6485V23.4806H69.3611V22.6485H72.7888ZM70.5212 21.1075H71.6052V27.4181C71.6052 27.6329 71.6384 27.795 71.7048 27.9044C71.7712 28.0138 71.8571 28.086 71.9626 28.1212C72.0681 28.1563 72.1814 28.1739 72.3025 28.1739C72.3923 28.1739 72.4861 28.1661 72.5837 28.1505C72.6853 28.131 72.7614 28.1153 72.8122 28.1036L72.8181 28.9884C72.7321 29.0157 72.6189 29.0411 72.4782 29.0645C72.3415 29.0919 72.1755 29.1056 71.9802 29.1056C71.7146 29.1056 71.4704 29.0528 71.2478 28.9474C71.0251 28.8419 70.8474 28.6661 70.7146 28.42C70.5857 28.17 70.5212 27.8341 70.5212 27.4122V21.1075ZM76.9546 22.6485V23.4806H73.5268V22.6485H76.9546ZM74.687 21.1075H75.771V27.4181C75.771 27.6329 75.8042 27.795 75.8706 27.9044C75.937 28.0138 76.0229 28.086 76.1284 28.1212C76.2339 28.1563 76.3472 28.1739 76.4682 28.1739C76.5581 28.1739 76.6518 28.1661 76.7495 28.1505C76.8511 28.131 76.9272 28.1153 76.978 28.1036L76.9839 28.9884C76.8979 29.0157 76.7847 29.0411 76.644 29.0645C76.5073 29.0919 76.3413 29.1056 76.146 29.1056C75.8804 29.1056 75.6362 29.0528 75.4136 28.9474C75.1909 28.8419 75.0132 28.6661 74.8804 28.42C74.7514 28.17 74.687 27.8341 74.687 27.4122V21.1075ZM81.0969 29.1056C80.6555 29.1056 80.2551 29.0313 79.8957 28.8829C79.5403 28.7306 79.2336 28.5177 78.9758 28.2442C78.7219 27.9708 78.5266 27.6466 78.3899 27.2716C78.2532 26.8966 78.1848 26.4864 78.1848 26.0411V25.795C78.1848 25.2794 78.261 24.8204 78.4133 24.4181C78.5657 24.0118 78.7727 23.6681 79.0344 23.3868C79.2961 23.1056 79.593 22.8927 79.925 22.7481C80.2571 22.6036 80.6008 22.5313 80.9563 22.5313C81.4094 22.5313 81.8 22.6095 82.1282 22.7657C82.4602 22.922 82.7317 23.1407 82.9426 23.422C83.1536 23.6993 83.3098 24.0274 83.4114 24.4063C83.5129 24.7813 83.5637 25.1915 83.5637 25.6368V26.1231H78.8293V25.2384H82.4797V25.1563C82.4641 24.8751 82.4055 24.6017 82.3039 24.336C82.2063 24.0704 82.05 23.8517 81.8352 23.6798C81.6204 23.5079 81.3274 23.422 80.9563 23.422C80.7102 23.422 80.4836 23.4747 80.2766 23.5802C80.0696 23.6817 79.8918 23.8341 79.7434 24.0372C79.595 24.2403 79.4797 24.4884 79.3977 24.7813C79.3157 25.0743 79.2747 25.4122 79.2747 25.795V26.0411C79.2747 26.3419 79.3157 26.6251 79.3977 26.8907C79.4836 27.1524 79.6067 27.3829 79.7668 27.5821C79.9309 27.7813 80.1282 27.9376 80.3586 28.0509C80.593 28.1642 80.8586 28.2208 81.1555 28.2208C81.5383 28.2208 81.8625 28.1427 82.1282 27.9864C82.3938 27.8302 82.6262 27.6212 82.8254 27.3595L83.4817 27.881C83.345 28.088 83.1711 28.2852 82.9602 28.4727C82.7493 28.6602 82.4895 28.8126 82.1809 28.9298C81.8762 29.047 81.5149 29.1056 81.0969 29.1056ZM86.2471 19.9884V28.9884H85.1572V19.9884H86.2471Z" fill="white"/>
<path d="M165.119 14.0099L166.854 8.64853H167.961L165.682 14.9884H164.955L165.119 14.0099ZM163.672 8.64853L165.459 14.0392L165.582 14.9884H164.855L162.559 8.64853H163.672ZM171.793 15.1056C171.351 15.1056 170.951 15.0313 170.592 14.8829C170.236 14.7306 169.929 14.5177 169.672 14.2442C169.418 13.9708 169.222 13.6466 169.086 13.2716C168.949 12.8966 168.881 12.4864 168.881 12.0411V11.795C168.881 11.2794 168.957 10.8204 169.109 10.4181C169.261 10.0118 169.469 9.66806 169.73 9.38681C169.992 9.10556 170.289 8.89267 170.621 8.74814C170.953 8.60361 171.297 8.53134 171.652 8.53134C172.105 8.53134 172.496 8.60947 172.824 8.76572C173.156 8.92197 173.427 9.14072 173.638 9.42197C173.849 9.69931 174.006 10.0274 174.107 10.4063C174.209 10.7813 174.26 11.1915 174.26 11.6368V12.1231H169.525V11.2384H173.176V11.1563C173.16 10.8751 173.101 10.6017 173 10.336C172.902 10.0704 172.746 9.85165 172.531 9.67978C172.316 9.5079 172.023 9.42197 171.652 9.42197C171.406 9.42197 171.179 9.4747 170.972 9.58017C170.765 9.68173 170.588 9.83408 170.439 10.0372C170.291 10.2403 170.176 10.4884 170.094 10.7813C170.011 11.0743 169.97 11.4122 169.97 11.795V12.0411C169.97 12.3419 170.011 12.6251 170.094 12.8907C170.179 13.1524 170.302 13.3829 170.463 13.5821C170.627 13.7813 170.824 13.9376 171.054 14.0509C171.289 14.1642 171.554 14.2208 171.851 14.2208C172.234 14.2208 172.558 14.1427 172.824 13.9864C173.09 13.8302 173.322 13.6212 173.521 13.3595L174.177 13.881C174.041 14.088 173.867 14.2852 173.656 14.4727C173.445 14.6602 173.185 14.8126 172.877 14.9298C172.572 15.047 172.211 15.1056 171.793 15.1056ZM176.849 9.64462V14.9884H175.765V8.64853H176.82L176.849 9.64462ZM178.83 8.61337L178.824 9.62119C178.734 9.60165 178.648 9.58994 178.566 9.58603C178.488 9.57822 178.398 9.57431 178.296 9.57431C178.046 9.57431 177.826 9.61337 177.634 9.6915C177.443 9.76962 177.281 9.879 177.148 10.0196C177.015 10.1602 176.91 10.3282 176.832 10.5235C176.757 10.7149 176.709 10.9259 176.685 11.1563L176.38 11.3321C176.38 10.9493 176.417 10.5899 176.492 10.254C176.57 9.91806 176.689 9.62119 176.849 9.36337C177.009 9.10165 177.212 8.89853 177.459 8.754C177.709 8.60556 178.005 8.53134 178.349 8.53134C178.427 8.53134 178.517 8.54111 178.619 8.56064C178.72 8.57626 178.791 8.59384 178.83 8.61337ZM184.062 8.64853H185.046V14.8536C185.046 15.4122 184.933 15.8888 184.706 16.2833C184.48 16.6778 184.163 16.9767 183.757 17.1798C183.355 17.3868 182.89 17.4903 182.363 17.4903C182.144 17.4903 181.886 17.4552 181.589 17.3849C181.296 17.3185 181.007 17.2032 180.722 17.0392C180.441 16.879 180.204 16.6622 180.013 16.3888L180.581 15.7442C180.847 16.0645 181.124 16.2872 181.413 16.4122C181.706 16.5372 181.995 16.5997 182.281 16.5997C182.624 16.5997 182.921 16.5352 183.171 16.4063C183.421 16.2774 183.615 16.086 183.751 15.8321C183.892 15.5821 183.962 15.2735 183.962 14.9063V10.0431L184.062 8.64853ZM179.697 11.8888V11.7657C179.697 11.2813 179.753 10.8419 179.866 10.4474C179.984 10.0489 180.15 9.70712 180.365 9.42197C180.583 9.13681 180.847 8.91806 181.156 8.76572C181.464 8.60947 181.812 8.53134 182.199 8.53134C182.597 8.53134 182.945 8.60165 183.241 8.74228C183.542 8.879 183.796 9.08017 184.003 9.34579C184.214 9.60751 184.38 9.92392 184.501 10.295C184.622 10.6661 184.706 11.086 184.753 11.5548V12.0938C184.71 12.5587 184.626 12.9767 184.501 13.3477C184.38 13.7188 184.214 14.0352 184.003 14.297C183.796 14.5587 183.542 14.7599 183.241 14.9005C182.941 15.0372 182.589 15.1056 182.187 15.1056C181.808 15.1056 181.464 15.0255 181.156 14.8653C180.851 14.7052 180.589 14.4806 180.37 14.1915C180.152 13.9024 179.984 13.5626 179.866 13.172C179.753 12.7774 179.697 12.3497 179.697 11.8888ZM180.781 11.7657V11.8888C180.781 12.2052 180.812 12.502 180.874 12.7794C180.941 13.0567 181.04 13.3009 181.173 13.5118C181.31 13.7227 181.484 13.8888 181.695 14.0099C181.906 14.127 182.157 14.1856 182.45 14.1856C182.81 14.1856 183.107 14.1095 183.341 13.9571C183.575 13.8048 183.761 13.6036 183.898 13.3536C184.038 13.1036 184.148 12.8321 184.226 12.5392V11.127C184.183 10.9122 184.116 10.7052 184.027 10.506C183.941 10.3028 183.827 10.1231 183.687 9.96689C183.55 9.80673 183.38 9.67978 183.177 9.58603C182.974 9.49228 182.736 9.4454 182.462 9.4454C182.165 9.4454 181.909 9.5079 181.695 9.6329C181.484 9.754 181.31 9.92197 181.173 10.1368C181.04 10.3477 180.941 10.5938 180.874 10.8751C180.812 11.1524 180.781 11.4493 180.781 11.7657ZM188.11 5.98837V14.9884H187.021V5.98837H188.11ZM191.268 8.64853V14.9884H190.179V8.64853H191.268ZM190.096 6.96689C190.096 6.79111 190.149 6.64267 190.255 6.52158C190.364 6.40048 190.524 6.33994 190.735 6.33994C190.942 6.33994 191.1 6.40048 191.21 6.52158C191.323 6.64267 191.38 6.79111 191.38 6.96689C191.38 7.13486 191.323 7.27939 191.21 7.40048C191.1 7.51767 190.942 7.57626 190.735 7.57626C190.524 7.57626 190.364 7.51767 190.255 7.40048C190.149 7.27939 190.096 7.13486 190.096 6.96689ZM195.786 14.2149C196.044 14.2149 196.282 14.1622 196.501 14.0567C196.719 13.9513 196.899 13.8067 197.04 13.6231C197.18 13.4356 197.26 13.2227 197.28 12.9845H198.311C198.292 13.3595 198.165 13.7091 197.93 14.0333C197.7 14.3536 197.397 14.6134 197.022 14.8126C196.647 15.0079 196.235 15.1056 195.786 15.1056C195.309 15.1056 194.893 15.0216 194.538 14.8536C194.186 14.6856 193.893 14.4552 193.659 14.1622C193.428 13.8692 193.254 13.5333 193.137 13.1544C193.024 12.7716 192.967 12.3673 192.967 11.9415V11.6954C192.967 11.2696 193.024 10.8673 193.137 10.4884C193.254 10.1056 193.428 9.76767 193.659 9.4747C193.893 9.18173 194.186 8.95126 194.538 8.78329C194.893 8.61533 195.309 8.53134 195.786 8.53134C196.282 8.53134 196.715 8.6329 197.086 8.83603C197.458 9.03525 197.749 9.30869 197.96 9.65634C198.174 10.0001 198.292 10.3907 198.311 10.8282H197.28C197.26 10.5665 197.186 10.3302 197.057 10.1192C196.932 9.90829 196.76 9.74033 196.542 9.61533C196.327 9.48642 196.075 9.42197 195.786 9.42197C195.454 9.42197 195.174 9.48837 194.948 9.62119C194.725 9.75009 194.547 9.92587 194.415 10.1485C194.286 10.3673 194.192 10.6114 194.133 10.881C194.079 11.1466 194.051 11.4181 194.051 11.6954V11.9415C194.051 12.2188 194.079 12.4923 194.133 12.7618C194.188 13.0313 194.28 13.2755 194.409 13.4942C194.542 13.713 194.719 13.8888 194.942 14.0216C195.169 14.1505 195.45 14.2149 195.786 14.2149ZM200.854 5.98837V14.9884H199.77V5.98837H200.854ZM200.596 11.5782L200.145 11.5606C200.149 11.127 200.213 10.7267 200.338 10.3595C200.463 9.98837 200.639 9.66611 200.866 9.39267C201.092 9.11923 201.362 8.90829 201.674 8.75986C201.991 8.60751 202.34 8.53134 202.723 8.53134C203.035 8.53134 203.317 8.57431 203.567 8.66025C203.817 8.74228 204.03 8.87509 204.205 9.05869C204.385 9.24228 204.522 9.48056 204.616 9.77353C204.709 10.0626 204.756 10.4161 204.756 10.8341V14.9884H203.666V10.8224C203.666 10.4903 203.618 10.2247 203.52 10.0255C203.422 9.82236 203.28 9.67587 203.092 9.58603C202.905 9.49228 202.674 9.4454 202.401 9.4454C202.131 9.4454 201.885 9.50204 201.662 9.61533C201.444 9.72861 201.254 9.88486 201.094 10.0841C200.938 10.2833 200.815 10.5118 200.725 10.7696C200.639 11.0235 200.596 11.2931 200.596 11.5782ZM209.25 15.1056C208.809 15.1056 208.408 15.0313 208.049 14.8829C207.693 14.7306 207.387 14.5177 207.129 14.2442C206.875 13.9708 206.68 13.6466 206.543 13.2716C206.406 12.8966 206.338 12.4864 206.338 12.0411V11.795C206.338 11.2794 206.414 10.8204 206.566 10.4181C206.719 10.0118 206.926 9.66806 207.188 9.38681C207.449 9.10556 207.746 8.89267 208.078 8.74814C208.41 8.60361 208.754 8.53134 209.109 8.53134C209.563 8.53134 209.953 8.60947 210.281 8.76572C210.613 8.92197 210.885 9.14072 211.096 9.42197C211.307 9.69931 211.463 10.0274 211.565 10.4063C211.666 10.7813 211.717 11.1915 211.717 11.6368V12.1231H206.982V11.2384H210.633V11.1563C210.617 10.8751 210.559 10.6017 210.457 10.336C210.359 10.0704 210.203 9.85165 209.988 9.67978C209.774 9.5079 209.481 9.42197 209.109 9.42197C208.863 9.42197 208.637 9.4747 208.43 9.58017C208.223 9.68173 208.045 9.83408 207.897 10.0372C207.748 10.2403 207.633 10.4884 207.551 10.7813C207.469 11.0743 207.428 11.4122 207.428 11.795V12.0411C207.428 12.3419 207.469 12.6251 207.551 12.8907C207.637 13.1524 207.76 13.3829 207.92 13.5821C208.084 13.7813 208.281 13.9376 208.512 14.0509C208.746 14.1642 209.012 14.2208 209.309 14.2208C209.691 14.2208 210.016 14.1427 210.281 13.9864C210.547 13.8302 210.779 13.6212 210.979 13.3595L211.635 13.881C211.498 14.088 211.324 14.2852 211.113 14.4727C210.902 14.6602 210.643 14.8126 210.334 14.9298C210.029 15.047 209.668 15.1056 209.25 15.1056ZM214.306 10.002V14.9884H213.222V8.64853H214.248L214.306 10.002ZM214.049 11.5782L213.597 11.5606C213.601 11.127 213.666 10.7267 213.791 10.3595C213.916 9.98837 214.092 9.66611 214.318 9.39267C214.545 9.11923 214.814 8.90829 215.127 8.75986C215.443 8.60751 215.793 8.53134 216.176 8.53134C216.488 8.53134 216.769 8.57431 217.019 8.66025C217.269 8.74228 217.482 8.87509 217.658 9.05869C217.838 9.24228 217.974 9.48056 218.068 9.77353C218.162 10.0626 218.209 10.4161 218.209 10.8341V14.9884H217.119V10.8224C217.119 10.4903 217.07 10.2247 216.972 10.0255C216.875 9.82236 216.732 9.67587 216.545 9.58603C216.357 9.49228 216.127 9.4454 215.853 9.4454C215.584 9.4454 215.338 9.50204 215.115 9.61533C214.896 9.72861 214.707 9.88486 214.547 10.0841C214.39 10.2833 214.267 10.5118 214.178 10.7696C214.092 11.0235 214.049 11.2931 214.049 11.5782ZM224.39 9.90829V14.9884H223.3V8.64853H224.331L224.39 9.90829ZM224.167 11.5782L223.663 11.5606C223.667 11.127 223.724 10.7267 223.833 10.3595C223.943 9.98837 224.105 9.66611 224.32 9.39267C224.535 9.11923 224.802 8.90829 225.122 8.75986C225.443 8.60751 225.814 8.53134 226.236 8.53134C226.533 8.53134 226.806 8.57431 227.056 8.66025C227.306 8.74228 227.523 8.87314 227.706 9.05283C227.89 9.23251 228.033 9.46298 228.134 9.74423C228.236 10.0255 228.286 10.3653 228.286 10.7638V14.9884H227.202V10.8165C227.202 10.4845 227.146 10.2188 227.033 10.0196C226.923 9.8204 226.767 9.67587 226.564 9.58603C226.361 9.49228 226.122 9.4454 225.849 9.4454C225.529 9.4454 225.261 9.50204 225.046 9.61533C224.831 9.72861 224.66 9.88486 224.531 10.0841C224.402 10.2833 224.308 10.5118 224.249 10.7696C224.195 11.0235 224.167 11.2931 224.167 11.5782ZM228.275 10.9806L227.548 11.2032C227.552 10.8556 227.609 10.5216 227.718 10.2013C227.831 9.88095 227.994 9.59579 228.204 9.34579C228.419 9.09579 228.683 8.89853 228.995 8.754C229.308 8.60556 229.665 8.53134 230.068 8.53134C230.408 8.53134 230.708 8.57626 230.97 8.66611C231.236 8.75595 231.458 8.89462 231.638 9.08212C231.822 9.26572 231.96 9.50204 232.054 9.79111C232.148 10.0802 232.195 10.4239 232.195 10.8224V14.9884H231.105V10.8106C231.105 10.4552 231.048 10.1798 230.935 9.98447C230.826 9.78525 230.669 9.64658 230.466 9.56845C230.267 9.48642 230.029 9.4454 229.751 9.4454C229.513 9.4454 229.302 9.48642 229.119 9.56845C228.935 9.65048 228.781 9.76376 228.656 9.90829C228.531 10.0489 228.435 10.211 228.369 10.3946C228.306 10.5782 228.275 10.7735 228.275 10.9806ZM235.253 8.64853V14.9884H234.163V8.64853H235.253ZM234.081 6.96689C234.081 6.79111 234.134 6.64267 234.239 6.52158C234.349 6.40048 234.509 6.33994 234.72 6.33994C234.927 6.33994 235.085 6.40048 235.194 6.52158C235.308 6.64267 235.364 6.79111 235.364 6.96689C235.364 7.13486 235.308 7.27939 235.194 7.40048C235.085 7.51767 234.927 7.57626 234.72 7.57626C234.509 7.57626 234.349 7.51767 234.239 7.40048C234.134 7.27939 234.081 7.13486 234.081 6.96689ZM239.888 8.64853V9.48056H236.46V8.64853H239.888ZM237.62 7.10751H238.704V13.4181C238.704 13.6329 238.737 13.795 238.804 13.9044C238.87 14.0138 238.956 14.086 239.061 14.1212C239.167 14.1563 239.28 14.1739 239.401 14.1739C239.491 14.1739 239.585 14.1661 239.683 14.1505C239.784 14.131 239.86 14.1153 239.911 14.1036L239.917 14.9884C239.831 15.0157 239.718 15.0411 239.577 15.0645C239.44 15.0919 239.274 15.1056 239.079 15.1056C238.813 15.1056 238.569 15.0528 238.347 14.9474C238.124 14.8419 237.946 14.6661 237.813 14.42C237.684 14.17 237.62 13.8341 237.62 13.4122V7.10751ZM168.928 24.1251V25.045H164.311V24.1251H168.928ZM164.486 20.4571V28.9884H163.355V20.4571H164.486ZM169.912 20.4571V28.9884H168.787V20.4571H169.912ZM175.736 27.9044V24.6407C175.736 24.3907 175.685 24.1739 175.584 23.9903C175.486 23.8028 175.338 23.6583 175.138 23.5567C174.939 23.4552 174.693 23.4044 174.4 23.4044C174.127 23.4044 173.886 23.4513 173.679 23.545C173.476 23.6388 173.316 23.7618 173.199 23.9142C173.086 24.0665 173.029 24.2306 173.029 24.4063H171.945C171.945 24.1798 172.004 23.9552 172.121 23.7325C172.238 23.5099 172.406 23.3087 172.625 23.129C172.847 22.9454 173.113 22.8009 173.422 22.6954C173.734 22.586 174.082 22.5313 174.465 22.5313C174.926 22.5313 175.332 22.6095 175.683 22.7657C176.039 22.922 176.316 23.1583 176.515 23.4747C176.719 23.7872 176.82 24.1798 176.82 24.6524V27.6056C176.82 27.8165 176.838 28.0411 176.873 28.2794C176.912 28.5177 176.969 28.7227 177.043 28.8946V28.9884H175.912C175.857 28.8634 175.814 28.6974 175.783 28.4903C175.752 28.2794 175.736 28.0841 175.736 27.9044ZM175.924 25.1446L175.935 25.9063H174.84C174.531 25.9063 174.256 25.9317 174.013 25.9825C173.771 26.0294 173.568 26.1017 173.404 26.1993C173.24 26.297 173.115 26.42 173.029 26.5685C172.943 26.713 172.9 26.8829 172.9 27.0782C172.9 27.2774 172.945 27.4591 173.035 27.6231C173.125 27.7872 173.26 27.9181 173.439 28.0157C173.623 28.1095 173.847 28.1563 174.113 28.1563C174.445 28.1563 174.738 28.086 174.992 27.9454C175.246 27.8048 175.447 27.6329 175.595 27.4298C175.748 27.2267 175.83 27.0294 175.842 26.838L176.304 27.3595C176.277 27.5235 176.203 27.7052 176.082 27.9044C175.961 28.1036 175.799 28.295 175.595 28.4786C175.396 28.6583 175.158 28.8087 174.881 28.9298C174.607 29.047 174.299 29.1056 173.955 29.1056C173.525 29.1056 173.148 29.0216 172.824 28.8536C172.504 28.6856 172.254 28.461 172.074 28.1798C171.898 27.8946 171.81 27.5763 171.81 27.2247C171.81 26.8849 171.877 26.586 172.01 26.3282C172.142 26.0665 172.334 25.8497 172.584 25.6778C172.834 25.502 173.135 25.3692 173.486 25.2794C173.838 25.1895 174.23 25.1446 174.664 25.1446H175.924ZM182.644 27.5235V22.6485H183.734V28.9884H182.697L182.644 27.5235ZM182.849 26.1876L183.3 26.1759C183.3 26.5977 183.255 26.9884 183.166 27.3477C183.08 27.7032 182.939 28.0118 182.744 28.2735C182.548 28.5352 182.292 28.7403 181.976 28.8888C181.66 29.0333 181.275 29.1056 180.822 29.1056C180.513 29.1056 180.23 29.0606 179.972 28.9708C179.718 28.881 179.5 28.7423 179.316 28.5548C179.132 28.3673 178.99 28.1231 178.888 27.8224C178.791 27.5216 178.742 27.1602 178.742 26.7384V22.6485H179.826V26.7501C179.826 27.0352 179.857 27.2716 179.919 27.4591C179.986 27.6427 180.074 27.7892 180.183 27.8985C180.296 28.004 180.421 28.0782 180.558 28.1212C180.699 28.1642 180.843 28.1856 180.992 28.1856C181.453 28.1856 181.818 28.0977 182.087 27.922C182.357 27.7423 182.55 27.502 182.667 27.2013C182.789 26.8966 182.849 26.5587 182.849 26.1876ZM189.318 27.3067C189.318 27.1505 189.282 27.006 189.212 26.8731C189.146 26.7364 189.007 26.6134 188.796 26.504C188.589 26.3907 188.277 26.2931 187.859 26.211C187.507 26.1368 187.189 26.0489 186.904 25.9474C186.622 25.8458 186.382 25.7227 186.183 25.5782C185.988 25.4337 185.837 25.2638 185.732 25.0685C185.626 24.8731 185.574 24.6446 185.574 24.3829C185.574 24.1329 185.628 23.8966 185.738 23.6739C185.851 23.4513 186.009 23.254 186.212 23.0821C186.419 22.9102 186.667 22.7755 186.956 22.6778C187.245 22.5802 187.568 22.5313 187.923 22.5313C188.431 22.5313 188.865 22.6212 189.224 22.8009C189.583 22.9806 189.859 23.2208 190.05 23.5216C190.241 23.8185 190.337 24.1485 190.337 24.5118H189.253C189.253 24.336 189.2 24.1661 189.095 24.002C188.993 23.8341 188.843 23.6954 188.644 23.586C188.449 23.4767 188.208 23.422 187.923 23.422C187.622 23.422 187.378 23.4688 187.191 23.5626C187.007 23.6524 186.872 23.7677 186.786 23.9083C186.704 24.0489 186.663 24.1974 186.663 24.3536C186.663 24.4708 186.683 24.5763 186.722 24.67C186.765 24.7599 186.839 24.8438 186.945 24.922C187.05 24.9962 187.199 25.0665 187.39 25.1329C187.581 25.1993 187.825 25.2657 188.122 25.3321C188.642 25.4493 189.07 25.5899 189.406 25.754C189.741 25.9181 189.991 26.1192 190.156 26.3575C190.32 26.5958 190.402 26.8849 190.402 27.2247C190.402 27.502 190.343 27.756 190.226 27.9864C190.113 28.2169 189.947 28.4161 189.728 28.5841C189.513 28.7481 189.255 28.877 188.954 28.9708C188.657 29.0606 188.324 29.1056 187.952 29.1056C187.394 29.1056 186.921 29.006 186.534 28.8067C186.148 28.6075 185.855 28.3497 185.656 28.0333C185.456 27.7169 185.357 27.3829 185.357 27.0313H186.447C186.462 27.3282 186.548 27.5645 186.704 27.7403C186.861 27.9122 187.052 28.0352 187.279 28.1095C187.505 28.1798 187.73 28.2149 187.952 28.2149C188.249 28.2149 188.497 28.1759 188.697 28.0977C188.9 28.0196 189.054 27.9122 189.159 27.7755C189.265 27.6388 189.318 27.4825 189.318 27.3067ZM193.149 19.9884V28.9884H192.065V19.9884H193.149ZM192.892 25.5782L192.44 25.5606C192.444 25.127 192.509 24.7267 192.634 24.3595C192.759 23.9884 192.935 23.6661 193.161 23.3927C193.388 23.1192 193.657 22.9083 193.97 22.7599C194.286 22.6075 194.636 22.5313 195.019 22.5313C195.331 22.5313 195.612 22.5743 195.862 22.6602C196.112 22.7423 196.325 22.8751 196.501 23.0587C196.681 23.2423 196.817 23.4806 196.911 23.7735C197.005 24.0626 197.052 24.4161 197.052 24.8341V28.9884H195.962V24.8224C195.962 24.4903 195.913 24.2247 195.815 24.0255C195.718 23.8224 195.575 23.6759 195.388 23.586C195.2 23.4923 194.97 23.4454 194.696 23.4454C194.427 23.4454 194.181 23.502 193.958 23.6153C193.739 23.7286 193.55 23.8849 193.39 24.0841C193.233 24.2833 193.11 24.5118 193.021 24.7696C192.935 25.0235 192.892 25.2931 192.892 25.5782ZM202.653 27.9044V24.6407C202.653 24.3907 202.602 24.1739 202.501 23.9903C202.403 23.8028 202.255 23.6583 202.055 23.5567C201.856 23.4552 201.61 23.4044 201.317 23.4044C201.044 23.4044 200.804 23.4513 200.596 23.545C200.393 23.6388 200.233 23.7618 200.116 23.9142C200.003 24.0665 199.946 24.2306 199.946 24.4063H198.862C198.862 24.1798 198.921 23.9552 199.038 23.7325C199.155 23.5099 199.323 23.3087 199.542 23.129C199.764 22.9454 200.03 22.8009 200.339 22.6954C200.651 22.586 200.999 22.5313 201.382 22.5313C201.843 22.5313 202.249 22.6095 202.6 22.7657C202.956 22.922 203.233 23.1583 203.432 23.4747C203.636 23.7872 203.737 24.1798 203.737 24.6524V27.6056C203.737 27.8165 203.755 28.0411 203.79 28.2794C203.829 28.5177 203.886 28.7227 203.96 28.8946V28.9884H202.829C202.774 28.8634 202.731 28.6974 202.7 28.4903C202.669 28.2794 202.653 28.0841 202.653 27.9044ZM202.841 25.1446L202.852 25.9063H201.757C201.448 25.9063 201.173 25.9317 200.93 25.9825C200.688 26.0294 200.485 26.1017 200.321 26.1993C200.157 26.297 200.032 26.42 199.946 26.5685C199.86 26.713 199.817 26.8829 199.817 27.0782C199.817 27.2774 199.862 27.4591 199.952 27.6231C200.042 27.7872 200.177 27.9181 200.356 28.0157C200.54 28.1095 200.764 28.1563 201.03 28.1563C201.362 28.1563 201.655 28.086 201.909 27.9454C202.163 27.8048 202.364 27.6329 202.513 27.4298C202.665 27.2267 202.747 27.0294 202.759 26.838L203.221 27.3595C203.194 27.5235 203.12 27.7052 202.999 27.9044C202.878 28.1036 202.716 28.295 202.513 28.4786C202.313 28.6583 202.075 28.8087 201.798 28.9298C201.524 29.047 201.216 29.1056 200.872 29.1056C200.442 29.1056 200.065 29.0216 199.741 28.8536C199.421 28.6856 199.171 28.461 198.991 28.1798C198.815 27.8946 198.727 27.5763 198.727 27.2247C198.727 26.8849 198.794 26.586 198.927 26.3282C199.059 26.0665 199.251 25.8497 199.501 25.6778C199.751 25.502 200.052 25.3692 200.403 25.2794C200.755 25.1895 201.147 25.1446 201.581 25.1446H202.841ZM206.86 19.9884V28.9884H205.77V19.9884H206.86ZM211.494 22.6485V23.4806H208.067V22.6485H211.494ZM209.227 21.1075H210.311V27.4181C210.311 27.6329 210.344 27.795 210.41 27.9044C210.477 28.0138 210.563 28.086 210.668 28.1212C210.774 28.1563 210.887 28.1739 211.008 28.1739C211.098 28.1739 211.192 28.1661 211.289 28.1505C211.391 28.131 211.467 28.1153 211.518 28.1036L211.524 28.9884C211.438 29.0157 211.325 29.0411 211.184 29.0645C211.047 29.0919 210.881 29.1056 210.686 29.1056C210.42 29.1056 210.176 29.0528 209.953 28.9474C209.731 28.8419 209.553 28.6661 209.42 28.42C209.291 28.17 209.227 27.8341 209.227 27.4122V21.1075ZM216.697 27.3067C216.697 27.1505 216.662 27.006 216.592 26.8731C216.525 26.7364 216.387 26.6134 216.176 26.504C215.969 26.3907 215.656 26.2931 215.238 26.211C214.887 26.1368 214.568 26.0489 214.283 25.9474C214.002 25.8458 213.762 25.7227 213.563 25.5782C213.367 25.4337 213.217 25.2638 213.111 25.0685C213.006 24.8731 212.953 24.6446 212.953 24.3829C212.953 24.1329 213.008 23.8966 213.117 23.6739C213.231 23.4513 213.389 23.254 213.592 23.0821C213.799 22.9102 214.047 22.7755 214.336 22.6778C214.625 22.5802 214.947 22.5313 215.303 22.5313C215.811 22.5313 216.244 22.6212 216.604 22.8009C216.963 22.9806 217.238 23.2208 217.43 23.5216C217.621 23.8185 217.717 24.1485 217.717 24.5118H216.633C216.633 24.336 216.58 24.1661 216.475 24.002C216.373 23.8341 216.223 23.6954 216.024 23.586C215.828 23.4767 215.588 23.422 215.303 23.422C215.002 23.422 214.758 23.4688 214.57 23.5626C214.387 23.6524 214.252 23.7677 214.166 23.9083C214.084 24.0489 214.043 24.1974 214.043 24.3536C214.043 24.4708 214.063 24.5763 214.102 24.67C214.145 24.7599 214.219 24.8438 214.324 24.922C214.43 24.9962 214.578 25.0665 214.77 25.1329C214.961 25.1993 215.205 25.2657 215.502 25.3321C216.022 25.4493 216.449 25.5899 216.785 25.754C217.121 25.9181 217.371 26.1192 217.535 26.3575C217.699 26.5958 217.781 26.8849 217.781 27.2247C217.781 27.502 217.723 27.756 217.606 27.9864C217.492 28.2169 217.326 28.4161 217.107 28.5841C216.893 28.7481 216.635 28.877 216.334 28.9708C216.037 29.0606 215.703 29.1056 215.332 29.1056C214.774 29.1056 214.301 29.006 213.914 28.8067C213.527 28.6075 213.234 28.3497 213.035 28.0333C212.836 27.7169 212.736 27.3829 212.736 27.0313H213.826C213.842 27.3282 213.928 27.5645 214.084 27.7403C214.24 27.9122 214.432 28.0352 214.658 28.1095C214.885 28.1798 215.109 28.2149 215.332 28.2149C215.629 28.2149 215.877 28.1759 216.076 28.0977C216.279 28.0196 216.434 27.9122 216.539 27.7755C216.645 27.6388 216.697 27.4825 216.697 27.3067ZM224.168 28.0977V28.9884H219.556V28.0977H224.168ZM223.998 23.4161L219.803 28.9884H219.14V28.1915L223.306 22.6485H223.998V23.4161ZM223.517 22.6485V23.545H219.187V22.6485H223.517ZM229.517 27.5235V22.6485H230.607V28.9884H229.57L229.517 27.5235ZM229.722 26.1876L230.173 26.1759C230.173 26.5977 230.129 26.9884 230.039 27.3477C229.953 27.7032 229.812 28.0118 229.617 28.2735C229.421 28.5352 229.166 28.7403 228.849 28.8888C228.533 29.0333 228.148 29.1056 227.695 29.1056C227.386 29.1056 227.103 29.0606 226.845 28.9708C226.591 28.881 226.373 28.7423 226.189 28.5548C226.005 28.3673 225.863 28.1231 225.761 27.8224C225.664 27.5216 225.615 27.1602 225.615 26.7384V22.6485H226.699V26.7501C226.699 27.0352 226.73 27.2716 226.793 27.4591C226.859 27.6427 226.947 27.7892 227.056 27.8985C227.17 28.004 227.295 28.0782 227.431 28.1212C227.572 28.1642 227.716 28.1856 227.865 28.1856C228.326 28.1856 228.691 28.0977 228.961 27.922C229.23 27.7423 229.423 27.502 229.541 27.2013C229.662 26.8966 229.722 26.5587 229.722 26.1876ZM235.036 28.2149C235.294 28.2149 235.533 28.1622 235.751 28.0567C235.97 27.9513 236.15 27.8067 236.29 27.6231C236.431 27.4356 236.511 27.2227 236.531 26.9845H237.562C237.542 27.3595 237.415 27.7091 237.181 28.0333C236.951 28.3536 236.648 28.6134 236.273 28.8126C235.898 29.0079 235.486 29.1056 235.036 29.1056C234.56 29.1056 234.144 29.0216 233.788 28.8536C233.437 28.6856 233.144 28.4552 232.91 28.1622C232.679 27.8692 232.505 27.5333 232.388 27.1544C232.275 26.7716 232.218 26.3673 232.218 25.9415V25.6954C232.218 25.2696 232.275 24.8673 232.388 24.4884C232.505 24.1056 232.679 23.7677 232.91 23.4747C233.144 23.1817 233.437 22.9513 233.788 22.7833C234.144 22.6153 234.56 22.5313 235.036 22.5313C235.533 22.5313 235.966 22.6329 236.337 22.836C236.708 23.0352 236.999 23.3087 237.21 23.6563C237.425 24.0001 237.542 24.3907 237.562 24.8282H236.531C236.511 24.5665 236.437 24.3302 236.308 24.1192C236.183 23.9083 236.011 23.7403 235.792 23.6153C235.577 23.4864 235.326 23.422 235.036 23.422C234.704 23.422 234.425 23.4884 234.199 23.6212C233.976 23.7501 233.798 23.9259 233.665 24.1485C233.536 24.3673 233.443 24.6114 233.384 24.881C233.329 25.1466 233.302 25.4181 233.302 25.6954V25.9415C233.302 26.2188 233.329 26.4923 233.384 26.7618C233.439 27.0313 233.531 27.2755 233.66 27.4942C233.792 27.713 233.97 27.8888 234.193 28.0216C234.419 28.1505 234.701 28.2149 235.036 28.2149ZM240.11 19.9884V28.9884H239.021V19.9884H240.11ZM243.984 22.6485L241.218 25.6075L239.671 27.213L239.583 26.0587L240.691 24.7345L242.659 22.6485H243.984ZM242.993 28.9884L240.732 25.9649L241.294 24.9981L244.271 28.9884H242.993ZM247.856 29.1056C247.415 29.1056 247.015 29.0313 246.655 28.8829C246.3 28.7306 245.993 28.5177 245.735 28.2442C245.481 27.9708 245.286 27.6466 245.149 27.2716C245.013 26.8966 244.944 26.4864 244.944 26.0411V25.795C244.944 25.2794 245.02 24.8204 245.173 24.4181C245.325 24.0118 245.532 23.6681 245.794 23.3868C246.056 23.1056 246.352 22.8927 246.684 22.7481C247.016 22.6036 247.36 22.5313 247.716 22.5313C248.169 22.5313 248.559 22.6095 248.888 22.7657C249.22 22.922 249.491 23.1407 249.702 23.422C249.913 23.6993 250.069 24.0274 250.171 24.4063C250.272 24.7813 250.323 25.1915 250.323 25.6368V26.1231H245.589V25.2384H249.239V25.1563C249.224 24.8751 249.165 24.6017 249.063 24.336C248.966 24.0704 248.809 23.8517 248.595 23.6798C248.38 23.5079 248.087 23.422 247.716 23.422C247.47 23.422 247.243 23.4747 247.036 23.5802C246.829 23.6817 246.651 23.8341 246.503 24.0372C246.354 24.2403 246.239 24.4884 246.157 24.7813C246.075 25.0743 246.034 25.4122 246.034 25.795V26.0411C246.034 26.3419 246.075 26.6251 246.157 26.8907C246.243 27.1524 246.366 27.3829 246.526 27.5821C246.69 27.7813 246.888 27.9376 247.118 28.0509C247.352 28.1642 247.618 28.2208 247.915 28.2208C248.298 28.2208 248.622 28.1427 248.888 27.9864C249.153 27.8302 249.386 27.6212 249.585 27.3595L250.241 27.881C250.104 28.088 249.931 28.2852 249.72 28.4727C249.509 28.6602 249.249 28.8126 248.94 28.9298C248.636 29.047 248.274 29.1056 247.856 29.1056ZM252.913 23.6446V28.9884H251.829V22.6485H252.883L252.913 23.6446ZM254.893 22.6134L254.887 23.6212C254.798 23.6017 254.712 23.5899 254.63 23.586C254.551 23.5782 254.462 23.5743 254.36 23.5743C254.11 23.5743 253.889 23.6134 253.698 23.6915C253.506 23.7696 253.344 23.879 253.212 24.0196C253.079 24.1602 252.973 24.3282 252.895 24.5235C252.821 24.7149 252.772 24.9259 252.749 25.1563L252.444 25.3321C252.444 24.9493 252.481 24.5899 252.555 24.254C252.633 23.9181 252.753 23.6212 252.913 23.3634C253.073 23.1017 253.276 22.8985 253.522 22.754C253.772 22.6056 254.069 22.5313 254.413 22.5313C254.491 22.5313 254.581 22.5411 254.682 22.5606C254.784 22.5763 254.854 22.5938 254.893 22.6134Z" fill="black"/>
<path d="M127.639 32.3084C129.055 29.8572 129.798 27.0758 129.793 24.2454C129.789 21.415 129.037 18.636 127.614 16.1893C126.191 13.7427 124.147 11.7152 121.689 10.3118C119.231 8.9084 116.446 8.1789 113.615 8.19707L113.719 24.2712L127.639 32.3084Z" fill="white"/>
<path d="M131.798 34.7091C133.635 31.5258 134.6 27.9135 134.594 24.2377C134.588 20.5618 133.612 16.9527 131.764 13.7752C129.916 10.5978 127.261 7.96463 124.069 6.14205C120.877 4.31947 117.26 3.37207 113.585 3.39566" stroke="black" stroke-width="2"/>
<line x1="92.2012" y1="18.1546" x2="106.881" y2="18.1546" stroke="white"/>
<line x1="140.022" y1="18.1546" x2="154.702" y2="18.1546" stroke="black"/>
</svg>
